<?xml version="1.0" encoding="utf-8"?>
<!-- Generator: Adobe Illustrator 25.4.1, SVG Export Plug-In . SVG Version: 6.00 Build 0)  -->
<svg version="1.1" id="Capa_1" xmlns="http://www.w3.org/2000/svg" xmlns:xlink="http://www.w3.org/1999/xlink" x="0px" y="0px"
	 viewBox="0 0 16.3 63.4" style="enable-background:new 0 0 16.3 63.4;" xml:space="preserve">
<style type="text/css">
	.st0{fill:#FFFFFF;}
</style>
<g>
	<path class="st0" d="M13.5,22.4c-0.5-0.4-0.8-1-0.9-1.6L11.1,2.4h0.4c0.1,0,0.2-0.1,0.1-0.2L11.3,1c-0.2-0.6-0.7-1-1.3-1H6.2
		C5.6,0,5,0.4,4.9,1L4.6,2.2c0,0.1,0,0.2,0.1,0.2h0.4L3.6,20.8c-0.1,0.6-0.4,1.2-0.9,1.6C1.1,23.6,0,25.5,0,27.7v32.2
		c0,1.9,1.5,3.5,3.5,3.5h9.3c1.9,0,3.5-1.5,3.5-3.5V27.8C16.2,25.6,15.1,23.6,13.5,22.4z"/>
</g>
</svg>
