<?xml version="1.0" encoding="utf-8"?>
<!-- Generator: Adobe Illustrator 25.4.1, SVG Export Plug-In . SVG Version: 6.00 Build 0)  -->
<svg version="1.1" xmlns="http://www.w3.org/2000/svg" xmlns:xlink="http://www.w3.org/1999/xlink" x="0px" y="0px"
	 viewBox="0 0 574.1 117.87" style="enable-background:new 0 0 574.1 117.87;" xml:space="preserve">
<g id="Construccion">
</g>
<g id="Default">
	<g>
		<g>
			<path d="M168.64,110.84c-0.67-0.37-1.2-1.11-1.59-2.2l-0.53-1.38h-5.95l-1.7,4.03h-0.96l5.95-14.01h0.64l4.67,11.36
				c0.35,0.82,0.69,1.38,1,1.69c0.31,0.3,0.76,0.49,1.34,0.54v0.43c-0.25,0.07-0.54,0.11-0.85,0.11
				C169.98,111.4,169.31,111.21,168.64,110.84z M160.89,106.41h5.2l-2.55-6.16L160.89,106.41z"/>
			<path d="M177.68,110.97c-0.39-0.31-0.83-0.87-1.3-1.69l-1.49-2.53h-1.04v4.53h-1.34v-8.03c0-0.5-0.07-0.88-0.21-1.12
				c-0.14-0.24-0.42-0.36-0.83-0.36h-0.3v-0.3h3.86c0.94,0,1.8,0.18,2.56,0.56c0.77,0.37,1.15,1.08,1.15,2.12
				c0,1.32-0.79,2.16-2.38,2.53l1.56,2.6c0.37,0.61,0.7,1.04,0.99,1.29c0.29,0.24,0.63,0.38,1.02,0.42v0.3
				c-0.09,0.04-0.22,0.07-0.38,0.1c-0.16,0.03-0.33,0.04-0.51,0.04C178.53,111.44,178.07,111.29,177.68,110.97z M175.97,106.02
				c0.36-0.15,0.67-0.38,0.92-0.7c0.25-0.32,0.38-0.7,0.38-1.16c0-0.49-0.13-0.89-0.38-1.21c-0.25-0.32-0.56-0.56-0.92-0.71
				c-0.36-0.15-0.7-0.23-1-0.23c-0.35,0-0.72,0.05-1.11,0.15v3.94c0.4,0.1,0.77,0.15,1.11,0.15
				C175.27,106.24,175.61,106.17,175.97,106.02z"/>
			<path d="M183.59,102.08h-1.34c-1.24,0-1.86,0.57-1.86,1.71h-0.3v-1.11c0-0.79,0.42-1.19,1.26-1.19h6.91v0.59h-3.34v9.22h-1.34
				V102.08z"/>
			<path d="M190.02,103.27c0-0.5-0.07-0.88-0.21-1.12c-0.14-0.24-0.42-0.36-0.83-0.36h-0.3v-0.3h6.33c0.84,0,1.26,0.4,1.26,1.19
				v1.11h-0.3c0-1.14-0.62-1.71-1.86-1.71h-2.76v3.86h4.01v0.59h-4.01v4.16h2.6c0.68,0,1.22-0.12,1.61-0.37
				c0.39-0.25,0.69-0.67,0.92-1.26l0.3,0.07l-0.52,1.41c-0.18,0.5-0.55,0.74-1.11,0.74h-5.13V103.27z"/>
			<path d="M199.8,111.32c-0.53-0.15-0.95-0.36-1.29-0.64c-0.33-0.28-0.5-0.59-0.5-0.95v-1.59h0.27c0.17,0.99,0.5,1.71,0.98,2.15
				c0.49,0.44,1.15,0.66,2.01,0.66c0.54,0,0.99-0.13,1.38-0.4c0.38-0.27,0.57-0.64,0.57-1.11c0-0.42-0.13-0.78-0.39-1.09
				c-0.26-0.31-0.67-0.63-1.25-0.97l-1.83-1.09c-0.63-0.38-1.08-0.76-1.35-1.14c-0.26-0.39-0.39-0.86-0.39-1.41
				c0-0.76,0.27-1.37,0.79-1.84c0.53-0.46,1.23-0.69,2.09-0.69c0.51,0,1.01,0.07,1.5,0.22c0.5,0.14,0.9,0.35,1.23,0.62
				c0.32,0.27,0.48,0.59,0.48,0.94v1.59h-0.27c-0.17-0.99-0.49-1.7-0.96-2.13c-0.47-0.43-1.13-0.65-1.98-0.65
				c-0.46,0-0.86,0.14-1.2,0.42c-0.35,0.28-0.52,0.64-0.52,1.09c0,0.41,0.13,0.74,0.38,1.01c0.25,0.27,0.68,0.58,1.27,0.94
				l1.83,1.09c0.67,0.41,1.15,0.78,1.43,1.13c0.28,0.35,0.42,0.79,0.42,1.32c0,0.83-0.28,1.5-0.83,2c-0.55,0.5-1.31,0.75-2.26,0.75
				C200.86,111.55,200.33,111.47,199.8,111.32z"/>
			<path d="M212.97,110.97c-0.47-0.26-0.84-0.78-1.11-1.54l-0.37-0.97h-4.16l-1.19,2.82h-0.67l4.16-9.81h0.45l3.27,7.95
				c0.25,0.57,0.48,0.97,0.7,1.18c0.22,0.21,0.53,0.34,0.94,0.38v0.3c-0.18,0.05-0.38,0.07-0.6,0.07
				C213.91,111.37,213.44,111.24,212.97,110.97z M207.54,107.88h3.64l-1.78-4.31L207.54,107.88z"/>
			<path d="M216.8,103.49v7.8h-0.59v-8.03c0-0.48-0.1-0.84-0.3-1.1c-0.2-0.26-0.55-0.39-1.03-0.39h-0.15v-0.3h0.97
				c0.46,0,0.84,0.07,1.16,0.22s0.6,0.37,0.85,0.67l5.2,6.47v-7.36h0.59v9.96h-0.3L216.8,103.49z"/>
			<path d="M227.62,110.91c-0.7-0.45-1.24-1.08-1.61-1.87c-0.38-0.79-0.57-1.67-0.57-2.65c0-0.97,0.19-1.85,0.57-2.65
				c0.38-0.79,0.91-1.42,1.61-1.87c0.7-0.46,1.51-0.68,2.43-0.68c0.92,0,1.73,0.23,2.43,0.68c0.7,0.45,1.24,1.08,1.61,1.87
				c0.38,0.79,0.56,1.68,0.56,2.65c0,0.97-0.19,1.85-0.56,2.65c-0.38,0.79-0.91,1.42-1.61,1.87c-0.7,0.46-1.51,0.68-2.43,0.68
				C229.13,111.59,228.32,111.36,227.62,110.91z M231.72,110.43c0.47-0.38,0.83-0.91,1.08-1.6c0.25-0.69,0.37-1.5,0.37-2.45
				c0-0.94-0.12-1.76-0.37-2.44c-0.25-0.69-0.61-1.22-1.08-1.6c-0.47-0.38-1.03-0.57-1.67-0.57c-0.64,0-1.2,0.19-1.67,0.57
				c-0.47,0.38-0.83,0.91-1.08,1.6c-0.25,0.69-0.37,1.5-0.37,2.44c0,0.94,0.12,1.76,0.37,2.45c0.25,0.69,0.61,1.22,1.08,1.6
				c0.47,0.38,1.03,0.57,1.67,0.57C230.69,111,231.25,110.81,231.72,110.43z"/>
			<path d="M237.93,111.32c-0.53-0.15-0.95-0.36-1.29-0.64c-0.33-0.28-0.5-0.59-0.5-0.95v-1.59h0.27c0.17,0.99,0.5,1.71,0.98,2.15
				c0.49,0.44,1.15,0.66,2.01,0.66c0.54,0,0.99-0.13,1.38-0.4c0.38-0.27,0.57-0.64,0.57-1.11c0-0.42-0.13-0.78-0.39-1.09
				c-0.26-0.31-0.67-0.63-1.25-0.97l-1.83-1.09c-0.63-0.38-1.08-0.76-1.35-1.14c-0.26-0.39-0.39-0.86-0.39-1.41
				c0-0.76,0.27-1.37,0.79-1.84c0.53-0.46,1.23-0.69,2.09-0.69c0.51,0,1.01,0.07,1.5,0.22c0.5,0.14,0.9,0.35,1.23,0.62
				c0.32,0.27,0.48,0.59,0.48,0.94v1.59h-0.27c-0.17-0.99-0.49-1.7-0.96-2.13c-0.47-0.43-1.13-0.65-1.98-0.65
				c-0.46,0-0.86,0.14-1.2,0.42c-0.35,0.28-0.52,0.64-0.52,1.09c0,0.41,0.13,0.74,0.38,1.01c0.25,0.27,0.68,0.58,1.27,0.94
				l1.83,1.09c0.67,0.41,1.15,0.78,1.43,1.13c0.28,0.35,0.42,0.79,0.42,1.32c0,0.83-0.28,1.5-0.83,2c-0.55,0.5-1.31,0.75-2.26,0.75
				C238.99,111.55,238.45,111.47,237.93,111.32z"/>
			<path d="M250.82,99.83c0-0.72-0.1-1.25-0.3-1.6c-0.2-0.35-0.59-0.52-1.19-0.52h-0.43v-0.43h5.56c2.75,0,4.82,0.61,6.23,1.83
				c1.41,1.22,2.11,2.92,2.11,5.1c0,1.4-0.3,2.64-0.89,3.7c-0.59,1.07-1.48,1.9-2.64,2.5c-1.17,0.59-2.59,0.89-4.26,0.89h-4.2V99.83
				z M257.79,109.77c0.84-0.52,1.5-1.24,1.99-2.19c0.48-0.94,0.72-2.04,0.72-3.3c0-1.23-0.24-2.32-0.71-3.27
				c-0.47-0.95-1.14-1.68-1.98-2.21c-0.85-0.52-1.81-0.79-2.89-0.79c-0.68,0-1.39,0.11-2.12,0.34v11.91
				c0.79,0.18,1.51,0.28,2.17,0.28C256.01,110.55,256.95,110.29,257.79,109.77z"/>
			<path d="M265.33,103.27c0-0.5-0.07-0.88-0.21-1.12c-0.14-0.24-0.42-0.36-0.83-0.36h-0.3v-0.3h6.33c0.84,0,1.26,0.4,1.26,1.19
				v1.11h-0.3c0-1.14-0.62-1.71-1.86-1.71h-2.76v3.86h4.01v0.59h-4.01v4.16h2.6c0.68,0,1.22-0.12,1.61-0.37
				c0.39-0.25,0.69-0.67,0.92-1.26l0.3,0.07l-0.52,1.41c-0.18,0.5-0.55,0.74-1.11,0.74h-5.13V103.27z"/>
			<path d="M280.08,99.83c0-0.72-0.1-1.25-0.3-1.6c-0.2-0.35-0.59-0.52-1.19-0.52h-0.43v-0.43h1.91c0.52,0,0.92,0.07,1.18,0.2
				s0.45,0.38,0.56,0.73c0.11,0.35,0.17,0.89,0.17,1.61v10.62h7.54v0.85h-9.45V99.83z"/>
			<path d="M297.51,110.97c-0.47-0.26-0.84-0.78-1.11-1.54l-0.37-0.97h-4.16l-1.19,2.82H290l4.16-9.81h0.45l3.27,7.95
				c0.25,0.57,0.48,0.97,0.7,1.18c0.22,0.21,0.53,0.34,0.94,0.38v0.3c-0.18,0.05-0.38,0.07-0.59,0.07
				C298.45,111.37,297.98,111.24,297.51,110.97z M292.08,107.88h3.64l-1.78-4.31L292.08,107.88z"/>
			<path d="M306.67,99.83c0-0.72-0.1-1.25-0.3-1.6c-0.2-0.35-0.59-0.52-1.19-0.52h-0.42v-0.43h8.47c1.2,0,1.8,0.57,1.8,1.7v1.59
				h-0.43c0-1.63-0.88-2.44-2.65-2.44h-3.38v5.63h4.8v0.85h-4.8v6.69h-1.91V99.83z"/>
			<path d="M317.19,103.27c0-0.5-0.07-0.88-0.21-1.12c-0.14-0.24-0.41-0.36-0.83-0.36h-0.3v-0.3h6.33c0.84,0,1.26,0.4,1.26,1.19
				v1.11h-0.3c0-1.14-0.62-1.71-1.86-1.71h-2.76v3.86h4.01v0.59h-4.01v4.16h2.6c0.68,0,1.22-0.12,1.61-0.37
				c0.39-0.25,0.69-0.67,0.92-1.26l0.3,0.07l-0.52,1.41c-0.18,0.5-0.55,0.74-1.11,0.74h-5.13V103.27z"/>
			<path d="M331.12,110.97c-0.39-0.31-0.83-0.87-1.3-1.69l-1.49-2.53h-1.04v4.53h-1.34v-8.03c0-0.5-0.07-0.88-0.21-1.12
				c-0.14-0.24-0.41-0.36-0.83-0.36h-0.3v-0.3h3.86c0.94,0,1.8,0.18,2.56,0.56c0.77,0.37,1.15,1.08,1.15,2.12
				c0,1.32-0.79,2.16-2.38,2.53l1.56,2.6c0.37,0.61,0.7,1.04,0.99,1.29c0.29,0.24,0.63,0.38,1.02,0.42v0.3
				c-0.09,0.04-0.22,0.07-0.38,0.1c-0.16,0.03-0.33,0.04-0.51,0.04C331.97,111.44,331.51,111.29,331.12,110.97z M329.41,106.02
				c0.36-0.15,0.67-0.38,0.92-0.7c0.25-0.32,0.38-0.7,0.38-1.16c0-0.49-0.13-0.89-0.38-1.21c-0.25-0.32-0.56-0.56-0.92-0.71
				c-0.36-0.15-0.7-0.23-1-0.23c-0.35,0-0.72,0.05-1.11,0.15v3.94c0.4,0.1,0.77,0.15,1.11,0.15
				C328.72,106.24,329.05,106.17,329.41,106.02z"/>
			<path d="M344.06,111.64c-0.4-0.22-0.68-0.56-0.84-1.02c-0.16-0.46-0.25-1.08-0.25-1.85v-5.72l-3.72,8.25h-0.3l-3.86-8.4v8.4
				h-0.59v-9.81h1.41l3.57,7.73l3.49-7.73h1.34v7.28c0,0.92,0.12,1.63,0.35,2.14c0.23,0.51,0.59,0.76,1.06,0.76v0.3
				C345.01,111.96,344.46,111.85,344.06,111.64z"/>
			<path d="M347.42,103.27c0-0.5-0.07-0.88-0.21-1.12c-0.14-0.24-0.41-0.36-0.83-0.36h-0.3v-0.3h6.33c0.84,0,1.26,0.4,1.26,1.19
				v1.11h-0.3c0-1.14-0.62-1.71-1.86-1.71h-2.76v3.86h4.01v0.59h-4.01v4.16h2.6c0.68,0,1.22-0.12,1.61-0.37
				c0.39-0.25,0.69-0.67,0.92-1.26l0.3,0.07l-0.52,1.41c-0.18,0.5-0.55,0.74-1.11,0.74h-5.13V103.27z"/>
			<path d="M356.84,103.49v7.8h-0.59v-8.03c0-0.48-0.1-0.84-0.3-1.1c-0.2-0.26-0.55-0.39-1.03-0.39h-0.15v-0.3h0.97
				c0.46,0,0.84,0.07,1.16,0.22c0.32,0.15,0.6,0.37,0.85,0.67l5.2,6.47v-7.36h0.59v9.96h-0.3L356.84,103.49z"/>
			<path d="M368.6,102.08h-1.34c-1.24,0-1.86,0.57-1.86,1.71h-0.3v-1.11c0-0.79,0.42-1.19,1.26-1.19h6.91v0.59h-3.35v9.22h-1.34
				V102.08z"/>
			<path d="M380.21,110.97c-0.47-0.26-0.84-0.78-1.11-1.54l-0.37-0.97h-4.16l-1.19,2.82h-0.67l4.16-9.81h0.45l3.27,7.95
				c0.25,0.57,0.48,0.97,0.7,1.18c0.22,0.21,0.53,0.34,0.94,0.38v0.3c-0.18,0.05-0.38,0.07-0.59,0.07
				C381.15,111.37,380.68,111.24,380.21,110.97z M374.78,107.88h3.64l-1.78-4.31L374.78,107.88z"/>
			<path d="M384.44,110.92c-0.7-0.45-1.24-1.05-1.61-1.82c-0.38-0.77-0.57-1.62-0.57-2.56c0-0.97,0.21-1.87,0.62-2.69
				c0.41-0.82,0.97-1.47,1.68-1.95s1.48-0.71,2.31-0.71c0.79,0,1.49,0.11,2.09,0.33c0.6,0.22,1.04,0.51,1.33,0.86
				c0.17,0.21,0.27,0.48,0.31,0.82c0.04,0.34,0.06,0.81,0.06,1.4h-0.3c-0.19-0.96-0.53-1.67-1.04-2.13
				c-0.5-0.46-1.17-0.69-2.01-0.69c-1.07,0-1.93,0.38-2.59,1.13c-0.65,0.75-0.98,1.96-0.98,3.63c0,0.78,0.13,1.51,0.38,2.19
				c0.25,0.67,0.65,1.22,1.18,1.64c0.53,0.42,1.2,0.63,2.01,0.63c0.72,0,1.35-0.17,1.9-0.52c0.54-0.35,1.02-0.87,1.45-1.56l0.3,0.22
				c-0.45,0.89-1.02,1.52-1.69,1.89c-0.67,0.37-1.47,0.56-2.4,0.56C385.95,111.59,385.14,111.37,384.44,110.92z"/>
			<path d="M393.33,111.15c-0.18-0.09-0.31-0.26-0.39-0.51c-0.08-0.25-0.12-0.63-0.12-1.13v-8.03h1.34v8.03
				c0,0.5,0.07,0.88,0.21,1.12c0.14,0.24,0.42,0.36,0.83,0.36h0.3v0.3h-1.34C393.78,111.29,393.51,111.25,393.33,111.15z"/>
			<path d="M398.48,110.91c-0.7-0.45-1.24-1.08-1.61-1.87c-0.38-0.79-0.57-1.67-0.57-2.65c0-0.97,0.19-1.85,0.57-2.65
				c0.37-0.79,0.91-1.42,1.61-1.87c0.7-0.46,1.51-0.68,2.43-0.68c0.92,0,1.73,0.23,2.43,0.68c0.7,0.45,1.24,1.08,1.61,1.87
				c0.38,0.79,0.57,1.68,0.57,2.65c0,0.97-0.19,1.85-0.57,2.65c-0.38,0.79-0.91,1.42-1.61,1.87c-0.7,0.46-1.51,0.68-2.43,0.68
				C399.99,111.59,399.18,111.36,398.48,110.91z M402.59,110.43c0.47-0.38,0.83-0.91,1.08-1.6c0.25-0.69,0.37-1.5,0.37-2.45
				c0-0.94-0.12-1.76-0.37-2.44c-0.25-0.69-0.61-1.22-1.08-1.6c-0.47-0.38-1.03-0.57-1.67-0.57s-1.2,0.19-1.67,0.57
				c-0.47,0.38-0.83,0.91-1.08,1.6c-0.25,0.69-0.37,1.5-0.37,2.44c0,0.94,0.12,1.76,0.37,2.45c0.25,0.69,0.61,1.22,1.08,1.6
				c0.47,0.38,1.03,0.57,1.67,0.57S402.11,110.81,402.59,110.43z M400.6,100.59l0.59-1.93h1.41l-1.41,1.93H400.6z"/>
			<path d="M408.33,103.49v7.8h-0.59v-8.03c0-0.48-0.1-0.84-0.3-1.1c-0.2-0.26-0.55-0.39-1.03-0.39h-0.15v-0.3h0.97
				c0.46,0,0.84,0.07,1.16,0.22c0.32,0.15,0.6,0.37,0.85,0.67l5.2,6.47v-7.36h0.59v9.96h-0.3L408.33,103.49z"/>
		</g>
		<path d="M565.33,31.24c2.96-0.49,5.88-1.13,8.78-1.94c-2.74,2.1-5.68,3.92-8.78,5.44c0,6.26,0,12.51,0,18.77c0,3.13,0,6.26,0,9.39
			c0,0.35,0,0.7,0,1.05c0,0.06,0,0.12,0,0.19c0,0.02,0,0.04,0,0.06c0,0.04,0,0.08,0,0.12c0,0.08-0.01,0.16-0.01,0.24
			c-0.01,0.16-0.02,0.32-0.02,0.48c-0.02,0.33-0.04,0.65-0.07,0.98c-0.06,0.67-0.13,1.34-0.23,2c-0.2,1.4-0.47,2.79-0.82,4.16
			c-1.53,6.05-4.44,11.81-8.21,16.75c-3.76,4.93-8.56,9.26-14.03,12.26c7.16-8.51,11.83-18.98,13.7-29.89
			c0.47-2.74,0.76-5.49,0.87-8.27c0.02-0.53,0.04-1.07,0.05-1.6c0-0.27,0.01-0.53,0.01-0.8c0-0.65,0-1.3,0-1.95
			c0-1.32,0-2.65,0-3.97c0-5.54,0-11.09,0-16.63c-7.62,2.13-15.63,2.48-23.4,1.02c0,5.08,0,10.16,0,15.24
			c3.92,0.96,7.9,1.01,11.86,0.27c1.97-0.37,3.87-0.92,5.74-1.63c0.98-0.37,1.93-0.79,2.88-1.24c0.24-0.12,0.48-0.23,0.72-0.35
			c0.06-0.03,0.12-0.06,0.18-0.09c0.03-0.02,0.06-0.03,0.09-0.05c0,0,0.01,0,0.01-0.01c0,0,0,0,0,0.01c0,0.01-0.01,0.01-0.01,0.02
			c-0.01,0.01-0.01,0.02-0.02,0.04c-0.05,0.09-0.11,0.19-0.17,0.28c-0.23,0.38-0.46,0.75-0.71,1.12c-2.24,3.31-5.35,5.98-8.95,7.72
			c-3.6,1.73-7.63,2.49-11.62,2.05c0,4.71,0,9.41,0,14.12c0,5.57-1.52,11.04-4.39,15.82c-2.87-4.78-4.39-10.25-4.39-15.82
			c0-5.25,0-10.49,0-15.74c-3.81-1.3-7.74-1.66-11.73-1.1c-1.97,0.28-3.89,0.77-5.76,1.45c-0.97,0.35-1.92,0.75-2.86,1.18
			c-0.24,0.11-0.48,0.23-0.72,0.35c-0.12,0.06-0.24,0.12-0.36,0.18c-0.01,0.01-0.03,0.02-0.04,0.02c0,0-0.01,0-0.01,0.01
			c0,0,0,0-0.01,0c0,0,0,0,0,0c0,0,0,0,0,0c0-0.01,0.01-0.01,0.01-0.02c0.01-0.02,0.03-0.05,0.04-0.07
			c0.03-0.05,0.05-0.09,0.08-0.14c0.22-0.38,0.45-0.75,0.7-1.11c2.23-3.31,5.34-5.93,9.01-7.52c3.66-1.59,7.71-2.07,11.64-1.36
			c0-5.24,0-10.49,0-15.73c-7.68-1.69-15.55-2.31-23.4-1.84c0,5.79,0,11.58,0,17.36c0,2.63,0,5.26,0,7.89c0,0.26,0,0.53,0,0.79
			c0.04,2.91,0.27,5.78,0.69,8.65c1.69,11.43,6.45,22.45,13.93,31.34c-5.37-2.94-10.09-7.17-13.82-11.98
			c-3.74-4.82-6.64-10.44-8.25-16.34c-0.4-1.48-0.72-2.98-0.95-4.5c-0.11-0.72-0.2-1.44-0.26-2.17c-0.03-0.35-0.06-0.7-0.08-1.06
			c-0.01-0.17-0.02-0.35-0.03-0.52c0-0.09-0.01-0.17-0.01-0.26c0-0.04,0-0.09,0-0.13c-0.01-0.15,0-0.3,0-0.45c0-3.07,0-6.14,0-9.21
			c0-6.14,0-12.28,0-18.42c-1.59,0.26-3.17,0.57-4.74,0.93c-0.79,0.18-1.57,0.36-2.35,0.56c-0.39,0.1-0.78,0.2-1.16,0.31
			c-0.1,0.03-0.19,0.05-0.29,0.08c-0.05,0.01-0.1,0.03-0.15,0.04c-0.02,0.01-0.05,0.01-0.07,0.02c0,0-0.01,0-0.01,0c0,0,0,0,0.01,0
			c0.01,0,0.01-0.01,0.02-0.01c0.01-0.01,0.02-0.02,0.03-0.02c0.16-0.12,0.32-0.25,0.49-0.37c2.58-1.93,5.34-3.61,8.24-5.03
			c0-0.65,0-1.31,0-1.96c0-0.2,0-0.4-0.01-0.6c-0.01-0.15-0.02-0.3-0.03-0.45c-0.03-0.3-0.07-0.6-0.13-0.9
			c-0.25-1.28-0.77-2.51-1.55-3.56c-0.78-1.05-1.81-1.9-3.02-2.41c-1.21-0.52-2.54-0.66-3.84-0.4c4.83-1.04,9.6-2.27,14.32-3.72
			c0.52-0.16,1.03-0.32,1.54-0.48c0.26-0.08,0.51-0.16,0.77-0.24c0.13-0.04,0.26-0.08,0.38-0.12c0.06-0.02,0.13-0.04,0.19-0.06
			c0.03-0.01,0.06-0.02,0.1-0.03c0.02-0.01,0.03-0.01,0.05-0.02c0,0,0,0,0,0c0,0,0,0,0,0c0,0,0,0.01,0,0.01c0,0.01,0,0.01,0,0.02
			c0,0.02,0,0.05,0,0.07c0,0.05,0,0.09,0,0.14c0,0.09,0,0.19,0,0.28c0,1.23,0,2.47,0,3.7c0,2.47,0,4.93,0,7.4
			c7.62-2.13,15.63-2.48,23.4-1.02c0-2.97,0-5.95,0-8.92c0-2.2-0.99-4.28-2.69-5.66s-3.94-1.94-6.09-1.5
			c4.48-1.92,8.86-4.01,13.16-6.29c4.3,2.28,8.68,4.38,13.16,6.29c-2.15-0.44-4.39,0.11-6.09,1.5s-2.69,3.47-2.69,5.66
			c0,3.68,0,7.36,0,11.03c7.68,1.69,15.55,2.31,23.4,1.84c0-2.71,0-5.42,0-8.13c0-1.36,0-2.71,0-4.07c0-0.44,0-0.89,0-1.33
			c0-0.22,0-0.44,0-0.67c0-0.11,0-0.22,0-0.33c0,0,0-0.01,0-0.01c0,0,0,0,0,0c0,0,0,0,0,0c0,0,0,0,0,0c0,0,0,0,0.01,0
			c0,0,0.01,0,0.01,0c0.08,0.02,0.15,0.05,0.23,0.07c0.15,0.05,0.31,0.1,0.46,0.15c0.31,0.1,0.61,0.2,0.92,0.29
			c5.18,1.63,10.41,3.01,15.72,4.15c-1.18-0.24-2.38-0.14-3.51,0.27c-1.13,0.41-2.11,1.11-2.91,2c-0.79,0.89-1.38,1.95-1.74,3.08
			c-0.18,0.57-0.3,1.15-0.37,1.74c-0.02,0.18-0.04,0.36-0.05,0.55C565.32,30.42,565.33,30.83,565.33,31.24z"/>
		<g>
			<path d="M21.12,60.82c0-7.54,0-15.07,0-22.61c0-1.88,0-3.77,0-5.65c0-1.04,0-2.09,0-3.13c0-0.12,0-0.23-0.01-0.35
				c-0.01-0.24-0.03-0.47-0.07-0.71c-0.07-0.48-0.18-0.95-0.33-1.41c-1.25-3.74-5.1-5.95-8.96-5.16c4.68-1.7,9.36-3.41,14.04-5.11
				c15.4,4.26,31.68,4.26,47.08,0c-11.94,9.17-27.18,12.89-41.99,10.27c-0.15,0.44-0.26,0.89-0.32,1.35
				c-0.03,0.23-0.06,0.45-0.07,0.68c-0.01,0.11-0.01,0.22-0.01,0.34c0,0.18,0,0.35,0,0.53c0,0.5,0,1.01,0,1.51c0,1.48,0,2.97,0,4.45
				c0,2.97,0,5.93,0,8.9c0,5.93,0,11.87,0,17.8c4.07,0.99,8.21,1.05,12.31,0.28c2.05-0.38,4.02-0.96,5.96-1.7
				c1.01-0.39,2.01-0.82,2.99-1.28c0.25-0.12,0.5-0.24,0.75-0.37c0.06-0.03,0.13-0.06,0.19-0.09c0.03-0.02,0.06-0.03,0.09-0.05
				c0,0,0.01,0,0.01-0.01c0,0,0,0,0,0.01c0,0.01-0.01,0.01-0.01,0.02c-0.01,0.01-0.01,0.02-0.02,0.04c-0.06,0.1-0.11,0.2-0.17,0.29
				c-0.23,0.39-0.48,0.78-0.74,1.16c-2.33,3.43-5.55,6.21-9.29,8.01c-3.74,1.8-7.92,2.58-12.07,2.12c0,6.62,0,13.24,0,19.86
				c0,0.74,0.01,1.49-0.01,2.23c-0.01,0.36-0.03,0.73-0.05,1.09c-0.05,0.73-0.12,1.46-0.21,2.18c-0.19,1.46-0.48,2.9-0.86,4.33
				c-0.44,1.61-0.99,3.17-1.66,4.7c-0.33,0.76-0.7,1.5-1.09,2.23c-0.19,0.36-0.39,0.72-0.6,1.07c-0.05,0.09-0.1,0.18-0.16,0.26
				c-0.01,0.02-0.03,0.04-0.04,0.07c0,0.01-0.01,0-0.01-0.01c0-0.01-0.01-0.01-0.01-0.02c-0.01-0.01-0.01-0.02-0.02-0.03
				c-0.03-0.04-0.05-0.09-0.08-0.13c-0.1-0.18-0.21-0.35-0.31-0.53c-1.63-2.89-2.82-6-3.52-9.24c-0.26-1.2-0.45-2.4-0.57-3.62
				c-0.06-0.6-0.11-1.21-0.13-1.82c-0.01-0.3-0.02-0.6-0.03-0.91c0-0.15,0-0.3,0-0.45c0-1.03,0-2.06,0-3.08c0-6.62,0-13.24,0-19.86
				c-3.96-1.35-8.04-1.72-12.18-1.14c-2.06,0.29-4.02,0.8-5.98,1.5c-1.01,0.36-2,0.77-2.97,1.23c-0.25,0.12-0.5,0.24-0.74,0.36
				c-0.12,0.06-0.25,0.12-0.37,0.19c-0.02,0.01-0.03,0.02-0.05,0.02c-0.01,0-0.02,0.02-0.02,0.01c0-0.01,0.01-0.01,0.01-0.02
				c0.01-0.02,0.03-0.05,0.04-0.07c0.03-0.05,0.06-0.1,0.08-0.15c0.23-0.39,0.47-0.78,0.73-1.15C4.4,63.05,12.73,59.3,21.12,60.82z"
				/>
			<path d="M80.87,71.08c-0.62,0.06-1.56,0.09-2.81,0.09c-5.56,0-8.79-1.39-9.7-4.17C67.45,64.22,67,62.17,67,60.86
				c9.09-2.34,18.18-4.69,27.28-7.03c-0.44-0.78-0.87-1.56-1.31-2.34c-3.56-3-8.31-4.5-14.25-4.5c-2.5,0-5.48,0.37-8.95,1.12
				c-3.47,0.76-6.4,2.71-8.81,5.86c-2.42,3.17-3.61,6.49-3.61,9.99c0,2.12,0.47,4.03,1.41,5.72c0.94,1.69,2.34,2.91,4.22,3.66
				c2,0.87,3.82,1.49,5.49,1.81c1.65,0.34,3.42,0.52,5.29,0.52c4.94,0,9.53-1.37,13.78-4.12c1.37-1.25,2.75-2.5,4.12-3.75
				c-2.75,1.19-5.31,2.06-7.69,2.62C82.53,70.8,81.5,71.01,80.87,71.08z M67.71,56.4c0.21-0.75,0.51-1.53,0.89-2.35
				c0.87-1.87,2-2.92,3.37-3.1c1.06-0.12,2.12-0.25,3.19-0.37c1.94,0,3.66,0.56,5.16,1.69c1.5,1.12,2.25,2.06,2.25,2.81
				c-0.12,0.31-0.28,0.5-0.47,0.56c-5.03,1.26-10.05,2.53-15.08,3.79C67.26,58.16,67.49,57.16,67.71,56.4z"/>
			<path d="M107.96,76.5c0-5.49,0-10.98,0-16.48c0-1.81-0.46-3.07-1.36-3.79c-0.91-0.72-1.99-1.08-3.23-1.08
				c-0.87,0-2.09,0.22-3.66,0.66c-1.06,0.41-2.12,0.81-3.19,1.22c4.06-2.75,8.12-5.5,12.18-8.25c1.44-0.94,2.66-1.41,3.66-1.41
				c1.37,0,2.22,0.62,2.53,1.87c0.5,1.31,0.75,2.53,0.75,3.66c2.94-1.69,5.23-2.82,6.89-3.42c1.66-0.59,3.23-0.9,4.73-0.9
				c1.06,0,2.58,0.5,4.54,1.5c1.97,1,3.29,1.5,3.99,1.5c0.75,0,1.84-0.31,3.28-0.94c1.31-0.69,2.81-1.62,4.5-2.81
				c-1.37,2.44-3.02,4.84-4.93,7.22s-4.64,3.56-8.21,3.56c-1.56,0-3.27-0.44-5.11-1.31c-1.84-0.87-3.3-1.81-4.35-2.81
				c-0.56-0.56-0.97-0.92-1.22-1.08c-0.25-0.16-0.5-0.3-0.75-0.42c-0.75,0-1.5,0.37-2.25,1.12s-1.12,1.41-1.12,1.97
				c0,4.99,0,9.98,0,14.98C113.08,72.88,110.52,74.69,107.96,76.5z"/>
			<path d="M147.97,74.63c0.69-1.75,1.16-3.31,1.41-4.69c0.12-1.37,0.25-2.75,0.37-4.12c0-2.56-0.56-4.97-1.69-7.21
				c-1.16-1.53-2.31-3.06-3.47-4.59c1.87-1.87,3.75-3.74,5.62-5.61c0.31-0.31,0.78-0.53,1.41-0.66c1.12,0,2.17,0.68,3.13,2.02
				c0.97,1.34,1.82,2.76,2.58,4.26c3.25-2.44,6.34-4.26,9.28-5.48c2.94-1.22,5.34-1.83,7.22-1.83c3,0,5.12,0.72,6.37,2.16
				c1.19,1.19,2.19,2.59,3,4.22c1.62-0.94,3.22-1.77,4.78-2.48c1.56-0.72,3.25-1.43,5.06-2.11c3.44-1.19,6.5-1.78,9.19-1.78
				c2.06,0,3.81,0.34,5.25,1.03c1.44,0.69,2.53,1.77,3.28,3.24c0.75,1.47,1.25,2.8,1.5,3.98c0.12,1.12,0.25,2.25,0.37,3.37
				c0,3.75-1.43,7.05-4.26,9.89c-2.84,2.84-6.36,4.73-10.55,5.67c1.12-1.06,2.28-2.56,3.47-4.5c1.19-1.94,1.78-3.78,1.78-5.53
				c-0.09-0.75-0.19-1.5-0.28-2.25c-0.06-0.62-0.56-1.81-1.5-3.56c-0.75-1.69-2-3.03-3.75-4.03c-1.62-1.06-3.41-1.59-5.34-1.59
				c-1.94,0-3.53,0.31-4.78,0.94c-1.25,0.5-2.41,1.16-3.47,1.97c0.31,1.09,0.62,2.19,0.94,3.28c0.12,1.03,0.25,2.06,0.37,3.09
				c0,1.31-0.04,2.25-0.14,2.81c-0.09,0.56-0.31,1.33-0.66,2.3c-0.34,0.97-0.68,1.65-0.99,2.02c-3.5,1.93-7,3.86-10.5,5.79
				c0.47-1.12,0.94-2.25,1.41-3.37c0.44-1.56,0.66-3.25,0.66-5.06c0-1.5-0.18-3.01-0.52-4.55c-0.34-1.53-0.99-3.07-1.92-4.64
				c-0.87-1.69-1.91-2.91-3.09-3.66c-1.19-0.75-2.44-1.12-3.75-1.12c-1.69,0-3.19,0.37-4.5,1.12c-1.12,0.78-2.25,1.56-3.37,2.34
				c0.44,0.87,0.84,1.93,1.22,3.15c0.37,1.22,0.56,2.43,0.56,3.6c0,0.69,0,1.37,0,2.06c-0.19,0.81-0.31,1.41-0.37,1.78
				c-0.28,0.91-0.56,1.81-0.84,2.72C154.97,70.88,151.47,72.75,147.97,74.63z"/>
			<path d="M239.45,71.09c-0.62,0.06-1.56,0.09-2.81,0.09c-5.57,0-8.8-1.39-9.71-4.17c-0.91-2.78-1.35-4.83-1.35-6.14
				c9.09-2.35,18.18-4.69,27.28-7.04c-0.44-0.78-0.87-1.56-1.31-2.34c-3.56-3-8.31-4.5-14.25-4.5c-2.5,0-5.49,0.37-8.96,1.12
				c-3.47,0.76-6.4,2.71-8.81,5.86c-2.41,3.17-3.6,6.49-3.6,9.99c0,2.12,0.47,4.03,1.41,5.72c0.94,1.69,2.34,2.91,4.22,3.66
				c2,0.87,3.83,1.49,5.49,1.82c1.65,0.34,3.42,0.52,5.29,0.52c4.94,0,9.53-1.37,13.78-4.12c1.37-1.25,2.75-2.5,4.12-3.75
				c-2.75,1.19-5.31,2.06-7.69,2.62C241.11,70.81,240.08,71.02,239.45,71.09z M226.29,56.4c0.21-0.75,0.51-1.53,0.89-2.35
				c0.87-1.87,2-2.92,3.37-3.1c1.06-0.12,2.12-0.25,3.19-0.37c1.94,0,3.66,0.56,5.16,1.69c1.5,1.12,2.25,2.06,2.25,2.81
				c-0.12,0.31-0.28,0.5-0.47,0.56c-5.03,1.26-10.05,2.53-15.08,3.79C225.84,58.16,226.08,57.16,226.29,56.4z"/>
			<path d="M258.48,74.63c0.69-1.75,1.16-3.31,1.41-4.69c0.12-1.37,0.25-2.75,0.37-4.12c0-3.44-0.81-6.28-2.44-8.52
				c-0.5-0.69-1.16-1.5-1.97-2.44c-0.19-0.19-0.44-0.47-0.75-0.84c2.25-1.87,4.5-3.74,6.75-5.61c0.25-0.19,0.62-0.34,1.12-0.47
				c1.06,0,2,0.58,2.81,1.74c0.81,1.16,1.28,1.84,1.41,2.06c0.12,0.22,0.44,0.86,0.94,1.93c2.87-2.19,6.1-3.97,9.71-5.34
				c3.59-1.37,6.76-2.06,9.51-2.06c1.19,0,2.26,0.09,3.24,0.28c0.97,0.19,1.88,0.53,2.76,1.03c1.62,0.69,2.91,2.06,3.84,4.12
				c0.94,2.06,1.41,4.31,1.41,6.75c0,3.94-1.33,7.34-3.99,10.22c-2.66,2.87-6.08,4.62-10.26,5.25c0.96-0.81,1.98-2.17,3.06-4.07
				c1.08-1.91,1.62-3.82,1.62-5.77c0-0.87,0-1.56,0-2.06c0-0.69-0.5-1.94-1.5-3.75c-0.81-1.81-2.12-3.22-3.94-4.22
				c-1.81-1-3.69-1.5-5.62-1.5c-2.06,0-3.77,0.28-5.11,0.84c-1.34,0.56-2.67,1.25-3.98,2.06c0.5,1,0.87,2.09,1.12,3.28
				c0.12,1.03,0.25,2.06,0.37,3.09c0,1.62-0.16,2.9-0.47,3.79c-0.31,0.91-0.66,1.68-1.03,2.3
				C265.42,70.15,261.95,72.39,258.48,74.63z"/>
			<path d="M310.03,71.09c-0.69-1-1.22-2.09-1.59-3.28c-0.19-0.87-0.31-1.45-0.37-1.73c-0.06-0.28-0.09-0.8-0.09-1.55
				c0-3.87,1.5-7.1,4.5-9.7c3-2.59,6.09-4.76,9.28-6.51c-1.12-0.25-2.25-0.5-3.37-0.75c-1.31-0.25-2.53-0.4-3.66-0.42
				c-1.12-0.03-2-0.04-2.62-0.04c-1.69,0.09-3.37,0.19-5.06,0.28c-1.06,0.12-1.82,0.25-2.3,0.37c-0.47,0.12-1.33,0.44-2.57,0.94
				c1.27-0.97,2.55-1.94,3.82-2.91c3.73-2.19,7.98-3.59,12.77-4.22c0.87-0.12,3.71,0.08,8.49,0.6c4.78,0.53,8.41,0.8,10.91,0.8
				c0.66,0,1.31,0,1.97,0c0.62,0,1.25,0,1.87,0c0.5-0.12,0.84-0.19,1.03-0.19c1,0,2.5-0.28,4.5-0.84c-2.06,1.5-4.56,3.02-7.5,4.55
				c-2.94,1.53-6.4,2.3-10.4,2.3c-1.16-0.09-2.31-0.19-3.47-0.28c-1.31-0.19-3.11,0.92-5.38,3.33c-2.28,2.41-3.43,5.2-3.43,8.38
				c0,1.75,0.4,3.45,1.18,5.1c0.78,1.66,1.95,2.86,3.48,3.6c1.54,0.75,3.34,1.12,5.42,1.12c2.13,0,4.89-0.47,8.28-1.41
				c3.38-0.94,5.21-1.56,5.46-1.87c-2.12,2.31-5.27,4.3-9.43,5.95c-4.16,1.66-8.14,2.49-11.95,2.49c-2.25,0-4.19-0.34-5.81-1.03
				C312.28,73.62,310.97,72.59,310.03,71.09z"/>
			<path d="M350.05,67.09c0-3.3,0-6.6,0-9.9c0-1.06-0.27-2.04-0.8-2.94c-0.53-0.91-1.33-1.35-2.38-1.35
				c-0.31,0.06-0.62,0.12-0.94,0.19c1.06-0.87,2.12-1.74,3.19-2.61c2.62-1.86,4.72-2.8,6.28-2.8c1.56,0,2.34,1,2.34,3
				c0,3.62,0,7.25,0,10.87c0,1.81,0.56,3.44,1.69,4.87c1.12,1.25,2.69,1.87,4.69,1.87c2.62,0,4.76-0.3,6.43-0.9
				c1.66-0.59,2.72-0.99,3.19-1.18c0.47-0.19,1.26-0.56,2.38-1.12c0-3.75,0-7.5,0-11.25c0-1.12-0.04-1.81-0.14-2.06
				c-0.09-0.25-0.65-0.41-1.65-0.47c-0.53,0.06-1.06,0.12-1.59,0.19c1.37-0.91,2.75-1.81,4.12-2.72c1.5-0.94,2.94-1.41,4.31-1.41
				c1.75,0,2.62,1.09,2.62,3.28c0,3.75,0,7.5,0,11.25c0,2.19,0.47,3.84,1.41,4.97c0.94,0.94,2.22,1.41,3.84,1.41
				c1.25,0,2.19-0.11,2.81-0.33c0.62-0.22,1.1-0.39,1.46-0.51c0.34-0.12,0.79-0.34,1.35-0.66c-2.87,2.31-5.46,4-7.73,5.06
				c-2.28,1.06-4.11,1.59-5.49,1.59c-1.44,0-2.72-0.6-3.84-1.8c-1-1.33-1.5-2.95-1.5-4.85c-2.5,0.91-5,1.81-7.5,2.72
				c-5.81,2.44-9.62,3.75-11.43,3.94c-1.94,0-3.6-0.6-5.02-1.82C350.76,70.4,350.05,68.89,350.05,67.09z"/>
			<path d="M397.95,74.63c0.69-1.75,1.16-3.31,1.41-4.69c0.12-1.37,0.25-2.75,0.37-4.12c0-2.56-0.56-4.97-1.69-7.21
				c-1.16-1.53-2.31-3.06-3.47-4.59c1.87-1.87,3.75-3.74,5.62-5.61c0.31-0.31,0.78-0.53,1.41-0.66c1.12,0,2.17,0.68,3.13,2.02
				c0.97,1.34,1.82,2.76,2.58,4.26c3.25-2.44,6.34-4.26,9.28-5.48c2.94-1.22,5.34-1.83,7.22-1.83c3,0,5.12,0.72,6.37,2.16
				c1.19,1.19,2.19,2.59,3,4.22c1.62-0.94,3.22-1.77,4.78-2.48c1.56-0.72,3.25-1.43,5.06-2.11c3.44-1.19,6.5-1.78,9.19-1.78
				c2.06,0,3.81,0.34,5.25,1.03s2.53,1.77,3.28,3.24c0.75,1.47,1.25,2.8,1.5,3.98c0.12,1.12,0.25,2.25,0.37,3.37
				c0,3.75-1.43,7.05-4.26,9.89c-2.84,2.84-6.36,4.73-10.55,5.67c1.12-1.06,2.28-2.56,3.47-4.5c1.19-1.94,1.78-3.78,1.78-5.53
				c-0.09-0.75-0.19-1.5-0.28-2.25c-0.06-0.62-0.56-1.81-1.5-3.56c-0.75-1.69-2-3.03-3.75-4.03c-1.62-1.06-3.41-1.59-5.34-1.59
				s-3.53,0.31-4.78,0.94c-1.25,0.5-2.41,1.16-3.47,1.97c0.31,1.09,0.62,2.19,0.94,3.28c0.12,1.03,0.25,2.06,0.37,3.09
				c0,1.31-0.04,2.25-0.14,2.81c-0.09,0.56-0.31,1.33-0.66,2.3c-0.34,0.97-0.68,1.65-0.99,2.02c-3.5,1.93-7,3.86-10.5,5.79
				c0.47-1.12,0.94-2.25,1.41-3.37c0.44-1.56,0.66-3.25,0.66-5.06c0-1.5-0.18-3.01-0.52-4.55c-0.34-1.53-0.99-3.07-1.92-4.64
				c-0.87-1.69-1.91-2.91-3.09-3.66c-1.19-0.75-2.44-1.12-3.75-1.12c-1.69,0-3.19,0.37-4.5,1.12c-1.12,0.78-2.25,1.56-3.37,2.34
				c0.44,0.87,0.84,1.93,1.22,3.15c0.37,1.22,0.56,2.43,0.56,3.6c0,0.69,0,1.37,0,2.06c-0.19,0.81-0.31,1.41-0.37,1.78
				c-0.28,0.91-0.56,1.81-0.84,2.72C404.95,70.88,401.45,72.75,397.95,74.63z"/>
		</g>
	</g>
</g>
</svg>
