<?xml version="1.0" encoding="utf-8"?>
<!-- Generator: Adobe Illustrator 25.4.1, SVG Export Plug-In . SVG Version: 6.00 Build 0)  -->
<svg version="1.1" id="Capa_1" xmlns="http://www.w3.org/2000/svg" xmlns:xlink="http://www.w3.org/1999/xlink" x="0px" y="0px"
	 viewBox="0 0 78.5 33.5" style="enable-background:new 0 0 78.5 33.5;" xml:space="preserve">
<style type="text/css">
	.st0{fill:#F5F5F5;}
	.st1{fill:none;}
</style>
<g>
	<path id="XMLID_3_" class="st0" d="M29,8.8c1-0.1,2-0.4,3.1-0.7c-1,0.7-2,1.4-3.1,1.9v6.6v3.3v0.4v0.1l0,0c0,0,0,0,0,0.1v0.1
		c0,0.1,0,0.1,0,0.1c0,0.1,0,0.2,0,0.4c0,0.2-0.1,0.4-0.1,0.7c-0.1,0.5-0.1,1-0.3,1.5c-0.5,2.1-1.5,4.2-2.9,5.9
		c-1.3,1.8-3,3.3-5,4.3c2.5-3,4.2-6.7,4.8-10.5c0.1-1,0.3-1.9,0.3-2.9c0-0.2,0-0.4,0-0.6c0-0.1,0-0.2,0-0.3c0-0.2,0-0.4,0-0.7v-1.4
		v-5.9c-2.7,0.7-5.5,0.9-8.3,0.4v5.3c1.4,0.4,2.8,0.4,4.2,0.1c0.7-0.1,1.4-0.3,2-0.6c0.4-0.1,0.7-0.3,1-0.4c0.1-0.1,0.1-0.1,0.2-0.1
		H25l0,0l0,0l0,0l0,0l0,0l0,0c-0.1,0.1-0.1,0.3-0.2,0.4c-0.8,1.2-1.9,2.1-3.1,2.7c-1.2,0.6-2.7,0.9-4.1,0.7v5.2c0,2-0.5,3.9-1.5,5.6
		c-1-1.7-1.5-3.6-1.5-5.6v-5.6c-1.3-0.4-2.7-0.6-4.1-0.4c-0.7,0.1-1.4,0.3-2,0.5c-0.4,0.1-0.7,0.3-1,0.4c-0.1,0.1-0.1,0.1-0.2,0.1
		S7.2,20,7.2,20l0,0l0,0l0,0l0,0l0,0l0,0l0,0c0,0,0,0,0-0.1c0.1-0.1,0.1-0.3,0.2-0.4c0.8-1.2,1.9-2.1,3.1-2.6
		c1.3-0.6,2.7-0.7,4.1-0.5v-5.5c-2.7-0.6-5.5-0.8-8.3-0.7v6.1c0,1,0,1.8,0,2.8c0,0.1,0,0.2,0,0.3c0,1,0.1,2,0.2,3.1
		c0.6,4,2.3,7.9,4.9,11.1c-1.9-1-3.6-2.6-4.9-4.2c-1.3-1.7-2.3-3.7-2.9-5.8c-0.1-0.5-0.2-1-0.4-1.6C3,21.7,3,21.4,3,21.2
		c0-0.1,0-0.2,0-0.4c0-0.1,0-0.1,0-0.2v-0.1c0,0,0,0,0-0.1s0-0.1,0-0.1v-3.2v-6.5c-0.6,0.1-1.1,0.2-1.7,0.3C1,11,0.7,11,0.5,11.1
		c-0.1,0-0.3,0.1-0.4,0.1H0c0,0,0,0-0.1,0l0,0l0,0l0,0l0,0l0,0C0,11.1,0,11.1,0,11.1c0.9-0.7,2-1.3,3-1.8V8.6c0-0.1,0-0.1,0-0.2
		c0-0.1,0-0.1,0-0.1C3,8.2,3,8.1,2.9,8c0.1-0.4,0-0.9-0.3-1.2C2.3,6.4,2,6.1,1.5,5.9C1.1,5.8,0.6,5.7,0.2,5.8C1.9,5.4,3.6,5,5.3,4.5
		c0.1,0,0.4-0.1,0.5-0.1s0.1-0.1,0.3-0.1c0.1,0,0.1,0,0.1-0.1h0.1l0,0l0,0l0,0l0,0l0,0l0,0l0,0v0.1v0.1v1.3v2.6
		c2.7-0.7,5.5-0.9,8.3-0.4V4.8c0-0.8-0.4-1.5-1-2S12.2,2,11.5,2.2c1.6-0.7,3.1-1.4,4.6-2.2c1.5,0.8,3.1,1.5,4.6,2.2
		c-0.7-0.1-1.5,0.1-2.1,0.5c-0.6,0.5-1,1.2-1,2v3.9c2.7,0.6,5.5,0.8,8.3,0.7V6.4V4.8V4.4V4.1V4l0,0l0,0l0,0l0,0l0,0l0,0H26
		c0.1,0,0.1,0,0.1,0.1c0.1,0,0.2,0.1,0.3,0.1c1.8,0.6,3.7,1,5.6,1.5c-0.4-0.1-0.8-0.1-1.2,0.1c-0.4,0.1-0.7,0.4-1,0.7
		s-0.5,0.7-0.6,1.1C29,7.7,29,8,29,8.1s0,0.1,0,0.2C29,8.5,29,8.7,29,8.8"/>
	<g>
		<path class="st0" d="M38.4,9.4v1.2h-1.7v3.3h-1.3V5.7h3.4v1.2h-2.2v2.5H38.4z"/>
		<path class="st0" d="M42.5,9.2v1.2h-1.7v2.4H43v1.1h-3.6V5.7H43v1.2h-2.2v2.3H42.5z"/>
		<path class="st0" d="M46.4,13v-1.3c0-0.7-0.2-1.1-0.8-1.1h-0.4v3.3h-1.3V5.8h2c1.3,0,1.9,0.7,1.9,1.9v0.7c0,0.8-0.2,1.4-0.8,1.7
			c0.7,0.2,0.8,0.9,0.8,1.7V13c0,0.4,0,0.7,0.2,1h-1.3C46.4,13.8,46.4,13.6,46.4,13z M45.1,9.5h0.5c0.5,0,0.7-0.2,0.7-0.9V7.8
			c0-0.6-0.2-0.8-0.7-0.8h-0.7L45.1,9.5L45.1,9.5z"/>
		<path class="st0" d="M52.1,5.8h1.8v8.1h-1.2V8l-0.9,5.9h-1.2l-1-5.8v5.8h-1.2V5.7h1.8l1,5.9L52.1,5.8z"/>
		<path class="st0" d="M58,9.2v1.2h-1.8v2.4h2.2v1.1h-3.6V5.7h3.6v1.2h-2.2v2.3H58z"/>
		<path class="st0" d="M60.4,14h-1.2V5.7h1.7l1.3,4.9V5.7h1.2v8.2H62l-1.6-6V14z"/>
		<path class="st0" d="M67.8,5.8v1.1h-1.3v7h-1.3v-7h-1.3V5.7L67.8,5.8L67.8,5.8z"/>
		<path class="st0" d="M69.7,12.1c0,0.6,0.2,0.8,0.7,0.8c0.4,0,0.7-0.2,0.7-0.8V5.7h1.1V12c0,1.3-0.7,2.1-1.9,2.1
			c-1.2,0-1.9-0.7-1.9-2.1V5.7h1.3V12.1L69.7,12.1z"/>
		<path class="st0" d="M76.7,5.8h1.8v8.1h-1.2V8l-0.9,5.9h-1.2l-1-5.8v5.8H73V5.7h1.8l1,5.9L76.7,5.8z"/>
		<path class="st0" d="M38.4,19.2v1.2h-1.7v3.4h-1.3v-8.2h3.4v1.2h-2.2v2.5h1.8V19.2z"/>
		<path class="st0" d="M42.2,23.8L42,22.3h-1.6l-0.2,1.5H39l1.3-8.2h1.9l1.3,8.2C43.5,23.8,42.2,23.8,42.2,23.8z M41.8,21.1L41.1,17
			l-0.7,4.1H41.8z"/>
		<path class="st0" d="M48,17.4v0.3c0,0.8-0.2,1.4-0.8,1.7c0.7,0.2,1,0.9,1,1.7v0.7c0,1.2-0.7,2-2,2h-2.1v-8.2h2
			C47.4,15.6,48,16.2,48,17.4z M45.4,18.9h0.5c0.5,0,0.7-0.2,0.7-0.9v-0.5c0-0.6-0.2-0.8-0.7-0.8h-0.6L45.4,18.9L45.4,18.9z
			 M45.4,22.6h0.7c0.4,0,0.7-0.2,0.7-0.8v-0.7c0-0.7-0.2-1-0.8-1h-0.6C45.4,20.1,45.4,22.6,45.4,22.6z"/>
		<path class="st0" d="M51.9,19v1.2h-1.7v2.4h2.2v1.2h-3.6v-8.2h3.6v1.2h-2.2v2.3C50.2,19,51.9,19,51.9,19z"/>
		<path class="st0" d="M55.7,22.8v-1.3c0-0.7-0.2-1.1-0.8-1.1h-0.4v3.3h-1.3v-8.2h2c1.3,0,1.9,0.7,1.9,1.9v0.7
			c0,0.8-0.2,1.4-0.8,1.7c0.7,0.2,0.8,0.9,0.8,1.7v1.2c0,0.4,0,0.7,0.2,1H56C55.8,23.5,55.7,23.5,55.7,22.8z M54.5,19.2H55
			c0.5,0,0.7-0.2,0.7-0.9v-0.8c0-0.6-0.2-0.8-0.7-0.8h-0.6L54.5,19.2L54.5,19.2z"/>
		<path class="st0" d="M39,27.4v0.7h-0.9v-0.8c0-0.7-0.3-1.2-1-1.2s-1,0.4-1,1.2v4.4c0,0.7,0.3,1.2,1,1.2s1-0.4,1-1.2v-1.1H39v1
			c0,1.2-0.6,2.1-1.8,2.1s-1.8-0.8-1.8-2.1v-4.2c0-1.2,0.6-2.1,1.8-2.1S39,26.1,39,27.4z"/>
		<path class="st0" d="M42.8,29v0.8h-2v2.9h2.5v0.8h-3.4v-8.2h3.4v0.8h-2.5v2.8h2V29z"/>
		<path class="st0" d="M46,25.4c1.3,0,1.8,0.7,1.8,1.9v0.6c0,0.9-0.3,1.5-1,1.7c0.7,0.2,1,0.8,1,1.7v1.2c0,0.3,0,0.7,0.2,1h-0.9
			c-0.1-0.2-0.2-0.4-0.2-1v-1.3c0-0.9-0.4-1.2-1.2-1.2H45v3.5h-0.8v-8.2L46,25.4L46,25.4z M45.7,29.3c0.7,0,1.2-0.2,1.2-1.2v-0.8
			c0-0.7-0.2-1.2-0.9-1.2h-0.9v3.1L45.7,29.3C45.7,29.2,45.7,29.3,45.7,29.3z"/>
		<path class="st0" d="M49.5,25.4l1.3,7.1l1.3-7.1h0.8l-1.6,8.2H50l-1.6-8.2C48.5,25.4,49.5,25.4,49.5,25.4z"/>
		<path class="st0" d="M56.6,29v0.8h-2v2.9h2.5v0.8h-3.4v-8.2H57v0.8h-2.5v2.8h2.1V29z"/>
		<path class="st0" d="M61.5,33.6h-3.7v-0.8l2.8-6.5h-2.7v-0.8h3.6v0.8l-2.8,6.5h2.8C61.5,32.8,61.5,33.6,61.5,33.6z"/>
		<path class="st0" d="M63.3,31.9L63,33.6h-0.8l1.6-8.2h1.3l1.6,8.2h-0.9l-0.4-1.7H63.3z M63.4,31.2h1.8l-0.9-4.7L63.4,31.2z"/>
	</g>
</g>
<rect x="124.6" y="-75.1" class="st1" width="50.7" height="45.1"/>
<text transform="matrix(1 0 0 1 124.6254 -66.747)" style="font-family:'BebasNeue-Bold'; font-size:12px;">fermentum </text>
<text transform="matrix(1 0 0 1 124.6254 -56.747)" style="font-family:'BebasNeue-Bold'; font-size:12px;">faber </text>
<text transform="matrix(1 0 0 1 124.6254 -46.747)" style="font-family:'BebasNeueRegular'; font-size:12px;">cerveza</text>
</svg>
