<svg xmlns="http://www.w3.org/2000/svg" viewBox="0 0 575.29 106.06"><defs><style>.cls-1{fill:#fff;}</style></defs><g id="Default"><path class="cls-1" d="M179.81,467.46a4,4,0,0,1-1.59-2.2l-.53-1.38h-5.95l-1.69,4h-1l5.94-14h.64l4.67,11.36a5.65,5.65,0,0,0,1,1.69,2.09,2.09,0,0,0,1.34.54v.43a3.25,3.25,0,0,1-.85.1A4,4,0,0,1,179.81,467.46ZM172.06,463h5.2l-2.54-6.15Z" transform="translate(-9.98 -362.53)"/><path class="cls-1" d="M188.85,467.6a6.17,6.17,0,0,1-1.31-1.69l-1.48-2.52h-1v4.53h-1.34v-8a2.32,2.32,0,0,0-.21-1.12.87.87,0,0,0-.83-.36h-.3v-.3h3.87a5.69,5.69,0,0,1,2.56.56,2.11,2.11,0,0,1,1.15,2.11c0,1.32-.79,2.16-2.38,2.53l1.57,2.6a5.11,5.11,0,0,0,1,1.29,1.92,1.92,0,0,0,1,.42v.3a1.68,1.68,0,0,1-.38.1,2.76,2.76,0,0,1-.51.05A2.15,2.15,0,0,1,188.85,467.6Zm-1.71-5a2.24,2.24,0,0,0,.92-.7,1.8,1.8,0,0,0,.38-1.16,1.92,1.92,0,0,0-.38-1.21,2.27,2.27,0,0,0-.92-.71,2.52,2.52,0,0,0-1-.23,4.54,4.54,0,0,0-1.11.15v3.93a4.1,4.1,0,0,0,1.11.15A2.68,2.68,0,0,0,187.14,462.64Z" transform="translate(-9.98 -362.53)"/><path class="cls-1" d="M194.75,458.7h-1.33q-1.86,0-1.86,1.71h-.3V459.3c0-.8.42-1.19,1.26-1.19h6.92v.59h-3.35v9.22h-1.34Z" transform="translate(-9.98 -362.53)"/><path class="cls-1" d="M201.19,459.89a2.32,2.32,0,0,0-.21-1.12.87.87,0,0,0-.83-.36h-.3v-.3h6.33c.85,0,1.27.39,1.27,1.19v1.11h-.3q0-1.71-1.86-1.71h-2.76v3.87h4v.59h-4v4.16h2.6a2.92,2.92,0,0,0,1.6-.37,2.45,2.45,0,0,0,.92-1.26l.3.07-.52,1.41a1.07,1.07,0,0,1-1.11.75h-5.13Z" transform="translate(-9.98 -362.53)"/><path class="cls-1" d="M211,468a3.47,3.47,0,0,1-1.29-.64,1.23,1.23,0,0,1-.49-.95v-1.59h.26a3.66,3.66,0,0,0,1,2.14,2.86,2.86,0,0,0,2,.67,2.34,2.34,0,0,0,1.38-.41,1.27,1.27,0,0,0,.57-1.11A1.59,1.59,0,0,0,214,465a4.79,4.79,0,0,0-1.25-1l-1.82-1.09a4,4,0,0,1-1.35-1.14,2.48,2.48,0,0,1-.39-1.41,2.31,2.31,0,0,1,.79-1.84,3.08,3.08,0,0,1,2.09-.69,5.19,5.19,0,0,1,1.5.22,3.31,3.31,0,0,1,1.23.62,1.21,1.21,0,0,1,.48.94v1.6H215a3.66,3.66,0,0,0-1-2.14,2.83,2.83,0,0,0-2-.65,1.83,1.83,0,0,0-1.2.42,1.32,1.32,0,0,0-.52,1.09,1.43,1.43,0,0,0,.37,1,6.22,6.22,0,0,0,1.27.93l1.83,1.09a5.44,5.44,0,0,1,1.43,1.13,2,2,0,0,1,.42,1.32,2.55,2.55,0,0,1-.84,2,3.23,3.23,0,0,1-2.26.75A5.77,5.77,0,0,1,211,468Z" transform="translate(-9.98 -362.53)"/><path class="cls-1" d="M224.14,467.6a2.75,2.75,0,0,1-1.12-1.54l-.37-1h-4.16l-1.19,2.83h-.67l4.16-9.81h.45l3.27,7.95a3.88,3.88,0,0,0,.7,1.18,1.53,1.53,0,0,0,.94.38v.3a2.25,2.25,0,0,1-.6.07A2.83,2.83,0,0,1,224.14,467.6Zm-5.43-3.1h3.64l-1.78-4.31Z" transform="translate(-9.98 -362.53)"/><path class="cls-1" d="M228,460.11v7.81h-.59v-8a1.71,1.71,0,0,0-.31-1.1,1.25,1.25,0,0,0-1-.38h-.15v-.3h1a2.73,2.73,0,0,1,1.16.22,2.42,2.42,0,0,1,.84.67l5.21,6.47v-7.36h.59v10h-.3Z" transform="translate(-9.98 -362.53)"/><path class="cls-1" d="M238.79,467.53a4.48,4.48,0,0,1-1.62-1.87,6.53,6.53,0,0,1,0-5.29,4.48,4.48,0,0,1,1.62-1.87,4.28,4.28,0,0,1,2.43-.69,4.32,4.32,0,0,1,2.43.69,4.53,4.53,0,0,1,1.61,1.87,6.53,6.53,0,0,1,0,5.29,4.53,4.53,0,0,1-1.61,1.87,4.32,4.32,0,0,1-2.43.69A4.28,4.28,0,0,1,238.79,467.53Zm4.1-.47a3.55,3.55,0,0,0,1.08-1.6,8.26,8.26,0,0,0,0-4.89,3.55,3.55,0,0,0-1.08-1.6,2.79,2.79,0,0,0-3.35,0,3.46,3.46,0,0,0-1.07,1.6,8.06,8.06,0,0,0,0,4.89,3.46,3.46,0,0,0,1.07,1.6,2.79,2.79,0,0,0,3.35,0Z" transform="translate(-9.98 -362.53)"/><path class="cls-1" d="M249.09,468a3.42,3.42,0,0,1-1.28-.64,1.24,1.24,0,0,1-.5-.95v-1.59h.27a3.6,3.6,0,0,0,1,2.14,2.81,2.81,0,0,0,2,.67,2.32,2.32,0,0,0,1.38-.41,1.27,1.27,0,0,0,.57-1.11,1.64,1.64,0,0,0-.38-1.08,5,5,0,0,0-1.25-1l-1.83-1.09a4.2,4.2,0,0,1-1.35-1.14,2.48,2.48,0,0,1-.39-1.41,2.34,2.34,0,0,1,.79-1.84,3.1,3.1,0,0,1,2.09-.69,5.09,5.09,0,0,1,1.5.22,3.24,3.24,0,0,1,1.23.62,1.21,1.21,0,0,1,.48.94v1.6h-.26a3.66,3.66,0,0,0-1-2.14,2.84,2.84,0,0,0-2-.65,1.87,1.87,0,0,0-1.2.42,1.32,1.32,0,0,0-.52,1.09,1.44,1.44,0,0,0,.38,1,5.69,5.69,0,0,0,1.27.93L252,463a5.36,5.36,0,0,1,1.42,1.13,2,2,0,0,1,.42,1.32,2.58,2.58,0,0,1-.83,2,3.26,3.26,0,0,1-2.26.75A5.84,5.84,0,0,1,249.09,468Z" transform="translate(-9.98 -362.53)"/><path class="cls-1" d="M262,456.45a3.31,3.31,0,0,0-.3-1.6,1.24,1.24,0,0,0-1.19-.52h-.42v-.43h5.56c2.75,0,4.82.61,6.23,1.83a6.38,6.38,0,0,1,2.11,5.1,7.42,7.42,0,0,1-.89,3.7,6.09,6.09,0,0,1-2.64,2.5,9.38,9.38,0,0,1-4.26.89H262Zm7,9.95a5.35,5.35,0,0,0,2-2.19,7.16,7.16,0,0,0,.72-3.3,7.28,7.28,0,0,0-.71-3.27,5.27,5.27,0,0,0-4.87-3A7.16,7.16,0,0,0,264,455V466.9a10,10,0,0,0,2.17.27A5.25,5.25,0,0,0,269,466.4Z" transform="translate(-9.98 -362.53)"/><path class="cls-1" d="M276.5,459.89a2.32,2.32,0,0,0-.21-1.12.89.89,0,0,0-.84-.36h-.29v-.3h6.33c.84,0,1.26.39,1.26,1.19v1.11h-.29q0-1.71-1.86-1.71h-2.77v3.87h4v.59h-4v4.16h2.6A3,3,0,0,0,282,467a2.5,2.5,0,0,0,.92-1.26l.3.07-.52,1.41a1.08,1.08,0,0,1-1.12.75H276.5Z" transform="translate(-9.98 -362.53)"/><path class="cls-1" d="M291.25,456.45a3.31,3.31,0,0,0-.3-1.6,1.24,1.24,0,0,0-1.19-.52h-.42v-.43h1.91a2.59,2.59,0,0,1,1.18.21,1.16,1.16,0,0,1,.56.73,5.76,5.76,0,0,1,.17,1.61v10.62h7.54v.85h-9.45Z" transform="translate(-9.98 -362.53)"/><path class="cls-1" d="M308.68,467.6a2.75,2.75,0,0,1-1.12-1.54l-.37-1H303l-1.19,2.83h-.67l4.16-9.81h.45l3.27,7.95a3.88,3.88,0,0,0,.7,1.18,1.53,1.53,0,0,0,.93.38v.3a2.12,2.12,0,0,1-.59.07A2.83,2.83,0,0,1,308.68,467.6Zm-5.43-3.1h3.64l-1.78-4.31Z" transform="translate(-9.98 -362.53)"/><path class="cls-1" d="M317.84,456.45a3.31,3.31,0,0,0-.3-1.6,1.22,1.22,0,0,0-1.18-.52h-.43v-.43h8.47c1.21,0,1.81.57,1.81,1.7v1.6h-.43c0-1.63-.88-2.45-2.65-2.45h-3.38v5.63h4.8v.85h-4.8v6.69h-1.91Z" transform="translate(-9.98 -362.53)"/><path class="cls-1" d="M328.36,459.89a2.32,2.32,0,0,0-.21-1.12.88.88,0,0,0-.83-.36H327v-.3h6.33c.84,0,1.26.39,1.26,1.19v1.11h-.29q0-1.71-1.86-1.71h-2.77v3.87h4v.59h-4v4.16h2.61a2.92,2.92,0,0,0,1.6-.37,2.5,2.5,0,0,0,.92-1.26l.3.07-.52,1.41a1.08,1.08,0,0,1-1.12.75h-5.12Z" transform="translate(-9.98 -362.53)"/><path class="cls-1" d="M342.29,467.6a6.37,6.37,0,0,1-1.3-1.69l-1.49-2.52h-1v4.53h-1.33v-8a2.32,2.32,0,0,0-.21-1.12.88.88,0,0,0-.83-.36h-.3v-.3h3.86a5.73,5.73,0,0,1,2.57.56,2.13,2.13,0,0,1,1.15,2.11c0,1.32-.79,2.16-2.38,2.53l1.56,2.6a5.34,5.34,0,0,0,1,1.29,1.86,1.86,0,0,0,1,.42v.3a1.85,1.85,0,0,1-.38.1,2.76,2.76,0,0,1-.51.05A2.16,2.16,0,0,1,342.29,467.6Zm-1.71-5a2.24,2.24,0,0,0,.92-.7,1.74,1.74,0,0,0,.38-1.16,1.86,1.86,0,0,0-.38-1.21,2.27,2.27,0,0,0-.92-.71,2.44,2.44,0,0,0-1-.23,4.61,4.61,0,0,0-1.12.15v3.93a4.17,4.17,0,0,0,1.12.15A2.59,2.59,0,0,0,340.58,462.64Z" transform="translate(-9.98 -362.53)"/><path class="cls-1" d="M355.23,468.26a1.79,1.79,0,0,1-.84-1,5.8,5.8,0,0,1-.24-1.85v-5.72l-3.72,8.25h-.3l-3.86-8.4v8.4h-.6v-9.81h1.42l3.56,7.73,3.5-7.73h1.33v7.28a5.28,5.28,0,0,0,.35,2.14,1.13,1.13,0,0,0,1.06.76v.3A3.46,3.46,0,0,1,355.23,468.26Z" transform="translate(-9.98 -362.53)"/><path class="cls-1" d="M358.59,459.89a2.32,2.32,0,0,0-.21-1.12.88.88,0,0,0-.83-.36h-.3v-.3h6.33c.84,0,1.27.39,1.27,1.19v1.11h-.3q0-1.71-1.86-1.71h-2.76v3.87h4v.59h-4v4.16h2.6a2.92,2.92,0,0,0,1.6-.37,2.5,2.5,0,0,0,.92-1.26l.3.07-.52,1.41a1.07,1.07,0,0,1-1.11.75h-5.13Z" transform="translate(-9.98 -362.53)"/><path class="cls-1" d="M368,460.11v7.81h-.59v-8a1.78,1.78,0,0,0-.31-1.1,1.26,1.26,0,0,0-1-.38h-.15v-.3h1a2.73,2.73,0,0,1,1.16.22,2.42,2.42,0,0,1,.84.67l5.21,6.47v-7.36h.59v10h-.3Z" transform="translate(-9.98 -362.53)"/><path class="cls-1" d="M379.77,458.7h-1.34q-1.86,0-1.86,1.71h-.29V459.3c0-.8.42-1.19,1.26-1.19h6.91v.59h-3.34v9.22h-1.34Z" transform="translate(-9.98 -362.53)"/><path class="cls-1" d="M391.38,467.6a2.75,2.75,0,0,1-1.12-1.54l-.37-1h-4.16l-1.19,2.83h-.67l4.16-9.81h.45l3.27,7.95a3.88,3.88,0,0,0,.7,1.18,1.53,1.53,0,0,0,.93.38v.3a2.12,2.12,0,0,1-.59.07A2.83,2.83,0,0,1,391.38,467.6ZM386,464.5h3.64l-1.78-4.31Z" transform="translate(-9.98 -362.53)"/><path class="cls-1" d="M395.61,467.55a4.53,4.53,0,0,1-1.62-1.82,5.87,5.87,0,0,1-.56-2.57,5.94,5.94,0,0,1,.61-2.69,5.17,5.17,0,0,1,1.68-2,4.12,4.12,0,0,1,2.32-.71,6,6,0,0,1,2.08.33,3.07,3.07,0,0,1,1.33.86,1.56,1.56,0,0,1,.32.82,12.9,12.9,0,0,1,.06,1.41h-.3a3.82,3.82,0,0,0-1-2.13,2.89,2.89,0,0,0-2-.69,3.25,3.25,0,0,0-2.59,1.13,5.48,5.48,0,0,0-1,3.62,6.26,6.26,0,0,0,.37,2.19,3.73,3.73,0,0,0,1.19,1.64,3.13,3.13,0,0,0,2,.63,3.4,3.4,0,0,0,1.9-.52,4.89,4.89,0,0,0,1.45-1.56l.29.22a4.34,4.34,0,0,1-1.68,1.9,4.89,4.89,0,0,1-2.4.56A4.43,4.43,0,0,1,395.61,467.55Z" transform="translate(-9.98 -362.53)"/><path class="cls-1" d="M404.49,467.78a.86.86,0,0,1-.39-.52,3.89,3.89,0,0,1-.12-1.13v-8h1.34v8a2.36,2.36,0,0,0,.21,1.13.86.86,0,0,0,.83.36h.3v.3h-1.34A2,2,0,0,1,404.49,467.78Z" transform="translate(-9.98 -362.53)"/><path class="cls-1" d="M409.65,467.53a4.39,4.39,0,0,1-1.61-1.87,6.42,6.42,0,0,1,0-5.29,4.39,4.39,0,0,1,1.61-1.87,4.62,4.62,0,0,1,4.86,0,4.39,4.39,0,0,1,1.61,1.87,6.42,6.42,0,0,1,0,5.29,4.39,4.39,0,0,1-1.61,1.87,4.62,4.62,0,0,1-4.86,0Zm4.1-.47a3.55,3.55,0,0,0,1.08-1.6,8.26,8.26,0,0,0,0-4.89,3.55,3.55,0,0,0-1.08-1.6,2.77,2.77,0,0,0-3.34,0,3.55,3.55,0,0,0-1.08,1.6,8.26,8.26,0,0,0,0,4.89,3.55,3.55,0,0,0,1.08,1.6,2.77,2.77,0,0,0,3.34,0Zm-2-9.84.59-1.94h1.42l-1.42,1.94Z" transform="translate(-9.98 -362.53)"/><path class="cls-1" d="M419.5,460.11v7.81h-.6v-8a1.78,1.78,0,0,0-.3-1.1,1.27,1.27,0,0,0-1-.38h-.15v-.3h1a2.7,2.7,0,0,1,1.16.22,2.45,2.45,0,0,1,.85.67l5.2,6.47v-7.36h.6v10h-.3Z" transform="translate(-9.98 -362.53)"/><path class="cls-1" d="M576.49,387.87a84.86,84.86,0,0,0,8.78-1.94,52.22,52.22,0,0,1-8.78,5.44v29.57a1.93,1.93,0,0,0,0,.24l0,.48c0,.33,0,.65-.07,1,0,.67-.13,1.34-.22,2a38.74,38.74,0,0,1-.83,4.16,46.79,46.79,0,0,1-8.21,16.75,45.36,45.36,0,0,1-14,12.26,64,64,0,0,0,14.57-38.15c0-.54,0-1.07.05-1.61,0-.26,0-.53,0-.79V394.71a51.6,51.6,0,0,1-23.41,1V411a27.91,27.91,0,0,0,11.86.27,33.56,33.56,0,0,0,5.74-1.63c1-.38,1.94-.79,2.88-1.24l.72-.35.18-.1.09,0h0s0,0,0,0v0l0,0c0,.1-.11.19-.16.28-.23.38-.47.76-.72,1.12a22.66,22.66,0,0,1-9,7.72,21.35,21.35,0,0,1-11.62,2v14.12A30.68,30.68,0,0,1,539.93,449a30.69,30.69,0,0,1-4.39-15.82V417.48a25.12,25.12,0,0,0-11.73-1.1,29,29,0,0,0-5.75,1.45c-1,.35-1.93.74-2.86,1.18l-.72.35-.36.18,0,0h0v0l0-.07s0-.09.08-.14c.22-.38.46-.74.7-1.11a21,21,0,0,1,9-7.52,20.19,20.19,0,0,1,11.64-1.36V393.62a85.2,85.2,0,0,0-23.4-1.84v26a66.07,66.07,0,0,0,.69,8.66,63.13,63.13,0,0,0,13.93,31.33,45.3,45.3,0,0,1-13.82-12,47.15,47.15,0,0,1-8.24-16.35,38.28,38.28,0,0,1-.95-4.5c-.11-.72-.2-1.44-.26-2.16,0-.35-.06-.71-.08-1.06l0-.52a2.26,2.26,0,0,1,0-.26V392.77q-2.39.39-4.74.93c-.79.17-1.57.36-2.35.56l-1.17.3-.29.08-.14,0-.08,0h0l0,0,.48-.37a51,51,0,0,1,8.24-5v-2c0-.2,0-.4,0-.6l0-.45a9,9,0,0,0-1.69-4.45,7.44,7.44,0,0,0-3-2.42,6.45,6.45,0,0,0-3.83-.4c4.83-1,9.59-2.28,14.32-3.72l1.54-.48.77-.24.39-.13.19-.06.09,0h.06v11.59a51.56,51.56,0,0,1,23.4-1V376a7.32,7.32,0,0,0-8.78-7.17q6.72-2.88,13.17-6.29,6.45,3.42,13.16,6.29a7.32,7.32,0,0,0-8.78,7.17v11a85.24,85.24,0,0,0,23.41,1.84V374.33h0l.23.08.46.15.92.29q7.77,2.45,15.72,4.15a6.45,6.45,0,0,0-3.51.27,7.18,7.18,0,0,0-2.91,2,9.05,9.05,0,0,0-2.11,4.83c0,.18,0,.36,0,.54C576.49,387.05,576.49,387.46,576.49,387.87Z" transform="translate(-9.98 -362.53)"/><path class="cls-1" d="M32.29,417.45v-31.4c0-.11,0-.23,0-.35s0-.47-.06-.71a7.62,7.62,0,0,0-.34-1.41,7.8,7.8,0,0,0-8.95-5.17l14-5.11a88.12,88.12,0,0,0,47.08,0,53.55,53.55,0,0,1-42,10.27,8.05,8.05,0,0,0-.33,1.35c0,.23,0,.45-.07.68s0,.22,0,.34v33.19a29,29,0,0,0,12.31.28,35,35,0,0,0,6-1.7c1-.39,2-.81,3-1.28l.75-.37.19-.09.09-.05h0s0,0,0,0v0l0,0-.17.3c-.24.39-.48.78-.74,1.16a23.68,23.68,0,0,1-9.29,8,22.24,22.24,0,0,1-12.07,2.12v19.86c0,.75,0,1.49,0,2.23,0,.37,0,.73,0,1.09q-.08,1.1-.21,2.19a33.35,33.35,0,0,1-.86,4.32,33.15,33.15,0,0,1-1.66,4.7c-.34.76-.7,1.5-1.09,2.23q-.29.54-.6,1.08l-.16.26,0,.07h0v0l0,0-.08-.13-.3-.53A32.44,32.44,0,0,1,33,455.62a34.09,34.09,0,0,1-.58-3.62c-.06-.6-.1-1.21-.13-1.81l0-.91V425.89a26,26,0,0,0-12.18-1.14,29.84,29.84,0,0,0-6,1.5,32,32,0,0,0-3,1.23l-.75.36-.37.19-.05,0h0v0l0-.07.08-.15c.23-.39.48-.77.73-1.15A21.3,21.3,0,0,1,32.29,417.45Z" transform="translate(-9.98 -362.53)"/><path class="cls-1" d="M92,427.7c-.62.06-1.56.09-2.81.09q-8.34,0-9.7-4.16a22.32,22.32,0,0,1-1.36-6.15l27.27-7c-.43-.78-.87-1.56-1.31-2.34q-5.34-4.5-14.25-4.5a43.27,43.27,0,0,0-8.94,1.13,14.88,14.88,0,0,0-8.81,5.86,16.19,16.19,0,0,0-3.62,10,11.57,11.57,0,0,0,1.41,5.72A8.12,8.12,0,0,0,74.14,430a26,26,0,0,0,5.49,1.81,25.38,25.38,0,0,0,5.29.52,24.84,24.84,0,0,0,13.77-4.12l4.13-3.75A46.09,46.09,0,0,1,95.13,427,22.22,22.22,0,0,1,92,427.7ZM78.88,413a16.1,16.1,0,0,1,.88-2.36c.88-1.87,2-2.91,3.38-3.1l3.18-.38a8.4,8.4,0,0,1,5.16,1.69c1.5,1.13,2.25,2.06,2.25,2.81a.9.9,0,0,1-.47.57l-15.08,3.79C78.43,414.79,78.66,413.79,78.88,413Z" transform="translate(-9.98 -362.53)"/><path class="cls-1" d="M119.13,433.13V416.65c0-1.81-.46-3.07-1.37-3.79a5,5,0,0,0-3.23-1.08,14.86,14.86,0,0,0-3.65.65l-3.19,1.22,12.19-8.25a7.13,7.13,0,0,1,3.65-1.4,2.32,2.32,0,0,1,2.53,1.87,10.31,10.31,0,0,1,.75,3.66,46.8,46.8,0,0,1,6.9-3.42,14.07,14.07,0,0,1,4.73-.89,11.17,11.17,0,0,1,4.54,1.5,11.58,11.58,0,0,0,4,1.5,9.32,9.32,0,0,0,3.28-.94,43.51,43.51,0,0,0,4.5-2.81,55,55,0,0,1-4.93,7.21q-2.87,3.57-8.21,3.57a12,12,0,0,1-5.11-1.32,16.6,16.6,0,0,1-4.35-2.81,9.6,9.6,0,0,0-1.22-1.08,7.06,7.06,0,0,0-.75-.42,3.25,3.25,0,0,0-2.25,1.13,3.09,3.09,0,0,0-1.13,2v15Z" transform="translate(-9.98 -362.53)"/><path class="cls-1" d="M159.14,431.25a25.46,25.46,0,0,0,1.41-4.68c.12-1.38.25-2.75.37-4.13a15.8,15.8,0,0,0-1.69-7.21l-3.46-4.59,5.62-5.61a2.73,2.73,0,0,1,1.41-.66,4,4,0,0,1,3.13,2,32.18,32.18,0,0,1,2.58,4.26,44,44,0,0,1,9.28-5.48,20.08,20.08,0,0,1,7.22-1.83q4.5,0,6.37,2.16a15.77,15.77,0,0,1,3,4.22,53.47,53.47,0,0,1,4.78-2.48q2.34-1.08,5.06-2.12a28.77,28.77,0,0,1,9.19-1.78,12.22,12.22,0,0,1,5.25,1,7,7,0,0,1,3.28,3.24,16.46,16.46,0,0,1,1.5,4c.12,1.12.25,2.25.37,3.37a13.61,13.61,0,0,1-4.26,9.9A21,21,0,0,1,209,430.52a21.86,21.86,0,0,0,3.47-4.5,10.59,10.59,0,0,0,1.78-5.53c-.09-.75-.18-1.5-.28-2.25a12.48,12.48,0,0,0-1.5-3.56,8.67,8.67,0,0,0-3.75-4,9.55,9.55,0,0,0-5.34-1.59,10.6,10.6,0,0,0-4.78.94,14.64,14.64,0,0,0-3.47,2c.31,1.1.63,2.19.94,3.29l.37,3.09a20.36,20.36,0,0,1-.13,2.81,13.68,13.68,0,0,1-.66,2.3,6.68,6.68,0,0,1-1,2l-10.49,5.79c.46-1.12.93-2.25,1.4-3.37a18.59,18.59,0,0,0,.66-5.06,21,21,0,0,0-.52-4.55,16.16,16.16,0,0,0-1.92-4.65A9.06,9.06,0,0,0,180.7,410a6.93,6.93,0,0,0-3.75-1.13,8.9,8.9,0,0,0-4.5,1.13l-3.37,2.34a21.12,21.12,0,0,1,1.21,3.14,12.13,12.13,0,0,1,.57,3.61v2.06c-.19.81-.32,1.41-.38,1.78l-.84,2.72Z" transform="translate(-9.98 -362.53)"/><path class="cls-1" d="M250.62,427.71c-.62.06-1.56.09-2.81.09q-8.35,0-9.71-4.16a22.59,22.59,0,0,1-1.35-6.15l27.27-7c-.43-.78-.87-1.56-1.31-2.34q-5.34-4.5-14.25-4.5a43.35,43.35,0,0,0-9,1.13,14.88,14.88,0,0,0-8.81,5.86,16.24,16.24,0,0,0-3.61,10,11.57,11.57,0,0,0,1.41,5.72,8.12,8.12,0,0,0,4.22,3.65,26.83,26.83,0,0,0,5.49,1.82,25.38,25.38,0,0,0,5.29.52,24.9,24.9,0,0,0,13.78-4.12l4.12-3.75a47.12,47.12,0,0,1-7.69,2.63A23,23,0,0,1,250.62,427.71ZM237.46,413a16.1,16.1,0,0,1,.88-2.36c.88-1.87,2-2.91,3.38-3.1l3.18-.38a8.4,8.4,0,0,1,5.16,1.69c1.5,1.13,2.25,2.06,2.25,2.81a.9.9,0,0,1-.47.57l-15.08,3.79C237,414.79,237.25,413.79,237.46,413Z" transform="translate(-9.98 -362.53)"/><path class="cls-1" d="M269.65,431.25a26.16,26.16,0,0,0,1.4-4.68c.13-1.38.25-2.75.38-4.13a14.11,14.11,0,0,0-2.44-8.52c-.5-.68-1.15-1.5-2-2.43-.18-.19-.43-.47-.75-.85L273,405a3.09,3.09,0,0,1,1.13-.47A3.44,3.44,0,0,1,277,406.3c.81,1.16,1.28,1.84,1.4,2.06s.44.87.94,1.93A38.44,38.44,0,0,1,289,405a27,27,0,0,1,9.51-2.07,17.94,17.94,0,0,1,3.24.28,9,9,0,0,1,2.75,1,7.56,7.56,0,0,1,3.85,4.12,16.06,16.06,0,0,1,1.4,6.75,14.53,14.53,0,0,1-4,10.21,16.85,16.85,0,0,1-10.25,5.25,15.31,15.31,0,0,0,3.06-4.07,11.55,11.55,0,0,0,1.62-5.77v-2.06a10,10,0,0,0-1.5-3.75,8.87,8.87,0,0,0-3.93-4.22,11.53,11.53,0,0,0-5.63-1.5A13.17,13.17,0,0,0,284,410a28.43,28.43,0,0,0-4,2.06,13.5,13.5,0,0,1,1.13,3.28l.37,3.09a12,12,0,0,1-.47,3.79,11.58,11.58,0,0,1-1,2.3Z" transform="translate(-9.98 -362.53)"/><path class="cls-1" d="M321.2,427.71a12,12,0,0,1-1.59-3.28l-.38-1.73a8.77,8.77,0,0,1-.09-1.55,12.32,12.32,0,0,1,4.5-9.7,53.58,53.58,0,0,1,9.27-6.5l-3.37-.75a21.76,21.76,0,0,0-3.65-.42c-1.13,0-2,0-2.63,0l-5.06.28a19,19,0,0,0-2.3.37c-.47.13-1.34.44-2.57.94l3.82-2.91a33.49,33.49,0,0,1,12.77-4.21,56.93,56.93,0,0,1,8.48.6,107.69,107.69,0,0,0,10.92.8h3.84a5.33,5.33,0,0,1,1-.18,18.64,18.64,0,0,0,4.5-.85,59.37,59.37,0,0,1-7.5,4.55,22.19,22.19,0,0,1-10.4,2.3l-3.47-.28c-1.31-.18-3.11.92-5.38,3.34A11.83,11.83,0,0,0,329.69,422a7.31,7.31,0,0,0,3.47,3.61,12.29,12.29,0,0,0,5.42,1.12,32.73,32.73,0,0,0,8.28-1.4c3.38-.94,5.21-1.57,5.46-1.88a25.35,25.35,0,0,1-9.43,5.95A32.36,32.36,0,0,1,331,431.86a15,15,0,0,1-5.81-1A7.36,7.36,0,0,1,321.2,427.71Z" transform="translate(-9.98 -362.53)"/><path class="cls-1" d="M361.22,423.71v-9.9a5.7,5.7,0,0,0-.8-2.94,2.6,2.6,0,0,0-2.39-1.35l-.93.18,3.18-2.61c2.63-1.86,4.72-2.8,6.28-2.8s2.35,1,2.35,3v10.87a7.75,7.75,0,0,0,1.68,4.88,6,6,0,0,0,4.69,1.87,19.27,19.27,0,0,0,6.43-.9c1.65-.59,2.71-1,3.18-1.17s1.26-.57,2.39-1.13V410.46a8.11,8.11,0,0,0-.14-2.06c-.09-.25-.64-.4-1.64-.47l-1.6.19L388,405.4a8.2,8.2,0,0,1,4.31-1.4c1.75,0,2.62,1.09,2.62,3.28v11.25a7.56,7.56,0,0,0,1.41,5,5.19,5.19,0,0,0,3.84,1.41,9.28,9.28,0,0,0,2.81-.33l1.46-.51a11.36,11.36,0,0,0,1.36-.66,39.73,39.73,0,0,1-7.73,5.06,14,14,0,0,1-5.49,1.59,5.13,5.13,0,0,1-3.84-1.8,7.83,7.83,0,0,1-1.5-4.85l-7.5,2.72c-5.81,2.43-9.62,3.75-11.44,3.93a7.4,7.4,0,0,1-5-1.82A5.75,5.75,0,0,1,361.22,423.71Z" transform="translate(-9.98 -362.53)"/><path class="cls-1" d="M409.12,431.25a26.16,26.16,0,0,0,1.4-4.68c.13-1.38.25-2.75.38-4.13a15.8,15.8,0,0,0-1.69-7.21l-3.47-4.59,5.63-5.61a2.74,2.74,0,0,1,1.4-.66,4,4,0,0,1,3.14,2,32.18,32.18,0,0,1,2.58,4.26,43.79,43.79,0,0,1,9.28-5.48,20.08,20.08,0,0,1,7.22-1.83q4.5,0,6.37,2.16a15.77,15.77,0,0,1,3,4.22,52.14,52.14,0,0,1,4.78-2.48q2.34-1.08,5.06-2.12a28.77,28.77,0,0,1,9.19-1.78,12.22,12.22,0,0,1,5.25,1,7.05,7.05,0,0,1,3.28,3.24,16.46,16.46,0,0,1,1.5,4c.12,1.12.25,2.25.37,3.37a13.65,13.65,0,0,1-4.26,9.9A21,21,0,0,1,459,430.52a21.86,21.86,0,0,0,3.47-4.5,10.59,10.59,0,0,0,1.78-5.53c-.09-.75-.19-1.5-.28-2.25a12.48,12.48,0,0,0-1.5-3.56,8.67,8.67,0,0,0-3.75-4,9.58,9.58,0,0,0-5.34-1.59,10.6,10.6,0,0,0-4.78.94,14.64,14.64,0,0,0-3.47,2c.31,1.1.62,2.19.94,3.29l.37,3.09a20.36,20.36,0,0,1-.13,2.81,15.91,15.91,0,0,1-.66,2.3,6.92,6.92,0,0,1-1,2l-10.5,5.79,1.41-3.37a18.59,18.59,0,0,0,.66-5.06,20.45,20.45,0,0,0-.53-4.55,15.84,15.84,0,0,0-1.91-4.65,9.21,9.21,0,0,0-3.09-3.65,6.93,6.93,0,0,0-3.75-1.13,8.9,8.9,0,0,0-4.5,1.13l-3.38,2.34a20,20,0,0,1,1.22,3.14,12.11,12.11,0,0,1,.56,3.61v2.06c-.18.81-.31,1.41-.37,1.78l-.84,2.72Z" transform="translate(-9.98 -362.53)"/></g></svg>