<?xml version="1.0" encoding="utf-8"?>
<!-- Generator: Adobe Illustrator 25.4.1, SVG Export Plug-In . SVG Version: 6.00 Build 0)  -->
<svg version="1.1" xmlns="http://www.w3.org/2000/svg" xmlns:xlink="http://www.w3.org/1999/xlink" x="0px" y="0px"
	 viewBox="0 0 462.43 391.86" style="enable-background:new 0 0 462.43 391.86;" xml:space="preserve">
<g id="Construccion">
</g>
<g id="Default">
	<g>
		<g>
			<path d="M78.47,385.21c-0.86-0.49-1.55-1.44-2.07-2.85l-0.69-1.79h-7.71l-2.2,5.23h-1.24l7.71-18.17h0.83l6.06,14.73
				c0.46,1.06,0.89,1.79,1.29,2.19c0.4,0.39,0.98,0.63,1.73,0.7v0.55c-0.33,0.09-0.7,0.14-1.1,0.14
				C80.2,385.94,79.33,385.69,78.47,385.21z M68.42,379.47h6.74l-3.3-7.98L68.42,379.47z"/>
			<path d="M90.18,385.39c-0.51-0.41-1.07-1.13-1.69-2.19l-1.93-3.27h-1.35v5.88h-1.73v-10.4c0-0.65-0.09-1.14-0.27-1.45
				c-0.18-0.32-0.54-0.47-1.08-0.47h-0.39v-0.39h5.01c1.22,0,2.33,0.24,3.32,0.72c0.99,0.48,1.49,1.4,1.49,2.74
				c0,1.71-1.03,2.8-3.08,3.28l2.02,3.37c0.47,0.8,0.9,1.35,1.28,1.67c0.38,0.31,0.82,0.5,1.32,0.55v0.39
				c-0.12,0.05-0.28,0.1-0.49,0.13c-0.21,0.04-0.43,0.06-0.66,0.06C91.28,385.99,90.69,385.79,90.18,385.39z M87.96,378.96
				c0.47-0.19,0.87-0.49,1.2-0.9c0.33-0.41,0.49-0.91,0.49-1.5c0-0.63-0.16-1.15-0.49-1.57c-0.33-0.42-0.73-0.73-1.2-0.93
				s-0.9-0.3-1.3-0.3c-0.45,0-0.93,0.06-1.44,0.19v5.11c0.51,0.13,0.99,0.19,1.44,0.19C87.06,379.25,87.49,379.15,87.96,378.96z"/>
			<path d="M97.84,373.85H96.1c-1.61,0-2.41,0.74-2.41,2.22h-0.39v-1.44c0-1.03,0.55-1.54,1.64-1.54h8.96v0.77h-4.34v11.95h-1.73
				V373.85z"/>
			<path d="M106.18,375.39c0-0.65-0.09-1.14-0.27-1.45c-0.18-0.32-0.54-0.47-1.08-0.47h-0.39v-0.39h8.21c1.09,0,1.64,0.51,1.64,1.54
				v1.44h-0.39c0-1.48-0.8-2.22-2.41-2.22h-3.58v5.01h5.2v0.77h-5.2v5.4h3.37c0.89,0,1.58-0.16,2.08-0.48
				c0.5-0.32,0.9-0.87,1.2-1.64l0.39,0.1l-0.67,1.83c-0.23,0.64-0.71,0.96-1.44,0.96h-6.65V375.39z"/>
			<path d="M118.86,385.84c-0.68-0.19-1.24-0.47-1.67-0.83c-0.43-0.36-0.65-0.77-0.65-1.23v-2.06h0.35
				c0.22,1.29,0.64,2.21,1.27,2.78c0.63,0.57,1.5,0.86,2.6,0.86c0.69,0,1.29-0.17,1.78-0.52c0.49-0.35,0.74-0.83,0.74-1.44
				c0-0.54-0.17-1.01-0.5-1.41c-0.33-0.4-0.87-0.82-1.62-1.25l-2.37-1.41c-0.82-0.49-1.4-0.98-1.74-1.48
				c-0.34-0.5-0.51-1.11-0.51-1.83c0-0.99,0.34-1.78,1.03-2.38c0.69-0.6,1.59-0.9,2.71-0.9c0.66,0,1.3,0.09,1.95,0.28
				c0.64,0.19,1.17,0.45,1.59,0.81c0.42,0.35,0.63,0.76,0.63,1.22v2.06h-0.35c-0.22-1.29-0.63-2.21-1.24-2.77
				c-0.61-0.56-1.47-0.84-2.57-0.84c-0.59,0-1.11,0.18-1.56,0.54c-0.45,0.36-0.67,0.83-0.67,1.41c0,0.53,0.16,0.96,0.49,1.31
				c0.33,0.35,0.88,0.75,1.65,1.21l2.37,1.41c0.87,0.53,1.49,1.01,1.85,1.46c0.36,0.45,0.54,1.02,0.54,1.72
				c0,1.08-0.36,1.94-1.08,2.59c-0.72,0.65-1.7,0.97-2.93,0.97C120.23,386.13,119.54,386.03,118.86,385.84z"/>
			<path d="M135.93,385.39c-0.6-0.34-1.09-1.01-1.44-1.99l-0.48-1.25h-5.4l-1.54,3.66h-0.87l5.4-12.72h0.58l4.24,10.31
				c0.32,0.74,0.62,1.25,0.91,1.53c0.28,0.28,0.69,0.44,1.21,0.49v0.39c-0.23,0.06-0.49,0.1-0.77,0.1
				C137.14,385.9,136.53,385.73,135.93,385.39z M128.9,381.37h4.72l-2.31-5.59L128.9,381.37z"/>
			<path d="M140.9,375.68v10.12h-0.77v-10.4c0-0.62-0.13-1.09-0.39-1.42c-0.26-0.33-0.71-0.5-1.34-0.5h-0.19v-0.39h1.25
				c0.59,0,1.09,0.1,1.5,0.29c0.41,0.19,0.78,0.48,1.1,0.87l6.74,8.38v-9.54h0.77v12.91h-0.39L140.9,375.68z"/>
			<path d="M154.92,385.3c-0.91-0.59-1.6-1.4-2.09-2.43c-0.49-1.03-0.73-2.17-0.73-3.43c0-1.26,0.24-2.4,0.73-3.43
				c0.49-1.03,1.18-1.84,2.09-2.43c0.9-0.59,1.96-0.89,3.15-0.89c1.2,0,2.25,0.3,3.15,0.89c0.91,0.59,1.6,1.4,2.09,2.43
				c0.49,1.03,0.73,2.17,0.73,3.43c0,1.26-0.24,2.4-0.73,3.43c-0.49,1.03-1.18,1.84-2.09,2.43c-0.9,0.59-1.96,0.89-3.15,0.89
				C156.87,386.18,155.82,385.89,154.92,385.3z M160.24,384.68c0.61-0.49,1.08-1.18,1.4-2.07c0.32-0.89,0.48-1.95,0.48-3.17
				c0-1.22-0.16-2.28-0.48-3.17c-0.32-0.89-0.79-1.58-1.4-2.07c-0.61-0.49-1.33-0.73-2.17-0.73c-0.83,0-1.56,0.24-2.17,0.73
				c-0.61,0.49-1.08,1.18-1.4,2.07c-0.32,0.89-0.48,1.95-0.48,3.17c0,1.22,0.16,2.28,0.48,3.17c0.32,0.89,0.79,1.58,1.4,2.07
				c0.61,0.49,1.33,0.73,2.17,0.73C158.9,385.41,159.63,385.17,160.24,384.68z"/>
			<path d="M168.28,385.84c-0.68-0.19-1.24-0.47-1.67-0.83c-0.43-0.36-0.65-0.77-0.65-1.23v-2.06h0.35
				c0.22,1.29,0.64,2.21,1.27,2.78c0.63,0.57,1.5,0.86,2.6,0.86c0.69,0,1.29-0.17,1.78-0.52c0.49-0.35,0.74-0.83,0.74-1.44
				c0-0.54-0.17-1.01-0.5-1.41c-0.33-0.4-0.87-0.82-1.62-1.25l-2.37-1.41c-0.82-0.49-1.4-0.98-1.74-1.48
				c-0.34-0.5-0.51-1.11-0.51-1.83c0-0.99,0.34-1.78,1.03-2.38c0.69-0.6,1.59-0.9,2.71-0.9c0.66,0,1.3,0.09,1.95,0.28
				c0.64,0.19,1.17,0.45,1.59,0.81c0.42,0.35,0.63,0.76,0.63,1.22v2.06h-0.35c-0.22-1.29-0.63-2.21-1.24-2.77
				c-0.61-0.56-1.47-0.84-2.57-0.84c-0.59,0-1.11,0.18-1.56,0.54c-0.45,0.36-0.67,0.83-0.67,1.41c0,0.53,0.16,0.96,0.49,1.31
				c0.33,0.35,0.88,0.75,1.65,1.21l2.37,1.41c0.87,0.53,1.49,1.01,1.85,1.46c0.36,0.45,0.54,1.02,0.54,1.72
				c0,1.08-0.36,1.94-1.08,2.59c-0.72,0.65-1.7,0.97-2.93,0.97C169.65,386.13,168.96,386.03,168.28,385.84z"/>
			<path d="M185,370.93c0-0.93-0.13-1.63-0.39-2.08c-0.26-0.45-0.77-0.67-1.54-0.67h-0.55v-0.55h7.21c3.56,0,6.25,0.79,8.08,2.37
				c1.83,1.58,2.74,3.78,2.74,6.61c0,1.82-0.39,3.42-1.16,4.8c-0.77,1.39-1.91,2.46-3.43,3.23c-1.51,0.77-3.35,1.16-5.52,1.16H185
				V370.93z M194.04,383.83c1.09-0.67,1.95-1.61,2.57-2.83c0.62-1.22,0.94-2.65,0.94-4.28c0-1.6-0.31-3.01-0.92-4.24
				c-0.61-1.23-1.47-2.18-2.57-2.86s-2.35-1.02-3.74-1.02c-0.88,0-1.8,0.15-2.75,0.44v15.44c1.03,0.24,1.96,0.36,2.81,0.36
				C191.72,384.84,192.95,384.5,194.04,383.83z"/>
			<path d="M203.8,375.39c0-0.65-0.09-1.14-0.27-1.45c-0.18-0.32-0.54-0.47-1.08-0.47h-0.39v-0.39h8.21c1.09,0,1.64,0.51,1.64,1.54
				v1.44h-0.39c0-1.48-0.8-2.22-2.41-2.22h-3.58v5.01h5.2v0.77h-5.2v5.4h3.37c0.89,0,1.58-0.16,2.08-0.48
				c0.5-0.32,0.9-0.87,1.2-1.64l0.39,0.1l-0.67,1.83c-0.23,0.64-0.71,0.96-1.44,0.96h-6.65V375.39z"/>
			<path d="M222.93,370.93c0-0.93-0.13-1.63-0.39-2.08c-0.26-0.45-0.77-0.67-1.54-0.67h-0.55v-0.55h2.48c0.68,0,1.19,0.09,1.53,0.26
				c0.34,0.17,0.58,0.49,0.73,0.95c0.15,0.46,0.22,1.16,0.22,2.09v13.76h9.78v1.1h-12.25V370.93z"/>
			<path d="M245.52,385.39c-0.6-0.34-1.09-1.01-1.44-1.99l-0.48-1.25h-5.4l-1.54,3.66h-0.87l5.4-12.72h0.58l4.24,10.31
				c0.32,0.74,0.62,1.25,0.9,1.53c0.28,0.28,0.69,0.44,1.21,0.49v0.39c-0.23,0.06-0.49,0.1-0.77,0.1
				C246.74,385.9,246.13,385.73,245.52,385.39z M238.49,381.37h4.72l-2.31-5.59L238.49,381.37z"/>
			<path d="M257.4,370.93c0-0.93-0.13-1.63-0.39-2.08c-0.26-0.45-0.77-0.67-1.54-0.67h-0.55v-0.55h10.98c1.56,0,2.34,0.73,2.34,2.2
				v2.07h-0.55c0-2.11-1.15-3.17-3.44-3.17h-4.38v7.3h6.22v1.1h-6.22v8.67h-2.48V370.93z"/>
			<path d="M271.03,375.39c0-0.65-0.09-1.14-0.27-1.45c-0.18-0.32-0.54-0.47-1.08-0.47h-0.39v-0.39h8.21c1.09,0,1.64,0.51,1.64,1.54
				v1.44h-0.39c0-1.48-0.8-2.22-2.41-2.22h-3.58v5.01h5.2v0.77h-5.2v5.4h3.37c0.89,0,1.58-0.16,2.08-0.48
				c0.5-0.32,0.9-0.87,1.19-1.64l0.39,0.1l-0.67,1.83c-0.23,0.64-0.71,0.96-1.44,0.96h-6.65V375.39z"/>
			<path d="M289.1,385.39c-0.51-0.41-1.07-1.13-1.69-2.19l-1.93-3.27h-1.35v5.88h-1.73v-10.4c0-0.65-0.09-1.14-0.27-1.45
				c-0.18-0.32-0.54-0.47-1.08-0.47h-0.39v-0.39h5.01c1.22,0,2.33,0.24,3.32,0.72c0.99,0.48,1.49,1.4,1.49,2.74
				c0,1.71-1.03,2.8-3.08,3.28l2.02,3.37c0.47,0.8,0.9,1.35,1.28,1.67c0.38,0.31,0.82,0.5,1.32,0.55v0.39
				c-0.12,0.05-0.28,0.1-0.49,0.13c-0.21,0.04-0.43,0.06-0.67,0.06C290.2,385.99,289.6,385.79,289.1,385.39z M286.88,378.96
				c0.47-0.19,0.87-0.49,1.19-0.9c0.33-0.41,0.49-0.91,0.49-1.5c0-0.63-0.16-1.15-0.49-1.57c-0.33-0.42-0.73-0.73-1.19-0.93
				c-0.47-0.2-0.9-0.3-1.3-0.3c-0.45,0-0.93,0.06-1.44,0.19v5.11c0.51,0.13,0.99,0.19,1.44,0.19
				C285.98,379.25,286.41,379.15,286.88,378.96z"/>
			<path d="M305.87,386.24c-0.52-0.28-0.88-0.72-1.09-1.32c-0.21-0.6-0.32-1.4-0.32-2.4v-7.42l-4.82,10.69h-0.39l-5.01-10.89v10.89
				h-0.77v-12.72h1.83l4.62,10.02l4.53-10.02h1.73v9.44c0,1.19,0.15,2.12,0.45,2.77c0.3,0.66,0.76,0.98,1.38,0.98v0.39
				C307.1,386.67,306.38,386.53,305.87,386.24z"/>
			<path d="M310.22,375.39c0-0.65-0.09-1.14-0.27-1.45c-0.18-0.32-0.54-0.47-1.08-0.47h-0.39v-0.39h8.21c1.09,0,1.64,0.51,1.64,1.54
				v1.44h-0.39c0-1.48-0.8-2.22-2.41-2.22h-3.58v5.01h5.2v0.77h-5.2v5.4h3.37c0.89,0,1.58-0.16,2.08-0.48
				c0.5-0.32,0.9-0.87,1.19-1.64l0.39,0.1l-0.67,1.83c-0.23,0.64-0.71,0.96-1.44,0.96h-6.65V375.39z"/>
			<path d="M322.44,375.68v10.12h-0.77v-10.4c0-0.62-0.13-1.09-0.39-1.42c-0.26-0.33-0.71-0.5-1.34-0.5h-0.19v-0.39h1.25
				c0.59,0,1.09,0.1,1.5,0.29c0.41,0.19,0.78,0.48,1.1,0.87l6.74,8.38v-9.54h0.77v12.91h-0.39L322.44,375.68z"/>
			<path d="M337.68,373.85h-1.73c-1.61,0-2.41,0.74-2.41,2.22h-0.39v-1.44c0-1.03,0.54-1.54,1.64-1.54h8.96v0.77h-4.34v11.95h-1.73
				V373.85z"/>
			<path d="M352.73,385.39c-0.6-0.34-1.09-1.01-1.44-1.99l-0.48-1.25h-5.4l-1.54,3.66H343l5.4-12.72h0.58l4.24,10.31
				c0.32,0.74,0.62,1.25,0.9,1.53c0.28,0.28,0.69,0.44,1.21,0.49v0.39c-0.23,0.06-0.49,0.1-0.77,0.1
				C353.94,385.9,353.34,385.73,352.73,385.39z M345.7,381.37h4.72l-2.31-5.59L345.7,381.37z"/>
			<path d="M358.21,385.32c-0.91-0.58-1.6-1.36-2.09-2.36c-0.49-0.99-0.73-2.1-0.73-3.32c0-1.26,0.27-2.42,0.8-3.49
				c0.53-1.07,1.26-1.91,2.18-2.52c0.92-0.62,1.92-0.93,3-0.93c1.03,0,1.93,0.14,2.71,0.43c0.78,0.29,1.35,0.66,1.72,1.11
				c0.22,0.27,0.35,0.63,0.41,1.07c0.05,0.44,0.08,1.05,0.08,1.82h-0.39c-0.24-1.25-0.69-2.17-1.35-2.76c-0.65-0.6-1.52-0.9-2.6-0.9
				c-1.39,0-2.5,0.49-3.35,1.46c-0.85,0.98-1.27,2.54-1.27,4.7c0,1.02,0.16,1.96,0.49,2.83c0.33,0.87,0.84,1.58,1.53,2.13
				c0.69,0.55,1.56,0.82,2.6,0.82c0.94,0,1.76-0.22,2.46-0.67c0.7-0.45,1.33-1.12,1.88-2.02l0.39,0.29
				c-0.59,1.16-1.32,1.97-2.19,2.46c-0.87,0.48-1.9,0.72-3.11,0.72C360.17,386.18,359.12,385.9,358.21,385.32z"/>
			<path d="M369.73,385.62c-0.24-0.12-0.41-0.34-0.51-0.66c-0.1-0.32-0.15-0.81-0.15-1.46v-10.4h1.73v10.4
				c0,0.65,0.09,1.14,0.27,1.45c0.18,0.32,0.54,0.47,1.08,0.47h0.39v0.39h-1.73C370.33,385.8,369.97,385.74,369.73,385.62z"/>
			<path d="M376.42,385.3c-0.9-0.59-1.6-1.4-2.09-2.43c-0.49-1.03-0.73-2.17-0.73-3.43c0-1.26,0.24-2.4,0.73-3.43
				c0.49-1.03,1.18-1.84,2.09-2.43c0.9-0.59,1.96-0.89,3.15-0.89c1.19,0,2.24,0.3,3.15,0.89c0.9,0.59,1.6,1.4,2.09,2.43
				c0.49,1.03,0.73,2.17,0.73,3.43c0,1.26-0.24,2.4-0.73,3.43c-0.49,1.03-1.18,1.84-2.09,2.43c-0.91,0.59-1.96,0.89-3.15,0.89
				C378.37,386.18,377.32,385.89,376.42,385.3z M381.74,384.68c0.61-0.49,1.08-1.18,1.4-2.07c0.32-0.89,0.48-1.95,0.48-3.17
				c0-1.22-0.16-2.28-0.48-3.17c-0.32-0.89-0.79-1.58-1.4-2.07c-0.61-0.49-1.33-0.73-2.17-0.73c-0.84,0-1.56,0.24-2.17,0.73
				c-0.61,0.49-1.08,1.18-1.4,2.07c-0.32,0.89-0.48,1.95-0.48,3.17c0,1.22,0.16,2.28,0.48,3.17c0.32,0.89,0.79,1.58,1.4,2.07
				c0.61,0.49,1.33,0.73,2.17,0.73C380.4,385.41,381.13,385.17,381.74,384.68z M379.17,371.93l0.77-2.5h1.83l-1.83,2.5H379.17z"/>
			<path d="M389.18,375.68v10.12h-0.77v-10.4c0-0.62-0.13-1.09-0.39-1.42c-0.26-0.33-0.71-0.5-1.34-0.5h-0.19v-0.39h1.25
				c0.59,0,1.09,0.1,1.5,0.29c0.41,0.19,0.78,0.48,1.1,0.87l6.74,8.38v-9.54h0.77v12.91h-0.39L389.18,375.68z"/>
		</g>
		<path d="M332.61,75.46c8.22-1.36,16.31-3.15,24.34-5.37c-7.59,5.83-15.74,10.88-24.34,15.08c0,17.35,0,34.7,0,52.05
			c0,8.67,0,17.35,0,26.02c0,0.97,0,1.94,0,2.91c0,0.17,0,0.34,0,0.51c0,0.06,0,0.11-0.01,0.17c0,0.11-0.01,0.22-0.01,0.33
			c-0.01,0.22-0.02,0.44-0.03,0.67c-0.02,0.45-0.04,0.89-0.07,1.34c-0.05,0.91-0.12,1.81-0.19,2.71c-0.16,1.86-0.37,3.71-0.63,5.56
			c-0.55,3.89-1.31,7.72-2.28,11.53c-4.24,16.77-12.31,32.75-22.77,46.44c-10.43,13.66-23.75,25.68-38.91,34
			c19.86-23.59,32.81-52.62,37.99-82.88c1.3-7.6,2.11-15.21,2.42-22.92c0.06-1.48,0.1-2.96,0.13-4.45c0.01-0.74,0.02-1.48,0.02-2.21
			c0.01-1.8,0-3.6,0-5.4c0-3.67,0-7.34,0-11.01c0-15.37,0-30.75,0-46.12c-21.13,5.9-43.33,6.87-64.89,2.83c0,14.09,0,28.17,0,42.26
			c10.87,2.65,21.92,2.81,32.88,0.75c5.47-1.02,10.72-2.55,15.92-4.53c2.71-1.03,5.36-2.18,7.98-3.43c0.67-0.32,1.34-0.65,2-0.98
			c0.17-0.08,0.33-0.17,0.5-0.25c0.08-0.04,0.17-0.09,0.25-0.13c0.01-0.01,0.02-0.01,0.03-0.02c0.01-0.01,0,0.01-0.01,0.02
			c-0.01,0.02-0.02,0.03-0.03,0.05c-0.02,0.03-0.04,0.07-0.06,0.1c-0.15,0.26-0.3,0.52-0.46,0.78c-0.63,1.05-1.29,2.09-1.97,3.1
			c-6.22,9.17-14.83,16.59-24.82,21.4c-9.98,4.8-21.16,6.9-32.22,5.67c0,13.05,0,26.1,0,39.15c0,15.46-4.21,30.62-12.17,43.87
			c-7.96-13.25-12.17-28.41-12.17-43.87c0-14.54,0-29.09,0-43.63c-10.57-3.59-21.47-4.6-32.52-3.04
			c-5.46,0.77-10.78,2.14-15.96,4.01c-2.7,0.97-5.33,2.07-7.92,3.29c-0.67,0.31-1.33,0.63-1.99,0.96c-0.33,0.17-0.66,0.33-1,0.5
			c-0.04,0.02-0.08,0.04-0.12,0.06c-0.01,0.01-0.02,0.01-0.03,0.02c-0.01,0-0.01,0.01-0.02,0.01c0,0-0.01,0-0.01,0c0,0,0,0,0-0.01
			c0.01-0.02,0.02-0.03,0.03-0.05c0.04-0.06,0.07-0.13,0.11-0.19c0.08-0.13,0.15-0.26,0.23-0.39c0.61-1.05,1.26-2.07,1.94-3.08
			c6.18-9.17,14.82-16.45,24.98-20.86c10.16-4.41,21.37-5.75,32.28-3.77c0-14.54,0-29.09,0-43.63c-21.29-4.69-43.13-6.4-64.89-5.09
			c0,16.05,0,32.1,0,48.15c0,7.29,0,14.58,0,21.87c0,0.73,0,1.47,0.01,2.2c0.1,8.06,0.74,16.02,1.92,23.99
			c4.69,31.7,17.88,62.25,38.63,86.89c-14.89-8.16-27.98-19.89-38.32-33.23c-10.36-13.36-18.43-28.94-22.87-45.32
			c-1.12-4.12-2-8.26-2.63-12.48c-0.3-2-0.54-4-0.72-6.01c-0.09-0.98-0.16-1.95-0.22-2.93c-0.03-0.48-0.05-0.96-0.08-1.44
			c-0.01-0.24-0.02-0.48-0.03-0.72c0-0.12-0.01-0.24-0.01-0.36c-0.01-0.42-0.01-0.84-0.01-1.26c0-8.51,0-17.03,0-25.54
			c0-17.03,0-34.05,0-51.08c-4.41,0.73-8.79,1.59-13.15,2.57c-2.18,0.49-4.35,1.01-6.52,1.56c-1.08,0.27-2.15,0.56-3.23,0.85
			c-0.27,0.07-0.54,0.15-0.81,0.22c-0.13,0.04-0.27,0.07-0.4,0.11c-0.07,0.02-0.13,0.04-0.2,0.06c-0.01,0-0.02,0-0.03,0.01
			c-0.01,0,0.01-0.01,0.02-0.01c0.01-0.01,0.03-0.02,0.04-0.03c0.03-0.02,0.06-0.04,0.08-0.06c0.45-0.34,0.9-0.68,1.35-1.02
			c7.16-5.35,14.81-10.02,22.84-13.95c0-1.81,0-3.62,0-5.43c0-0.55,0-1.11-0.03-1.66c-0.02-0.42-0.05-0.83-0.09-1.24
			c-0.08-0.84-0.2-1.67-0.36-2.49c-0.69-3.55-2.14-6.96-4.31-9.87c-2.17-2.91-5.02-5.27-8.38-6.7c-3.37-1.43-7.04-1.83-10.64-1.11
			c13.4-2.88,26.61-6.31,39.72-10.31c1.43-0.44,2.85-0.88,4.28-1.33c0.71-0.22,1.42-0.45,2.13-0.68c0.36-0.11,0.71-0.23,1.07-0.34
			c0.18-0.06,0.36-0.11,0.53-0.17c0.09-0.03,0.18-0.06,0.27-0.09c0.04-0.01,0.09-0.03,0.13-0.04c0,0,0.01,0,0.01,0
			c0.01,0,0,0.01,0,0.01c0,0.01,0,0.02,0,0.02c0,0.02,0,0.03,0,0.05c0,0.06,0,0.13,0,0.19c0,0.13,0,0.26,0,0.39
			c0,0.26,0,0.51,0,0.77c0,3.42,0,6.84,0,10.26c0,6.84,0,13.68,0,20.52c21.13-5.9,43.33-6.87,64.89-2.83c0-8.25,0-16.5,0-24.74
			c0-6.09-2.74-11.86-7.45-15.71c-4.72-3.85-10.92-5.38-16.88-4.16c12.42-5.31,24.57-11.12,36.5-17.45
			c11.93,6.33,24.08,12.14,36.5,17.45c-5.97-1.22-12.16,0.31-16.88,4.16s-7.45,9.62-7.45,15.71c0,10.2,0,20.4,0,30.6
			c21.29,4.69,43.13,6.4,64.89,5.09c0-7.52,0-15.03,0-22.55c0-3.76,0-7.52,0-11.27c0-1.23,0-2.46,0-3.69c0-0.62,0-1.23,0-1.85
			c0-0.31,0-0.62,0-0.92c0-0.01,0-0.02,0-0.03c0,0,0-0.01,0-0.01c0,0,0,0,0.01,0c0,0,0.01,0,0.01,0c0.01,0,0.01,0,0.02,0.01
			c0.01,0,0.03,0.01,0.04,0.01c0.21,0.07,0.43,0.14,0.64,0.21c0.43,0.14,0.85,0.27,1.28,0.41c0.85,0.27,1.7,0.54,2.56,0.81
			c14.37,4.52,28.86,8.35,43.59,11.51c-3.27-0.65-6.61-0.38-9.73,0.76c-3.12,1.14-5.86,3.08-8.06,5.55
			c-2.2,2.47-3.82,5.41-4.81,8.55c-0.5,1.58-0.84,3.18-1.03,4.83c-0.06,0.5-0.1,1.01-0.13,1.52
			C332.59,73.18,332.61,74.32,332.61,75.46z"/>
		<g>
			<path d="M22.24,329.15c0-7.51,0-15.03,0-22.54c0-1.88,0-3.76,0-5.64c0-1.04,0-2.08,0-3.12c0-0.12,0-0.23-0.01-0.35
				c-0.01-0.24-0.03-0.47-0.06-0.71c-0.07-0.48-0.18-0.95-0.33-1.41c-1.25-3.72-5.08-5.93-8.93-5.15c4.67-1.7,9.33-3.4,14-5.1
				c15.36,4.25,31.58,4.25,46.94,0c-11.9,9.14-27.09,12.85-41.87,10.24c-0.15,0.44-0.25,0.89-0.32,1.34
				c-0.03,0.22-0.06,0.45-0.07,0.68c-0.01,0.11-0.01,0.22-0.01,0.34c0,0.18,0,0.35,0,0.53c0,0.5,0,1,0,1.51c0,1.48,0,2.96,0,4.44
				c0,2.96,0,5.92,0,8.87c0,5.92,0,11.83,0,17.75c4.06,0.99,8.18,1.05,12.28,0.28c2.04-0.38,4-0.95,5.94-1.69
				c1.01-0.39,2-0.81,2.98-1.28c0.25-0.12,0.5-0.24,0.75-0.37c0.06-0.03,0.12-0.06,0.19-0.09c0.03-0.02,0.06-0.03,0.09-0.05
				c0,0,0.01,0,0.01-0.01c0,0,0,0,0,0.01c0,0.01-0.01,0.01-0.01,0.02c-0.01,0.01-0.01,0.02-0.02,0.04c-0.06,0.1-0.11,0.2-0.17,0.29
				c-0.23,0.39-0.48,0.78-0.74,1.16c-2.32,3.42-5.54,6.19-9.26,7.99c-3.73,1.79-7.9,2.57-12.03,2.12c0,6.6,0,13.2,0,19.8
				c0,0.74,0.01,1.48-0.01,2.22c-0.01,0.36-0.03,0.72-0.05,1.09c-0.05,0.73-0.11,1.45-0.21,2.18c-0.19,1.46-0.47,2.89-0.86,4.31
				c-0.43,1.61-0.98,3.16-1.66,4.69c-0.33,0.75-0.69,1.49-1.08,2.22c-0.19,0.36-0.39,0.72-0.6,1.07c-0.05,0.09-0.1,0.18-0.16,0.26
				c-0.01,0.02-0.03,0.04-0.04,0.07c0,0.01-0.01,0-0.01-0.01c0-0.01-0.01-0.01-0.01-0.02c-0.01-0.01-0.01-0.02-0.02-0.03
				c-0.03-0.04-0.05-0.09-0.08-0.13c-0.1-0.18-0.21-0.35-0.31-0.53c-1.63-2.88-2.81-5.98-3.51-9.22c-0.26-1.19-0.45-2.39-0.57-3.61
				c-0.06-0.6-0.1-1.21-0.13-1.81c-0.01-0.3-0.02-0.6-0.03-0.9c0-0.15,0-0.3,0-0.45c0-1.02,0-2.05,0-3.07c0-6.6,0-13.2,0-19.8
				c-3.94-1.34-8.02-1.72-12.14-1.13c-2.05,0.29-4.01,0.8-5.96,1.5c-1.01,0.36-1.99,0.77-2.96,1.23c-0.25,0.12-0.5,0.24-0.74,0.36
				c-0.12,0.06-0.25,0.12-0.37,0.19c-0.02,0.01-0.03,0.02-0.05,0.02c-0.01,0-0.02,0.02-0.02,0.01c0-0.01,0.01-0.01,0.01-0.02
				c0.01-0.02,0.03-0.05,0.04-0.07c0.03-0.05,0.06-0.1,0.08-0.15c0.23-0.39,0.47-0.77,0.72-1.15
				C5.56,331.37,13.88,327.64,22.24,329.15z"/>
			<path d="M81.81,339.37c-0.62,0.06-1.56,0.09-2.8,0.09c-5.54,0-8.76-1.38-9.67-4.15c-0.91-2.77-1.36-4.82-1.36-6.13
				c9.06-2.34,18.13-4.67,27.19-7.01c-0.44-0.78-0.87-1.56-1.31-2.34c-3.55-2.99-8.29-4.49-14.2-4.49c-2.49,0-5.46,0.37-8.92,1.12
				c-3.46,0.76-6.39,2.7-8.78,5.85c-2.41,3.16-3.6,6.47-3.6,9.96c0,2.12,0.47,4.02,1.4,5.7c0.93,1.68,2.34,2.9,4.21,3.64
				c1.99,0.87,3.81,1.48,5.47,1.81c1.64,0.34,3.41,0.52,5.27,0.52c4.92,0,9.5-1.37,13.74-4.11c1.37-1.25,2.74-2.49,4.11-3.74
				c-2.74,1.18-5.3,2.06-7.66,2.62C83.46,339.09,82.43,339.31,81.81,339.37z M68.69,324.74c0.21-0.75,0.51-1.53,0.88-2.35
				c0.87-1.87,1.99-2.91,3.36-3.09c1.06-0.12,2.12-0.25,3.18-0.37c1.93,0,3.64,0.56,5.14,1.68c1.5,1.12,2.24,2.06,2.24,2.8
				c-0.12,0.31-0.28,0.5-0.47,0.56c-5.01,1.26-10.02,2.52-15.04,3.78C68.24,326.5,68.47,325.5,68.69,324.74z"/>
			<path d="M108.82,344.78c0-5.48,0-10.95,0-16.43c0-1.81-0.46-3.06-1.36-3.78c-0.9-0.72-1.98-1.08-3.22-1.08
				c-0.87,0-2.09,0.22-3.64,0.65c-1.06,0.4-2.12,0.81-3.18,1.21c4.05-2.74,8.1-5.48,12.15-8.22c1.43-0.93,2.65-1.4,3.64-1.4
				c1.37,0,2.21,0.62,2.52,1.87c0.5,1.31,0.75,2.52,0.75,3.64c2.93-1.68,5.21-2.81,6.87-3.41c1.65-0.59,3.22-0.89,4.71-0.89
				c1.06,0,2.58,0.5,4.53,1.5c1.96,1,3.28,1.5,3.98,1.5c0.75,0,1.84-0.31,3.27-0.93c1.31-0.69,2.8-1.62,4.49-2.8
				c-1.37,2.43-3.01,4.83-4.91,7.2s-4.63,3.55-8.18,3.55c-1.56,0-3.26-0.44-5.1-1.31c-1.84-0.87-3.29-1.81-4.34-2.8
				c-0.56-0.56-0.97-0.91-1.21-1.08c-0.25-0.16-0.5-0.3-0.75-0.42c-0.75,0-1.5,0.37-2.24,1.12c-0.75,0.75-1.12,1.4-1.12,1.96
				c0,4.98,0,9.95,0,14.93C113.92,341.17,111.37,342.98,108.82,344.78z"/>
			<path d="M148.71,342.92c0.69-1.74,1.15-3.3,1.4-4.67c0.12-1.37,0.25-2.74,0.37-4.11c0-2.55-0.56-4.95-1.68-7.19
				c-1.15-1.53-2.31-3.05-3.46-4.58c1.87-1.87,3.74-3.73,5.61-5.6c0.31-0.31,0.78-0.53,1.4-0.65c1.12,0,2.16,0.67,3.13,2.01
				c0.97,1.34,1.82,2.75,2.58,4.25c3.24-2.43,6.32-4.25,9.25-5.46c2.93-1.21,5.33-1.83,7.2-1.83c2.99,0,5.11,0.72,6.35,2.15
				c1.18,1.18,2.18,2.59,2.99,4.21c1.62-0.93,3.21-1.77,4.77-2.47c1.56-0.72,3.24-1.42,5.05-2.11c3.43-1.18,6.48-1.78,9.16-1.78
				c2.06,0,3.8,0.34,5.23,1.03c1.43,0.69,2.52,1.77,3.27,3.23s1.25,2.79,1.5,3.97c0.12,1.12,0.25,2.24,0.37,3.36
				c0,3.74-1.42,7.03-4.25,9.86c-2.83,2.83-6.34,4.71-10.52,5.65c1.12-1.06,2.27-2.55,3.46-4.49c1.18-1.93,1.78-3.77,1.78-5.51
				c-0.09-0.75-0.19-1.5-0.28-2.24c-0.06-0.62-0.56-1.81-1.5-3.55c-0.75-1.68-1.99-3.02-3.74-4.02c-1.62-1.06-3.4-1.59-5.33-1.59
				c-1.93,0-3.52,0.31-4.77,0.93c-1.25,0.5-2.4,1.15-3.46,1.96c0.31,1.09,0.62,2.18,0.93,3.27c0.12,1.03,0.25,2.06,0.37,3.08
				c0,1.31-0.04,2.24-0.14,2.8c-0.09,0.56-0.31,1.33-0.65,2.29c-0.34,0.97-0.67,1.64-0.99,2.01c-3.49,1.92-6.98,3.85-10.47,5.77
				c0.47-1.12,0.93-2.24,1.4-3.36c0.44-1.56,0.65-3.24,0.65-5.05c0-1.5-0.18-3-0.52-4.54c-0.34-1.53-0.99-3.06-1.91-4.63
				c-0.87-1.68-1.9-2.9-3.08-3.64c-1.18-0.75-2.43-1.12-3.74-1.12c-1.68,0-3.18,0.37-4.49,1.12c-1.12,0.78-2.24,1.56-3.36,2.34
				c0.44,0.87,0.84,1.92,1.21,3.14c0.37,1.21,0.56,2.42,0.56,3.59c0,0.69,0,1.37,0,2.06c-0.19,0.81-0.31,1.4-0.37,1.78
				c-0.28,0.9-0.56,1.81-0.84,2.71C155.69,339.18,152.2,341.05,148.71,342.92z"/>
			<path d="M239.92,339.38c-0.62,0.06-1.56,0.09-2.8,0.09c-5.56,0-8.77-1.38-9.68-4.15c-0.9-2.77-1.35-4.82-1.35-6.13
				c9.06-2.34,18.13-4.68,27.19-7.02c-0.44-0.78-0.87-1.56-1.31-2.34c-3.55-2.99-8.29-4.49-14.2-4.49c-2.49,0-5.47,0.37-8.93,1.12
				c-3.46,0.76-6.39,2.7-8.78,5.85c-2.4,3.16-3.59,6.47-3.59,9.96c0,2.12,0.47,4.02,1.4,5.7c0.93,1.68,2.34,2.9,4.21,3.64
				c1.99,0.87,3.82,1.48,5.47,1.82c1.64,0.34,3.41,0.52,5.27,0.52c4.92,0,9.5-1.37,13.74-4.11c1.37-1.25,2.74-2.49,4.11-3.74
				c-2.74,1.18-5.3,2.06-7.66,2.62C241.57,339.1,240.54,339.32,239.92,339.38z M226.8,324.74c0.21-0.75,0.51-1.53,0.88-2.35
				c0.87-1.87,1.99-2.91,3.36-3.09c1.06-0.12,2.12-0.25,3.18-0.37c1.93,0,3.64,0.56,5.14,1.68c1.5,1.12,2.24,2.06,2.24,2.8
				c-0.12,0.31-0.28,0.5-0.47,0.56c-5.01,1.26-10.02,2.52-15.04,3.78C226.35,326.5,226.59,325.5,226.8,324.74z"/>
			<path d="M258.89,342.92c0.69-1.74,1.15-3.3,1.4-4.67c0.12-1.37,0.25-2.74,0.37-4.11c0-3.43-0.81-6.26-2.43-8.49
				c-0.5-0.69-1.15-1.5-1.96-2.43c-0.19-0.19-0.44-0.47-0.75-0.84c2.24-1.87,4.49-3.73,6.73-5.6c0.25-0.19,0.62-0.34,1.12-0.47
				c1.06,0,1.99,0.58,2.8,1.73c0.81,1.15,1.28,1.84,1.4,2.06c0.12,0.22,0.44,0.86,0.93,1.92c2.87-2.18,6.08-3.96,9.68-5.33
				c3.58-1.37,6.74-2.06,9.48-2.06c1.18,0,2.25,0.09,3.23,0.28c0.97,0.19,1.88,0.53,2.75,1.03c1.62,0.69,2.9,2.06,3.83,4.11
				c0.93,2.06,1.4,4.3,1.4,6.73c0,3.92-1.33,7.32-3.98,10.19c-2.65,2.87-6.06,4.61-10.23,5.23c0.96-0.81,1.97-2.16,3.05-4.06
				c1.08-1.9,1.62-3.81,1.62-5.75c0-0.87,0-1.56,0-2.06c0-0.69-0.5-1.93-1.5-3.74c-0.81-1.81-2.12-3.21-3.92-4.21
				c-1.81-1-3.68-1.5-5.61-1.5c-2.06,0-3.76,0.28-5.1,0.84c-1.34,0.56-2.66,1.25-3.97,2.06c0.5,1,0.87,2.09,1.12,3.27
				c0.12,1.03,0.25,2.06,0.37,3.08c0,1.62-0.16,2.89-0.47,3.78c-0.31,0.9-0.65,1.67-1.03,2.29
				C265.81,338.45,262.35,340.68,258.89,342.92z"/>
			<path d="M310.29,339.38c-0.69-1-1.21-2.09-1.59-3.27c-0.19-0.87-0.31-1.44-0.37-1.72c-0.06-0.28-0.09-0.8-0.09-1.55
				c0-3.86,1.5-7.08,4.49-9.67c2.99-2.59,6.07-4.75,9.25-6.49c-1.12-0.25-2.24-0.5-3.36-0.75c-1.31-0.25-2.52-0.39-3.64-0.42
				c-1.12-0.03-1.99-0.04-2.62-0.04c-1.68,0.09-3.36,0.19-5.05,0.28c-1.06,0.12-1.82,0.25-2.29,0.37c-0.47,0.12-1.33,0.44-2.56,0.93
				c1.27-0.97,2.54-1.93,3.81-2.9c3.72-2.18,7.95-3.58,12.73-4.21c0.87-0.12,3.7,0.08,8.46,0.6c4.77,0.53,8.39,0.8,10.88,0.8
				c0.65,0,1.31,0,1.96,0c0.62,0,1.25,0,1.87,0c0.5-0.12,0.84-0.19,1.03-0.19c1,0,2.49-0.28,4.49-0.84
				c-2.06,1.5-4.55,3.01-7.48,4.54c-2.93,1.53-6.39,2.29-10.37,2.29c-1.15-0.09-2.31-0.19-3.46-0.28c-1.31-0.19-3.1,0.91-5.37,3.32
				c-2.27,2.4-3.42,5.18-3.42,8.36c0,1.74,0.39,3.44,1.17,5.09c0.78,1.65,1.94,2.86,3.47,3.59c1.54,0.75,3.33,1.12,5.4,1.12
				c2.13,0,4.88-0.47,8.25-1.4s5.19-1.56,5.44-1.87c-2.12,2.31-5.25,4.29-9.4,5.93c-4.14,1.65-8.12,2.48-11.91,2.48
				c-2.24,0-4.17-0.34-5.79-1.03C312.53,341.91,311.23,340.88,310.29,339.38z"/>
			<path d="M350.19,335.4c0-3.29,0-6.58,0-9.87c0-1.06-0.27-2.04-0.8-2.93c-0.53-0.9-1.33-1.35-2.38-1.35
				c-0.31,0.06-0.62,0.12-0.93,0.19c1.06-0.87,2.12-1.74,3.18-2.61c2.62-1.86,4.7-2.79,6.26-2.79c1.56,0,2.34,1,2.34,2.99
				c0,3.61,0,7.23,0,10.84c0,1.81,0.56,3.43,1.68,4.86c1.12,1.25,2.68,1.87,4.67,1.87c2.62,0,4.75-0.3,6.41-0.89
				c1.65-0.59,2.71-0.99,3.18-1.17c0.47-0.19,1.26-0.56,2.38-1.12c0-3.74,0-7.48,0-11.21c0-1.12-0.04-1.81-0.14-2.06
				c-0.09-0.25-0.64-0.4-1.64-0.47c-0.53,0.06-1.06,0.12-1.59,0.19c1.37-0.9,2.74-1.81,4.11-2.71c1.5-0.93,2.93-1.4,4.3-1.4
				c1.74,0,2.62,1.09,2.62,3.27c0,3.74,0,7.48,0,11.21c0,2.18,0.47,3.83,1.4,4.95c0.93,0.93,2.21,1.4,3.83,1.4
				c1.25,0,2.18-0.11,2.8-0.33c0.62-0.22,1.1-0.38,1.45-0.51c0.34-0.12,0.79-0.34,1.35-0.65c-2.87,2.31-5.44,3.99-7.7,5.05
				c-2.27,1.06-4.1,1.59-5.47,1.59c-1.43,0-2.71-0.6-3.83-1.8c-1-1.33-1.5-2.94-1.5-4.84c-2.49,0.9-4.98,1.81-7.48,2.71
				c-5.79,2.43-9.59,3.74-11.4,3.92c-1.93,0-3.59-0.6-5-1.82C350.9,338.7,350.19,337.19,350.19,335.4z"/>
			<path d="M397.95,342.92c0.69-1.74,1.15-3.3,1.4-4.67c0.12-1.37,0.25-2.74,0.37-4.11c0-2.55-0.56-4.95-1.68-7.19
				c-1.15-1.53-2.31-3.05-3.46-4.58c1.87-1.87,3.74-3.73,5.61-5.6c0.31-0.31,0.78-0.53,1.4-0.65c1.12,0,2.16,0.67,3.13,2.01
				s1.82,2.75,2.58,4.25c3.24-2.43,6.32-4.25,9.25-5.46c2.93-1.21,5.33-1.83,7.2-1.83c2.99,0,5.11,0.72,6.35,2.15
				c1.18,1.18,2.18,2.59,2.99,4.21c1.62-0.93,3.21-1.77,4.77-2.47c1.56-0.72,3.24-1.42,5.05-2.11c3.43-1.18,6.48-1.78,9.16-1.78
				c2.06,0,3.8,0.34,5.23,1.03c1.43,0.69,2.52,1.77,3.27,3.23c0.75,1.46,1.25,2.79,1.5,3.97c0.12,1.12,0.25,2.24,0.37,3.36
				c0,3.74-1.42,7.03-4.25,9.86c-2.83,2.83-6.34,4.71-10.52,5.65c1.12-1.06,2.27-2.55,3.46-4.49c1.18-1.93,1.78-3.77,1.78-5.51
				c-0.09-0.75-0.19-1.5-0.28-2.24c-0.06-0.62-0.56-1.81-1.5-3.55c-0.75-1.68-1.99-3.02-3.74-4.02c-1.62-1.06-3.4-1.59-5.33-1.59
				c-1.93,0-3.52,0.31-4.77,0.93c-1.25,0.5-2.4,1.15-3.46,1.96c0.31,1.09,0.62,2.18,0.93,3.27c0.12,1.03,0.25,2.06,0.37,3.08
				c0,1.31-0.04,2.24-0.13,2.8c-0.09,0.56-0.31,1.33-0.65,2.29c-0.34,0.97-0.67,1.64-0.99,2.01c-3.49,1.92-6.98,3.85-10.47,5.77
				c0.47-1.12,0.93-2.24,1.4-3.36c0.44-1.56,0.65-3.24,0.65-5.05c0-1.5-0.18-3-0.52-4.54c-0.34-1.53-0.99-3.06-1.91-4.63
				c-0.87-1.68-1.9-2.9-3.08-3.64c-1.18-0.75-2.43-1.12-3.74-1.12c-1.68,0-3.18,0.37-4.49,1.12c-1.12,0.78-2.24,1.56-3.36,2.34
				c0.44,0.87,0.84,1.92,1.21,3.14c0.37,1.21,0.56,2.42,0.56,3.59c0,0.69,0,1.37,0,2.06c-0.19,0.81-0.31,1.4-0.37,1.78
				c-0.28,0.9-0.56,1.81-0.84,2.71C404.93,339.18,401.44,341.05,397.95,342.92z"/>
		</g>
	</g>
</g>
</svg>
