<?xml version="1.0" encoding="utf-8"?>
<!-- Generator: Adobe Illustrator 25.4.1, SVG Export Plug-In . SVG Version: 6.00 Build 0)  -->
<svg version="1.1" id="Logo" xmlns="http://www.w3.org/2000/svg" xmlns:xlink="http://www.w3.org/1999/xlink" x="0px" y="0px"
	 viewBox="0 0 100 100" style="enable-background:new 0 0 100 100;" xml:space="preserve">
<style type="text/css">
	.st0{fill:#FFFFFF;}
</style>
<g>
	<circle cx="50" cy="50" r="50"/>
	<path class="st0" d="M73,36c1.9-0.3,3.7-0.7,5.5-1.2c-1.7,1.3-3.6,2.5-5.5,3.4c0,3.9,0,7.9,0,11.8c0,2,0,3.9,0,5.9
		c0,0.2,0,0.4,0,0.7c0,0,0,0.1,0,0.1c0,0,0,0,0,0c0,0,0,0.1,0,0.1c0,0.1,0,0.1,0,0.2c0,0.1,0,0.2,0,0.3c0,0.2,0,0.4,0,0.6
		c0,0.4-0.1,0.8-0.1,1.3c-0.1,0.9-0.3,1.7-0.5,2.6c-1,3.8-2.8,7.4-5.2,10.5c-2.4,3.1-5.4,5.8-8.8,7.7c4.5-5.3,7.4-11.9,8.6-18.8
		c0.3-1.7,0.5-3.4,0.5-5.2c0-0.3,0-0.7,0-1c0-0.2,0-0.3,0-0.5c0-0.4,0-0.8,0-1.2c0-0.8,0-1.7,0-2.5c0-3.5,0-7,0-10.4
		c-4.8,1.3-9.8,1.6-14.7,0.6c0,3.2,0,6.4,0,9.6c2.5,0.6,5,0.6,7.4,0.2c1.2-0.2,2.4-0.6,3.6-1c0.6-0.2,1.2-0.5,1.8-0.8
		c0.2-0.1,0.3-0.1,0.5-0.2c0,0,0.1,0,0.1-0.1c0,0,0,0,0.1,0c0,0,0,0,0,0c0,0,0,0,0,0c0,0,0,0,0,0c0,0,0,0,0,0c0,0.1-0.1,0.1-0.1,0.2
		c-0.1,0.2-0.3,0.5-0.4,0.7c-1.4,2.1-3.4,3.8-5.6,4.8c-2.3,1.1-4.8,1.6-7.3,1.3c0,3,0,5.9,0,8.9c0,3.5-1,6.9-2.8,9.9
		c-1.8-3-2.8-6.4-2.8-9.9c0-3.3,0-6.6,0-9.9c-2.4-0.8-4.9-1-7.4-0.7c-1.2,0.2-2.4,0.5-3.6,0.9c-0.6,0.2-1.2,0.5-1.8,0.7
		c-0.2,0.1-0.3,0.1-0.5,0.2c-0.1,0-0.2,0.1-0.2,0.1c0,0,0,0,0,0c0,0,0,0,0,0c0,0,0,0,0,0c0,0,0,0,0,0c0,0,0,0,0,0c0,0,0,0,0,0
		c0,0,0,0,0,0c0,0,0-0.1,0.1-0.1c0.1-0.2,0.3-0.5,0.4-0.7c1.4-2.1,3.4-3.7,5.7-4.7c2.3-1,4.8-1.3,7.3-0.9c0-3.3,0-6.6,0-9.9
		c-4.8-1.1-9.8-1.4-14.7-1.2c0,3.6,0,7.3,0,10.9c0,1.7,0,3.3,0,4.9c0,0.2,0,0.3,0,0.5c0,1.8,0.2,3.6,0.4,5.4
		c1.1,7.2,4,14.1,8.7,19.7c-3.4-1.8-6.3-4.5-8.7-7.5c-2.3-3-4.2-6.6-5.2-10.3c-0.3-0.9-0.5-1.9-0.6-2.8c-0.1-0.5-0.1-0.9-0.2-1.4
		c0-0.2,0-0.4-0.1-0.7c0-0.1,0-0.2,0-0.3c0-0.1,0-0.1,0-0.2c0,0,0-0.1,0-0.1c0-0.1,0-0.2,0-0.3c0-1.9,0-3.9,0-5.8
		c0-3.9,0-7.7,0-11.6c-1,0.2-2,0.4-3,0.6c-0.5,0.1-1,0.2-1.5,0.4c-0.2,0.1-0.5,0.1-0.7,0.2c-0.1,0-0.1,0-0.2,0c0,0-0.1,0-0.1,0
		c0,0,0,0,0,0c0,0,0,0,0,0c0,0,0,0,0,0c0,0,0,0,0,0c0,0,0,0,0,0c0.1-0.1,0.2-0.2,0.3-0.2c1.6-1.2,3.4-2.3,5.2-3.2c0-0.4,0-0.8,0-1.2
		c0-0.1,0-0.2,0-0.4c0-0.1,0-0.2,0-0.3c0-0.2,0-0.4-0.1-0.6c-0.2-0.8-0.5-1.6-1-2.2c-0.5-0.7-1.1-1.2-1.9-1.5
		c-0.8-0.3-1.6-0.4-2.4-0.3c3-0.7,6-1.4,9-2.3c0.3-0.1,0.6-0.2,1-0.3c0.2-0.1,0.3-0.1,0.5-0.2c0.1,0,0.2-0.1,0.2-0.1
		c0,0,0.1,0,0.1,0c0,0,0,0,0.1,0c0,0,0,0,0,0h0c0,0,0,0,0,0c0,0,0,0,0,0c0,0,0,0,0,0c0,0,0,0,0,0c0,0,0,0.1,0,0.1c0,0.1,0,0.1,0,0.2
		c0,0.8,0,1.5,0,2.3c0,1.5,0,3.1,0,4.6c4.8-1.3,9.8-1.6,14.7-0.6c0-1.9,0-3.7,0-5.6c0-1.4-0.6-2.7-1.7-3.6c-1.1-0.9-2.5-1.2-3.8-0.9
		c2.8-1.2,5.6-2.5,8.3-3.9c2.7,1.4,5.5,2.7,8.3,3.9c-1.4-0.3-2.8,0.1-3.8,0.9c-1.1,0.9-1.7,2.2-1.7,3.6c0,2.3,0,4.6,0,6.9
		c4.8,1.1,9.8,1.4,14.7,1.2c0-1.7,0-3.4,0-5.1c0-0.9,0-1.7,0-2.6c0-0.3,0-0.6,0-0.8c0-0.1,0-0.3,0-0.4c0-0.1,0-0.1,0-0.2
		c0,0,0,0,0,0v0c0,0,0,0,0,0h0c0,0,0,0,0,0c0,0,0,0,0,0c0,0,0.1,0,0.1,0c0.1,0,0.2,0.1,0.3,0.1c0.2,0.1,0.4,0.1,0.6,0.2
		c3.3,1,6.5,1.9,9.9,2.6c-0.7-0.1-1.5-0.1-2.2,0.2c-0.7,0.3-1.3,0.7-1.8,1.3c-0.5,0.6-0.9,1.2-1.1,1.9c-0.1,0.4-0.2,0.7-0.2,1.1
		c0,0.1,0,0.2,0,0.3C72.9,35.5,73,35.7,73,36z"/>
</g>
</svg>
