<svg xmlns="http://www.w3.org/2000/svg" viewBox="0 0 575.29 106.06"><defs><style>.cls-1{fill:#f5f5f5;}</style></defs><g id="Capa_2" data-name="Capa 2"><g id="Default"><path class="cls-1" d="M169.83,104.93a3.89,3.89,0,0,1-1.6-2.19l-.53-1.38h-5.94l-1.7,4h-1l6-14h.64l4.67,11.36a5.19,5.19,0,0,0,1,1.68,2.12,2.12,0,0,0,1.33.55v.42a3.13,3.13,0,0,1-.85.11A4,4,0,0,1,169.83,104.93Zm-7.75-4.42h5.2l-2.55-6.16Z"/><path class="cls-1" d="M178.86,105.07a6.21,6.21,0,0,1-1.3-1.69l-1.49-2.52h-1v4.53H173.7v-8a2.32,2.32,0,0,0-.21-1.12.88.88,0,0,0-.83-.36h-.3v-.3h3.86a5.87,5.87,0,0,1,2.57.56,2.14,2.14,0,0,1,1.15,2.12c0,1.31-.79,2.16-2.38,2.52l1.56,2.6a5.15,5.15,0,0,0,1,1.29,1.86,1.86,0,0,0,1,.42v.3a1.85,1.85,0,0,1-.38.1,2.84,2.84,0,0,1-.51.05A2.16,2.16,0,0,1,178.86,105.07Zm-1.71-5a2.31,2.31,0,0,0,.92-.69,1.78,1.78,0,0,0,.38-1.16,1.89,1.89,0,0,0-.38-1.22,2.27,2.27,0,0,0-.92-.71,2.62,2.62,0,0,0-1-.23,4.61,4.61,0,0,0-1.12.15v3.94a4.61,4.61,0,0,0,1.12.15A2.62,2.62,0,0,0,177.15,100.11Z"/><path class="cls-1" d="M184.77,96.18h-1.34c-1.24,0-1.86.57-1.86,1.7h-.29V96.77c0-.79.42-1.19,1.26-1.19h6.91v.6h-3.34v9.21h-1.34Z"/><path class="cls-1" d="M191.21,97.36a2.32,2.32,0,0,0-.21-1.12.89.89,0,0,0-.84-.36h-.29v-.3h6.33c.84,0,1.26.4,1.26,1.19v1.11h-.3c0-1.13-.61-1.7-1.85-1.7h-2.77V100h4v.59h-4v4.17h2.6a3,3,0,0,0,1.61-.38,2.42,2.42,0,0,0,.92-1.26l.3.08-.52,1.41a1.08,1.08,0,0,1-1.12.74h-5.12Z"/><path class="cls-1" d="M201,105.42a3.42,3.42,0,0,1-1.28-.64,1.22,1.22,0,0,1-.5-1v-1.59h.27a3.63,3.63,0,0,0,1,2.15,2.88,2.88,0,0,0,2,.66,2.31,2.31,0,0,0,1.37-.4,1.29,1.29,0,0,0,.57-1.12,1.67,1.67,0,0,0-.38-1.08,5,5,0,0,0-1.25-1l-1.83-1.08a4.17,4.17,0,0,1-1.34-1.15,2.37,2.37,0,0,1-.4-1.41A2.34,2.34,0,0,1,200,96a3.05,3.05,0,0,1,2.08-.69,5.57,5.57,0,0,1,1.51.22,3.26,3.26,0,0,1,1.22.62,1.24,1.24,0,0,1,.49.95v1.59H205a3.72,3.72,0,0,0-1-2.14,2.83,2.83,0,0,0-2-.64,1.92,1.92,0,0,0-1.2.41,1.32,1.32,0,0,0-.52,1.09,1.44,1.44,0,0,0,.38,1,6.28,6.28,0,0,0,1.27.94l1.83,1.08a5.61,5.61,0,0,1,1.43,1.13,2.1,2.1,0,0,1,.41,1.32,2.57,2.57,0,0,1-.83,2,3.26,3.26,0,0,1-2.26.75A5.84,5.84,0,0,1,201,105.42Z"/><path class="cls-1" d="M214.15,105.07a2.79,2.79,0,0,1-1.11-1.54l-.37-1h-4.16l-1.19,2.82h-.67l4.16-9.81h.44l3.27,8a4,4,0,0,0,.7,1.18,1.48,1.48,0,0,0,.94.38v.3a2.22,2.22,0,0,1-.59.07A2.9,2.9,0,0,1,214.15,105.07Zm-5.42-3.1h3.64l-1.78-4.31Z"/><path class="cls-1" d="M218,97.59v7.8h-.6v-8a1.78,1.78,0,0,0-.3-1.1,1.26,1.26,0,0,0-1-.38h-.15v-.3h1a2.67,2.67,0,0,1,1.16.22,2.57,2.57,0,0,1,.85.67l5.2,6.47V95.58h.6v10h-.3Z"/><path class="cls-1" d="M228.8,105a4.46,4.46,0,0,1-1.61-1.87,6.42,6.42,0,0,1,0-5.29A4.46,4.46,0,0,1,228.8,96a4.62,4.62,0,0,1,4.86,0,4.39,4.39,0,0,1,1.61,1.87,6.42,6.42,0,0,1,0,5.29,4.39,4.39,0,0,1-1.61,1.87,4.62,4.62,0,0,1-4.86,0Zm4.1-.47a3.55,3.55,0,0,0,1.08-1.6A8.26,8.26,0,0,0,234,98a3.55,3.55,0,0,0-1.08-1.6,2.77,2.77,0,0,0-3.34,0,3.55,3.55,0,0,0-1.08,1.6,8.26,8.26,0,0,0,0,4.89,3.55,3.55,0,0,0,1.08,1.6,2.77,2.77,0,0,0,3.34,0Z"/><path class="cls-1" d="M239.11,105.42a3.39,3.39,0,0,1-1.29-.64,1.21,1.21,0,0,1-.49-1v-1.59h.26a3.7,3.7,0,0,0,1,2.15,2.9,2.9,0,0,0,2,.66,2.34,2.34,0,0,0,1.38-.4,1.29,1.29,0,0,0,.57-1.12,1.63,1.63,0,0,0-.39-1.08,4.79,4.79,0,0,0-1.25-1l-1.83-1.08a4.17,4.17,0,0,1-1.34-1.15,2.44,2.44,0,0,1-.39-1.41,2.33,2.33,0,0,1,.79-1.84,3.08,3.08,0,0,1,2.09-.69,5.56,5.56,0,0,1,1.5.22,3.31,3.31,0,0,1,1.23.62,1.23,1.23,0,0,1,.48.95v1.59h-.27a3.72,3.72,0,0,0-1-2.14,2.83,2.83,0,0,0-2-.64,1.88,1.88,0,0,0-1.2.41,1.33,1.33,0,0,0-.53,1.09,1.44,1.44,0,0,0,.38,1,6.58,6.58,0,0,0,1.27.94l1.83,1.08a5.44,5.44,0,0,1,1.43,1.13,2,2,0,0,1,.42,1.32,2.54,2.54,0,0,1-.84,2,3.23,3.23,0,0,1-2.26.75A5.77,5.77,0,0,1,239.11,105.42Z"/><path class="cls-1" d="M252,93.92a3.45,3.45,0,0,0-.29-1.6,1.25,1.25,0,0,0-1.19-.52h-.43v-.42h5.57c2.74,0,4.82.6,6.23,1.82A6.38,6.38,0,0,1,264,98.3a7.5,7.5,0,0,1-.89,3.7,6.2,6.2,0,0,1-2.64,2.5,9.38,9.38,0,0,1-4.26.89H252Zm7,10a5.37,5.37,0,0,0,2-2.18,7.83,7.83,0,0,0,0-6.58,5.29,5.29,0,0,0-4.87-3,7,7,0,0,0-2.12.34v11.91a9.28,9.28,0,0,0,2.16.28A5.29,5.29,0,0,0,259,103.87Z"/><path class="cls-1" d="M266.51,97.36a2.32,2.32,0,0,0-.21-1.12.87.87,0,0,0-.83-.36h-.3v-.3h6.33c.85,0,1.27.4,1.27,1.19v1.11h-.3c0-1.13-.62-1.7-1.86-1.7h-2.76V100h4v.59h-4v4.17h2.6a2.91,2.91,0,0,0,1.6-.38,2.43,2.43,0,0,0,.93-1.26l.29.08-.52,1.41a1.07,1.07,0,0,1-1.11.74h-5.13Z"/><path class="cls-1" d="M281.26,93.92a3.45,3.45,0,0,0-.29-1.6,1.25,1.25,0,0,0-1.19-.52h-.43v-.42h1.91a2.58,2.58,0,0,1,1.18.2,1.16,1.16,0,0,1,.56.73,5.4,5.4,0,0,1,.17,1.61v10.62h7.54v.85h-9.45Z"/><path class="cls-1" d="M298.69,105.07a2.79,2.79,0,0,1-1.11-1.54l-.37-1H293l-1.18,2.82h-.67l4.16-9.81h.45l3.26,8a4,4,0,0,0,.7,1.18,1.48,1.48,0,0,0,.94.38v.3a2.25,2.25,0,0,1-.6.07A2.89,2.89,0,0,1,298.69,105.07Zm-5.42-3.1h3.64l-1.78-4.31Z"/><path class="cls-1" d="M307.86,93.92a3.31,3.31,0,0,0-.3-1.6,1.25,1.25,0,0,0-1.19-.52H306v-.42h8.47c1.2,0,1.8.56,1.8,1.7v1.59h-.42c0-1.63-.89-2.45-2.66-2.45h-3.37v5.63h4.8v.85h-4.8v6.69h-1.91Z"/><path class="cls-1" d="M318.37,97.36a2.32,2.32,0,0,0-.21-1.12.86.86,0,0,0-.83-.36H317v-.3h6.33c.84,0,1.26.4,1.26,1.19v1.11h-.3c0-1.13-.62-1.7-1.85-1.7h-2.77V100h4v.59h-4v4.17h2.6a3,3,0,0,0,1.61-.38,2.47,2.47,0,0,0,.92-1.26l.29.08-.52,1.41a1.07,1.07,0,0,1-1.11.74h-5.13Z"/><path class="cls-1" d="M332.31,105.07a6,6,0,0,1-1.3-1.69l-1.49-2.52h-1v4.53h-1.34v-8a2.32,2.32,0,0,0-.21-1.12.86.86,0,0,0-.83-.36h-.3v-.3h3.87a5.83,5.83,0,0,1,2.56.56,2.13,2.13,0,0,1,1.15,2.12c0,1.31-.79,2.16-2.37,2.52l1.56,2.6a4.93,4.93,0,0,0,1,1.29,1.92,1.92,0,0,0,1,.42v.3a1.68,1.68,0,0,1-.38.1,2.76,2.76,0,0,1-.51.05A2.15,2.15,0,0,1,332.31,105.07Zm-1.71-5a2.31,2.31,0,0,0,.92-.69,1.84,1.84,0,0,0,.38-1.16,2,2,0,0,0-.38-1.22,2.27,2.27,0,0,0-.92-.71,2.66,2.66,0,0,0-1-.23,4.6,4.6,0,0,0-1.11.15v3.94a4.6,4.6,0,0,0,1.11.15A2.66,2.66,0,0,0,330.6,100.11Z"/><path class="cls-1" d="M345.25,105.73a1.79,1.79,0,0,1-.84-1,5.46,5.46,0,0,1-.25-1.85V97.14l-3.72,8.25h-.29L336.28,97v8.4h-.59V95.58h1.41l3.57,7.73,3.49-7.73h1.34v7.28a5.09,5.09,0,0,0,.35,2.14,1.12,1.12,0,0,0,1.06.76v.3A3.44,3.44,0,0,1,345.25,105.73Z"/><path class="cls-1" d="M348.6,97.36a2.32,2.32,0,0,0-.21-1.12.86.86,0,0,0-.83-.36h-.29v-.3h6.33c.84,0,1.26.4,1.26,1.19v1.11h-.3c0-1.13-.62-1.7-1.85-1.7h-2.77V100h4v.59h-4v4.17h2.6a3,3,0,0,0,1.61-.38,2.47,2.47,0,0,0,.92-1.26l.3.08-.52,1.41a1.08,1.08,0,0,1-1.12.74H348.6Z"/><path class="cls-1" d="M358,97.59v7.8h-.6v-8a1.78,1.78,0,0,0-.3-1.1,1.28,1.28,0,0,0-1-.38H356v-.3h1a2.7,2.7,0,0,1,1.16.22,2.57,2.57,0,0,1,.85.67l5.2,6.47V95.58h.6v10h-.3Z"/><path class="cls-1" d="M369.78,96.18h-1.33c-1.24,0-1.86.57-1.86,1.7h-.3V96.77c0-.79.42-1.19,1.26-1.19h6.92v.6h-3.35v9.21h-1.34Z"/><path class="cls-1" d="M381.39,105.07a2.79,2.79,0,0,1-1.11-1.54l-.37-1h-4.17l-1.18,2.82h-.67l4.16-9.81h.45l3.27,8a3.77,3.77,0,0,0,.69,1.18,1.48,1.48,0,0,0,.94.38v.3a2.22,2.22,0,0,1-.59.07A2.9,2.9,0,0,1,381.39,105.07ZM376,102h3.64l-1.78-4.31Z"/><path class="cls-1" d="M385.62,105A4.37,4.37,0,0,1,384,103.2a5.74,5.74,0,0,1-.57-2.57,6,6,0,0,1,.62-2.69A4.9,4.9,0,0,1,385.74,96a4,4,0,0,1,2.31-.72,5.84,5.84,0,0,1,2.09.34,3,3,0,0,1,1.33.85,1.59,1.59,0,0,1,.31.83,12.7,12.7,0,0,1,.06,1.4h-.3a3.69,3.69,0,0,0-1-2.13,2.84,2.84,0,0,0-2-.69A3.25,3.25,0,0,0,385.91,97a5.48,5.48,0,0,0-1,3.62,6.22,6.22,0,0,0,.38,2.19,3.71,3.71,0,0,0,1.18,1.64,3.16,3.16,0,0,0,2,.63,3.39,3.39,0,0,0,1.89-.52,4.59,4.59,0,0,0,1.45-1.56l.3.23a4.33,4.33,0,0,1-1.69,1.89,4.89,4.89,0,0,1-2.4.56A4.48,4.48,0,0,1,385.62,105Z"/><path class="cls-1" d="M394.51,105.25a.85.85,0,0,1-.4-.51,4.48,4.48,0,0,1-.11-1.13v-8h1.33v8a2.32,2.32,0,0,0,.21,1.12.88.88,0,0,0,.83.36h.3v.3h-1.34A1.92,1.92,0,0,1,394.51,105.25Z"/><path class="cls-1" d="M399.67,105a4.48,4.48,0,0,1-1.62-1.87,6.53,6.53,0,0,1,0-5.29A4.48,4.48,0,0,1,399.67,96a4.62,4.62,0,0,1,4.86,0,4.46,4.46,0,0,1,1.61,1.87,6.53,6.53,0,0,1,0,5.29,4.46,4.46,0,0,1-1.61,1.87,4.62,4.62,0,0,1-4.86,0Zm4.1-.47a3.55,3.55,0,0,0,1.08-1.6,8.26,8.26,0,0,0,0-4.89,3.55,3.55,0,0,0-1.08-1.6,2.63,2.63,0,0,0-1.67-.56,2.66,2.66,0,0,0-1.68.56,3.46,3.46,0,0,0-1.07,1.6,8.26,8.26,0,0,0,0,4.89,3.46,3.46,0,0,0,1.07,1.6,2.66,2.66,0,0,0,1.68.56A2.63,2.63,0,0,0,403.77,104.53Zm-2-9.84.59-1.93h1.41l-1.41,1.93Z"/><path class="cls-1" d="M409.51,97.59v7.8h-.59v-8a1.71,1.71,0,0,0-.31-1.1,1.25,1.25,0,0,0-1-.38h-.15v-.3h1a2.73,2.73,0,0,1,1.16.22,2.44,2.44,0,0,1,.84.67l5.21,6.47V95.58h.59v10h-.3Z"/><path class="cls-1" d="M566.51,25.34a85.44,85.44,0,0,0,8.78-1.94,51.58,51.58,0,0,1-8.78,5.44V58.41a1.93,1.93,0,0,1,0,.24c0,.16,0,.32,0,.48,0,.33,0,.66-.07,1-.06.67-.13,1.34-.23,2a39.71,39.71,0,0,1-.82,4.16A46.82,46.82,0,0,1,557.14,83a45.36,45.36,0,0,1-14,12.26A63,63,0,0,0,556.8,65.4a65.71,65.71,0,0,0,.88-8.27c0-.53,0-1.07,0-1.6,0-.27,0-.54,0-.8V32.18a51.56,51.56,0,0,1-23.4,1V48.44a27.91,27.91,0,0,0,11.86.27,33.82,33.82,0,0,0,5.74-1.63c1-.37,1.93-.79,2.87-1.24l.73-.35.18-.09.09,0h0v0l0,0-.17.29c-.23.38-.46.75-.71,1.11A22.8,22.8,0,0,1,546,54.52a21.46,21.46,0,0,1-11.62,2V70.69a30.74,30.74,0,0,1-4.39,15.82,30.74,30.74,0,0,1-4.39-15.82V55a25.08,25.08,0,0,0-11.72-1.1,29.28,29.28,0,0,0-5.76,1.45c-1,.35-1.92.75-2.86,1.19l-.71.34-.36.18-.05,0h0v0l.05-.07.08-.14c.22-.37.45-.74.7-1.11a20.93,20.93,0,0,1,9-7.52,20.21,20.21,0,0,1,11.64-1.36V31.09a85.14,85.14,0,0,0-23.4-1.84V54.5c0,.27,0,.53,0,.8a64,64,0,0,0,14.62,40A45.3,45.3,0,0,1,503,83.3,47,47,0,0,1,494.71,67a40.9,40.9,0,0,1-.95-4.5c-.11-.72-.19-1.44-.26-2.17,0-.35-.06-.7-.08-1.06l0-.52a2.09,2.09,0,0,0,0-.25v-.13c0-.16,0-.31,0-.46V30.24c-1.59.27-3.17.57-4.74.93-.78.17-1.57.36-2.35.56l-1.16.31-.29.08-.15,0-.07,0h0s0,0,0,0h0l0,0,.49-.37a52.07,52.07,0,0,1,8.23-5v-2c0-.2,0-.39,0-.59a3.4,3.4,0,0,0,0-.45,9,9,0,0,0-1.68-4.46,7.44,7.44,0,0,0-3-2.42,6.56,6.56,0,0,0-3.84-.4q7.24-1.56,14.32-3.72l1.55-.47.77-.25.38-.12.19-.07.1,0h0V23.4a51.57,51.57,0,0,1,23.4-1V13.46a7.3,7.3,0,0,0-8.77-7.17Q523.5,3.43,529.94,0q6.46,3.42,13.17,6.29a7.32,7.32,0,0,0-8.78,7.17v11a85.17,85.17,0,0,0,23.4,1.84V11.8h0l.23.07.46.15.92.29q7.77,2.44,15.72,4.15a6.56,6.56,0,0,0-3.51.27,7.23,7.23,0,0,0-2.9,2,8.42,8.42,0,0,0-1.74,3.08,9.29,9.29,0,0,0-.37,1.74c0,.18,0,.36-.05.55C566.5,24.52,566.51,24.93,566.51,25.34Z"/><path class="cls-1" d="M22.3,54.92V23.18c0-.24,0-.48-.07-.72a8.49,8.49,0,0,0-.33-1.41,7.8,7.8,0,0,0-9-5.16L27,10.78a88.32,88.32,0,0,0,47.08,0,53.66,53.66,0,0,1-42,10.27,7.69,7.69,0,0,0-.32,1.34c0,.23-.06.46-.07.68s0,.23,0,.34,0,.35,0,.53V56.6A29,29,0,0,0,44,56.88a33.48,33.48,0,0,0,6-1.7c1-.38,2-.81,3-1.28l.75-.37.18-.09.1,0h0v0l0,0-.17.29c-.23.39-.48.78-.74,1.16a23.68,23.68,0,0,1-9.29,8A22.29,22.29,0,0,1,31.67,65V84.9c0,.74,0,1.48,0,2.23,0,.36,0,.72,0,1.09,0,.73-.11,1.45-.21,2.18a32.2,32.2,0,0,1-.86,4.33,31.61,31.61,0,0,1-1.66,4.7q-.5,1.13-1.08,2.22c-.2.37-.4.72-.61,1.08L27,103l0,.07s0,0,0,0h0l0,0-.08-.13-.31-.53A32.93,32.93,0,0,1,23,93.09a31.51,31.51,0,0,1-.57-3.61c-.06-.61-.11-1.21-.13-1.82,0-.3,0-.6,0-.91,0-.15,0-.3,0-.45V63.36a26.06,26.06,0,0,0-12.17-1.14,29.93,29.93,0,0,0-6,1.5q-1.52.56-3,1.23l-.74.36-.37.19,0,0H0v0l0-.07.09-.15c.23-.39.47-.77.72-1.15A21.32,21.32,0,0,1,22.3,54.92Z"/><path class="cls-1" d="M82.06,65.17a28.11,28.11,0,0,1-2.82.1q-8.34,0-9.69-4.17A22.08,22.08,0,0,1,68.18,55l27.28-7-1.31-2.35q-5.36-4.5-14.25-4.5a43.35,43.35,0,0,0-9,1.13,15,15,0,0,0-8.81,5.86,16.24,16.24,0,0,0-3.61,10,11.57,11.57,0,0,0,1.41,5.72,8.1,8.1,0,0,0,4.21,3.65,26.83,26.83,0,0,0,5.49,1.82,26.22,26.22,0,0,0,5.29.52,24.89,24.89,0,0,0,13.78-4.13l4.12-3.75a47.36,47.36,0,0,1-7.68,2.63A23.68,23.68,0,0,1,82.06,65.17ZM68.89,50.5a15.69,15.69,0,0,1,.89-2.35c.87-1.88,2-2.92,3.37-3.11l3.19-.37a8.39,8.39,0,0,1,5.15,1.68q2.25,1.69,2.25,2.82a.85.85,0,0,1-.47.56L68.19,53.52C68.44,52.26,68.67,51.26,68.89,50.5Z"/><path class="cls-1" d="M109.14,70.6V54.12c0-1.81-.46-3.07-1.36-3.79a5.06,5.06,0,0,0-3.23-1.08,14.5,14.5,0,0,0-3.65.66l-3.19,1.21,12.18-8.24a7.13,7.13,0,0,1,3.66-1.41,2.32,2.32,0,0,1,2.53,1.87,10.4,10.4,0,0,1,.75,3.66,47.29,47.29,0,0,1,6.89-3.42,14.11,14.11,0,0,1,4.73-.89,11.17,11.17,0,0,1,4.54,1.5,11.58,11.58,0,0,0,4,1.5,9.11,9.11,0,0,0,3.28-.94,41.86,41.86,0,0,0,4.5-2.81,53.17,53.17,0,0,1-4.93,7.22c-1.9,2.37-4.64,3.56-8.2,3.56a12.16,12.16,0,0,1-5.12-1.31,16.86,16.86,0,0,1-4.35-2.82,9.72,9.72,0,0,0-1.22-1.08,7.06,7.06,0,0,0-.75-.42,3.25,3.25,0,0,0-2.25,1.13,3.06,3.06,0,0,0-1.12,2v15Z"/><path class="cls-1" d="M149.16,68.72a26.16,26.16,0,0,0,1.4-4.68c.13-1.38.25-2.75.38-4.13a15.89,15.89,0,0,0-1.69-7.2l-3.47-4.6,5.62-5.61a2.81,2.81,0,0,1,1.41-.66,4,4,0,0,1,3.14,2,33.16,33.16,0,0,1,2.58,4.25,43.71,43.71,0,0,1,9.28-5.47A19.88,19.88,0,0,1,175,40.81q4.5,0,6.38,2.16a15.93,15.93,0,0,1,3,4.22c1.62-.94,3.22-1.77,4.78-2.48s3.25-1.43,5.06-2.12a28.77,28.77,0,0,1,9.18-1.78,12.16,12.16,0,0,1,5.25,1A7.05,7.05,0,0,1,212,45.08a16.62,16.62,0,0,1,1.5,4c.13,1.13.25,2.25.38,3.38a13.61,13.61,0,0,1-4.26,9.89A21.1,21.1,0,0,1,199,68a22.8,22.8,0,0,0,3.47-4.5A10.71,10.71,0,0,0,204.27,58c-.1-.75-.19-1.5-.28-2.25a12.88,12.88,0,0,0-1.5-3.56,8.64,8.64,0,0,0-3.75-4,9.6,9.6,0,0,0-5.34-1.59,10.6,10.6,0,0,0-4.78.94,14.33,14.33,0,0,0-3.47,2l.93,3.28.38,3.09a18.5,18.5,0,0,1-.14,2.81,14.18,14.18,0,0,1-.65,2.3,7.19,7.19,0,0,1-1,2l-10.5,5.79,1.41-3.37a19,19,0,0,0,.65-5.06,20.43,20.43,0,0,0-.52-4.55,16.35,16.35,0,0,0-1.91-4.65,9.22,9.22,0,0,0-3.1-3.65A6.88,6.88,0,0,0,167,46.32a9,9,0,0,0-4.5,1.13l-3.37,2.34a21.22,21.22,0,0,1,1.22,3.15,12.32,12.32,0,0,1,.56,3.6V58.6c-.19.81-.31,1.41-.37,1.78-.28.91-.57,1.81-.85,2.72Z"/><path class="cls-1" d="M240.64,65.18a28.11,28.11,0,0,1-2.82.1q-8.35,0-9.7-4.17A22.35,22.35,0,0,1,226.76,55l27.28-7-1.31-2.35q-5.34-4.5-14.25-4.5a43.44,43.44,0,0,0-9,1.13,15,15,0,0,0-8.81,5.86,16.29,16.29,0,0,0-3.6,10,11.57,11.57,0,0,0,1.41,5.72,8.1,8.1,0,0,0,4.21,3.65,27.75,27.75,0,0,0,5.49,1.83,26.22,26.22,0,0,0,5.29.52,24.89,24.89,0,0,0,13.78-4.13l4.12-3.75a46.1,46.1,0,0,1-7.68,2.63A23.68,23.68,0,0,1,240.64,65.18ZM227.47,50.5a15.69,15.69,0,0,1,.89-2.35c.87-1.88,2-2.92,3.37-3.11l3.19-.37a8.37,8.37,0,0,1,5.15,1.68q2.25,1.69,2.25,2.82a.85.85,0,0,1-.47.56l-15.08,3.79C227,52.26,227.26,51.26,227.47,50.5Z"/><path class="cls-1" d="M259.66,68.72A25.46,25.46,0,0,0,261.07,64c.12-1.38.25-2.75.37-4.13A14.19,14.19,0,0,0,259,51.39c-.5-.68-1.16-1.49-2-2.43-.19-.19-.44-.47-.75-.85L263,42.5a3.21,3.21,0,0,1,1.12-.47A3.47,3.47,0,0,1,267,43.77c.82,1.16,1.28,1.84,1.41,2.06s.44.87.94,1.93a38.37,38.37,0,0,1,9.7-5.34,27,27,0,0,1,9.51-2.06,17,17,0,0,1,3.24.28,8.7,8.7,0,0,1,2.76,1,7.55,7.55,0,0,1,3.84,4.12,16.07,16.07,0,0,1,1.41,6.75,14.55,14.55,0,0,1-4,10.22A17,17,0,0,1,285.53,68a15.35,15.35,0,0,0,3.06-4.08,11.47,11.47,0,0,0,1.63-5.77V56.1a10.05,10.05,0,0,0-1.5-3.75,8.83,8.83,0,0,0-3.94-4.21,11.47,11.47,0,0,0-5.62-1.5,13.37,13.37,0,0,0-5.11.84,27.89,27.89,0,0,0-4,2.06,13.49,13.49,0,0,1,1.12,3.28l.38,3.09a12.16,12.16,0,0,1-.47,3.8,12.8,12.8,0,0,1-1,2.3Z"/><path class="cls-1" d="M311.21,65.18a12.62,12.62,0,0,1-1.59-3.28c-.19-.87-.31-1.44-.37-1.73a7.65,7.65,0,0,1-.1-1.55,12.28,12.28,0,0,1,4.5-9.69,53.34,53.34,0,0,1,9.28-6.51l-3.37-.75a21.87,21.87,0,0,0-3.66-.42c-1.12,0-2,0-2.62,0l-5.07.28a18.53,18.53,0,0,0-2.3.38,24.71,24.71,0,0,0-2.57.93l3.82-2.9a33.38,33.38,0,0,1,12.77-4.22,57,57,0,0,1,8.49.6,108.18,108.18,0,0,0,10.91.81h3.85a4.84,4.84,0,0,1,1-.19,18.15,18.15,0,0,0,4.5-.85,62.06,62.06,0,0,1-7.5,4.56,22.26,22.26,0,0,1-10.41,2.3l-3.46-.28c-1.32-.19-3.12.91-5.39,3.33a11.89,11.89,0,0,0-2.25,13.49,7.35,7.35,0,0,0,3.48,3.6,12.23,12.23,0,0,0,5.42,1.12,32.87,32.87,0,0,0,8.28-1.4c3.38-.94,5.2-1.56,5.45-1.88a25.3,25.3,0,0,1-9.42,6,32.24,32.24,0,0,1-12,2.49,15,15,0,0,1-5.81-1A7.36,7.36,0,0,1,311.21,65.18Z"/><path class="cls-1" d="M351.24,61.18v-9.9a5.61,5.61,0,0,0-.81-2.94A2.6,2.6,0,0,0,348.05,47l-.94.19,3.19-2.62c2.62-1.86,4.72-2.8,6.28-2.8s2.34,1,2.34,3V55.63a7.74,7.74,0,0,0,1.69,4.88,6,6,0,0,0,4.69,1.87,19.49,19.49,0,0,0,6.42-.89c1.66-.6,2.72-1,3.19-1.18s1.26-.56,2.38-1.13V47.94a8.83,8.83,0,0,0-.13-2.06c-.1-.25-.65-.41-1.65-.47l-1.59.18L378,42.88a8.16,8.16,0,0,1,4.32-1.41c1.74,0,2.62,1.09,2.62,3.28V56a7.59,7.59,0,0,0,1.41,5,5.19,5.19,0,0,0,3.84,1.4A9,9,0,0,0,393,62l1.46-.51a11.36,11.36,0,0,0,1.35-.66,39.15,39.15,0,0,1-7.73,5.06,13.89,13.89,0,0,1-5.48,1.6,5.2,5.2,0,0,1-3.85-1.8,7.88,7.88,0,0,1-1.5-4.86l-7.49,2.72q-8.73,3.66-11.44,3.94a7.43,7.43,0,0,1-5-1.83A5.71,5.71,0,0,1,351.24,61.18Z"/><path class="cls-1" d="M399.13,68.72A25.46,25.46,0,0,0,400.54,64c.12-1.38.25-2.75.37-4.13a15.88,15.88,0,0,0-1.68-7.2q-1.74-2.3-3.47-4.6l5.62-5.61a2.73,2.73,0,0,1,1.41-.66,4,4,0,0,1,3.13,2,32.13,32.13,0,0,1,2.59,4.25,43.66,43.66,0,0,1,9.27-5.47A20,20,0,0,1,425,40.81q4.5,0,6.38,2.16a16.39,16.39,0,0,1,3,4.22,53.38,53.38,0,0,1,4.78-2.48c1.56-.72,3.24-1.43,5.06-2.12a28.72,28.72,0,0,1,9.18-1.78,12.22,12.22,0,0,1,5.25,1,7.05,7.05,0,0,1,3.28,3.24,16.62,16.62,0,0,1,1.5,4c.13,1.13.25,2.25.38,3.38a13.61,13.61,0,0,1-4.26,9.89A21.19,21.19,0,0,1,449,68a22.42,22.42,0,0,0,3.46-4.5A10.64,10.64,0,0,0,454.25,58c-.1-.75-.19-1.5-.29-2.25a12.26,12.26,0,0,0-1.5-3.56,8.57,8.57,0,0,0-3.74-4,9.61,9.61,0,0,0-5.35-1.59,10.62,10.62,0,0,0-4.78.94,14.52,14.52,0,0,0-3.47,2c.32,1.09.63,2.18.94,3.28l.38,3.09a18.5,18.5,0,0,1-.14,2.81,14.18,14.18,0,0,1-.65,2.3,7.19,7.19,0,0,1-1,2l-10.5,5.79c.47-1.12.94-2.24,1.4-3.37a18.59,18.59,0,0,0,.66-5.06,21,21,0,0,0-.52-4.55,16.1,16.1,0,0,0-1.92-4.65,9.12,9.12,0,0,0-3.09-3.65,6.93,6.93,0,0,0-3.75-1.13,8.9,8.9,0,0,0-4.5,1.13l-3.37,2.34a21.22,21.22,0,0,1,1.22,3.15,12.32,12.32,0,0,1,.56,3.6V58.6c-.19.81-.31,1.41-.38,1.78l-.84,2.72Z"/></g></g></svg>