<?xml version="1.0" encoding="utf-8"?>
<!-- Generator: Adobe Illustrator 26.0.2, SVG Export Plug-In . SVG Version: 6.00 Build 0)  -->
<svg version="1.1" id="Capa_1" xmlns="http://www.w3.org/2000/svg" xmlns:xlink="http://www.w3.org/1999/xlink" x="0px" y="0px"
	 viewBox="0 0 575.3 106.1" style="enable-background:new 0 0 575.3 106.1;" xml:space="preserve">
<style type="text/css">
	.st0{fill:#0D0D0D;}
</style>
<g id="Capa_2_00000107569542009823728500000003344131254048977308_">
	<g id="Default">
		<path class="st0" d="M169.8,104.9c-0.8-0.5-1.3-1.3-1.6-2.2l-0.5-1.4h-5.9l-1.7,4h-1l6-14h0.6l4.7,11.4c0.2,0.6,0.6,1.2,1,1.7
			c0.4,0.3,0.8,0.5,1.3,0.6v0.4c-0.3,0.1-0.6,0.1-0.9,0.1C171.1,105.5,170.4,105.3,169.8,104.9z M162.1,100.5h5.2l-2.6-6.2
			L162.1,100.5z"/>
		<path class="st0" d="M178.9,105.1c-0.5-0.5-1-1.1-1.3-1.7l-1.5-2.5h-1v4.5h-1.4v-8c0-0.4,0-0.8-0.2-1.1c-0.2-0.3-0.5-0.4-0.8-0.4
			h-0.3v-0.3h3.9c0.9,0,1.8,0.2,2.6,0.6c0.8,0.4,1.2,1.2,1.1,2.1c0,1.3-0.8,2.2-2.4,2.5l1.6,2.6c0.3,0.5,0.6,0.9,1,1.3
			c0.3,0.2,0.6,0.4,1,0.4v0.3c-0.1,0-0.3,0.1-0.4,0.1c-0.2,0-0.3,0-0.5,0.1C179.7,105.6,179.2,105.4,178.9,105.1z M177.1,100.1
			c0.4-0.1,0.7-0.4,0.9-0.7c0.3-0.3,0.4-0.7,0.4-1.2c0-0.4-0.1-0.9-0.4-1.2c-0.2-0.3-0.6-0.6-0.9-0.7c-0.3-0.1-0.7-0.2-1-0.2
			c-0.4,0-0.8,0.1-1.1,0.2v3.9c0.4,0.1,0.7,0.1,1.1,0.2C176.5,100.3,176.8,100.2,177.1,100.1L177.1,100.1z"/>
		<path class="st0" d="M184.8,96.2h-1.3c-1.2,0-1.9,0.6-1.9,1.7h-0.3v-1.1c0-0.8,0.4-1.2,1.3-1.2h6.9v0.6h-3.3v9.2h-1.3L184.8,96.2z
			"/>
		<path class="st0" d="M191.2,97.4c0-0.4,0-0.8-0.2-1.1c-0.2-0.3-0.5-0.4-0.8-0.4h-0.3v-0.3h6.3c0.8,0,1.3,0.4,1.3,1.2v1.1h-0.3
			c0-1.1-0.6-1.7-1.9-1.7h-2.8v3.8h4v0.6h-4v4.2h2.6c0.6,0,1.1-0.1,1.6-0.4c0.4-0.3,0.8-0.7,0.9-1.3l0.3,0.1l-0.5,1.4
			c-0.2,0.5-0.6,0.8-1.1,0.7h-5.1V97.4z"/>
		<path class="st0" d="M201,105.4c-0.5-0.1-0.9-0.3-1.3-0.6c-0.3-0.2-0.5-0.6-0.5-1v-1.6h0.3c0.1,0.8,0.4,1.6,1,2.2
			c0.6,0.5,1.3,0.7,2,0.7c0.5,0,1-0.1,1.4-0.4c0.4-0.2,0.6-0.7,0.6-1.1c0-0.4-0.1-0.8-0.4-1.1c-0.4-0.4-0.8-0.7-1.2-1l-1.8-1.1
			c-0.5-0.3-1-0.7-1.3-1.2c-0.3-0.4-0.4-0.9-0.4-1.4c0-0.7,0.3-1.3,0.8-1.8c0.6-0.5,1.3-0.7,2.1-0.7c0.5,0,1,0.1,1.5,0.2
			c0.4,0.1,0.9,0.3,1.2,0.6c0.3,0.2,0.5,0.6,0.5,0.9v1.6H205c-0.1-0.8-0.4-1.6-1-2.1c-0.6-0.5-1.3-0.7-2-0.6c-0.4,0-0.9,0.1-1.2,0.4
			c-0.3,0.3-0.5,0.7-0.5,1.1c0,0.4,0.1,0.7,0.4,1c0.4,0.4,0.8,0.7,1.3,0.9l1.8,1.1c0.5,0.3,1,0.7,1.4,1.1c0.3,0.4,0.4,0.8,0.4,1.3
			c0,0.8-0.3,1.5-0.8,2c-0.6,0.5-1.4,0.8-2.3,0.8C202,105.6,201.5,105.6,201,105.4z"/>
		<path class="st0" d="M214.1,105.1c-0.5-0.4-0.9-0.9-1.1-1.5l-0.4-1h-4.2l-1.2,2.8h-0.7l4.2-9.8h0.4l3.3,8c0.2,0.4,0.4,0.8,0.7,1.2
			c0.3,0.2,0.6,0.4,0.9,0.4v0.3c-0.2,0-0.4,0.1-0.6,0.1C215.1,105.5,214.6,105.3,214.1,105.1z M208.7,102h3.6l-1.8-4.3L208.7,102z"
			/>
		<path class="st0" d="M218,97.6v7.8h-0.6v-8c0-0.4-0.1-0.8-0.3-1.1c-0.3-0.3-0.6-0.4-1-0.4h-0.1v-0.3h1c0.4,0,0.8,0.1,1.2,0.2
			c0.3,0.2,0.6,0.4,0.9,0.7l5.2,6.5v-7.4h0.6v10h-0.3L218,97.6z"/>
		<path class="st0" d="M228.8,105c-0.7-0.5-1.3-1.1-1.6-1.9c-0.8-1.7-0.8-3.6,0-5.3c0.4-0.8,0.9-1.4,1.6-1.8c1.5-0.9,3.4-0.9,4.9,0
			c0.7,0.5,1.3,1.1,1.6,1.9c0.8,1.7,0.8,3.6,0,5.3c-0.3,0.8-0.9,1.4-1.6,1.9C232.2,106,230.3,106,228.8,105L228.8,105z M232.9,104.5
			c0.5-0.4,0.9-1,1.1-1.6c0.5-1.6,0.5-3.3,0-4.9c-0.2-0.6-0.6-1.2-1.1-1.6c-1-0.7-2.4-0.7-3.3,0c-0.5,0.4-0.9,1-1.1,1.6
			c-0.5,1.6-0.5,3.3,0,4.9c0.2,0.6,0.6,1.2,1.1,1.6C230.6,105.2,231.9,105.2,232.9,104.5L232.9,104.5z"/>
		<path class="st0" d="M239.1,105.4c-0.5-0.1-0.9-0.3-1.3-0.6c-0.3-0.2-0.5-0.6-0.5-1v-1.6h0.3c0.1,0.8,0.4,1.6,1,2.2
			c0.6,0.5,1.3,0.7,2,0.7c0.5,0,1-0.1,1.4-0.4c0.4-0.2,0.6-0.7,0.6-1.1c0-0.4-0.1-0.8-0.4-1.1c-0.4-0.4-0.8-0.7-1.2-1l-1.8-1.1
			c-0.5-0.3-1-0.7-1.3-1.2c-0.3-0.4-0.4-0.9-0.4-1.4c0-0.7,0.3-1.4,0.8-1.8c0.6-0.5,1.3-0.7,2.1-0.7c0.5,0,1,0.1,1.5,0.2
			c0.4,0.1,0.9,0.3,1.2,0.6c0.3,0.2,0.5,0.6,0.5,0.9v1.6h-0.3c-0.1-0.8-0.4-1.6-1-2.1c-0.6-0.5-1.3-0.7-2-0.6
			c-0.4,0-0.9,0.1-1.2,0.4c-0.3,0.3-0.5,0.7-0.5,1.1c0,0.4,0.1,0.7,0.4,1c0.4,0.4,0.8,0.7,1.3,0.9l1.8,1.1c0.5,0.3,1,0.7,1.4,1.1
			c0.3,0.4,0.4,0.8,0.4,1.3c0,0.8-0.3,1.5-0.8,2c-0.6,0.5-1.4,0.8-2.3,0.8C240.1,105.6,239.6,105.5,239.1,105.4z"/>
		<path class="st0" d="M252,93.9c0-0.5-0.1-1.1-0.3-1.6c-0.3-0.4-0.7-0.6-1.2-0.5h-0.4v-0.4h5.6c2.7,0,4.8,0.6,6.2,1.8
			c1.4,1.3,2.2,3.2,2.1,5.1c0,1.3-0.3,2.6-0.9,3.7c-0.6,1.1-1.5,1.9-2.6,2.5c-1.3,0.6-2.8,0.9-4.3,0.9H252V93.9z M259,103.9
			c0.9-0.5,1.6-1.3,2-2.2c1-2.1,1-4.5,0-6.6c-0.9-1.9-2.8-3-4.9-3c-0.7,0-1.4,0.1-2.1,0.3v11.9c0.7,0.2,1.4,0.3,2.2,0.3
			C257.2,104.7,258.2,104.4,259,103.9L259,103.9z"/>
		<path class="st0" d="M266.5,97.4c0-0.4,0-0.8-0.2-1.1c-0.2-0.3-0.5-0.4-0.8-0.4h-0.3v-0.3h6.3c0.9,0,1.3,0.4,1.3,1.2v1.1h-0.3
			c0-1.1-0.6-1.7-1.9-1.7h-2.8v3.8h4v0.6h-4v4.2h2.6c0.6,0,1.1-0.1,1.6-0.4c0.4-0.3,0.8-0.7,0.9-1.3l0.3,0.1l-0.5,1.4
			c-0.2,0.5-0.6,0.8-1.1,0.7h-5.1L266.5,97.4z"/>
		<path class="st0" d="M281.3,93.9c0-0.5-0.1-1.1-0.3-1.6c-0.3-0.4-0.7-0.6-1.2-0.5h-0.4v-0.4h1.9c0.4,0,0.8,0,1.2,0.2
			c0.3,0.2,0.5,0.4,0.6,0.7c0.1,0.5,0.2,1.1,0.2,1.6v10.6h7.5v0.8h-9.5V93.9z"/>
		<path class="st0" d="M298.7,105.1c-0.5-0.4-0.9-0.9-1.1-1.5l-0.4-1H293l-1.2,2.8h-0.7l4.2-9.8h0.5l3.3,8c0.2,0.4,0.4,0.8,0.7,1.2
			c0.3,0.2,0.6,0.4,0.9,0.4v0.3c-0.2,0.1-0.4,0.1-0.6,0.1C299.6,105.5,299.1,105.3,298.7,105.1z M293.3,102h3.6l-1.8-4.3L293.3,102z
			"/>
		<path class="st0" d="M307.9,93.9c0-0.5-0.1-1.1-0.3-1.6c-0.3-0.4-0.7-0.6-1.2-0.5H306v-0.4h8.5c1.2,0,1.8,0.6,1.8,1.7v1.6h-0.4
			c0-1.6-0.9-2.4-2.7-2.4h-3.4v5.6h4.8v0.8h-4.8v6.7h-1.9L307.9,93.9z"/>
		<path class="st0" d="M318.4,97.4c0-0.4,0-0.8-0.2-1.1c-0.2-0.3-0.5-0.4-0.8-0.4H317v-0.3h6.3c0.8,0,1.3,0.4,1.3,1.2v1.1h-0.3
			c0-1.1-0.6-1.7-1.9-1.7h-2.8v3.8h4v0.6h-4v4.2h2.6c0.6,0,1.1-0.1,1.6-0.4c0.4-0.3,0.8-0.8,0.9-1.3l0.3,0.1l-0.5,1.4
			c-0.2,0.5-0.6,0.8-1.1,0.7h-5.1L318.4,97.4z"/>
		<path class="st0" d="M332.3,105.1c-0.5-0.5-1-1.1-1.3-1.7l-1.5-2.5h-1v4.5h-1.3v-8c0-0.4,0-0.8-0.2-1.1c-0.2-0.3-0.5-0.4-0.8-0.4
			h-0.3v-0.3h3.9c0.9,0,1.8,0.2,2.6,0.6c0.8,0.4,1.2,1.2,1.1,2.1c0,1.3-0.8,2.2-2.4,2.5l1.6,2.6c0.3,0.5,0.6,0.9,1,1.3
			c0.3,0.2,0.6,0.4,1,0.4v0.3c-0.1,0-0.2,0.1-0.4,0.1c-0.2,0-0.3,0-0.5,0.1C333.2,105.6,332.7,105.4,332.3,105.1z M330.6,100.1
			c0.4-0.1,0.7-0.4,0.9-0.7c0.3-0.3,0.4-0.7,0.4-1.2c0-0.4-0.1-0.9-0.4-1.2c-0.2-0.3-0.6-0.6-0.9-0.7c-0.3-0.1-0.7-0.2-1-0.2
			c-0.4,0-0.7,0.1-1.1,0.2v3.9c0.4,0.1,0.7,0.1,1.1,0.2C329.9,100.3,330.3,100.2,330.6,100.1L330.6,100.1z"/>
		<path class="st0" d="M345.2,105.7c-0.4-0.2-0.7-0.6-0.8-1c-0.2-0.6-0.3-1.2-0.2-1.8v-5.7l-3.7,8.2h-0.3l-3.9-8.4v8.4h-0.6v-9.8
			h1.4l3.6,7.7l3.5-7.7h1.3v7.3c0,0.7,0.1,1.5,0.4,2.1c0.2,0.5,0.6,0.8,1.1,0.8v0.3C346.3,106.1,345.8,106,345.2,105.7z"/>
		<path class="st0" d="M348.6,97.4c0-0.4,0-0.8-0.2-1.1c-0.2-0.3-0.5-0.4-0.8-0.4h-0.3v-0.3h6.3c0.8,0,1.3,0.4,1.3,1.2v1.1h-0.3
			c0-1.1-0.6-1.7-1.9-1.7h-2.8v3.8h4v0.6h-4v4.2h2.6c0.6,0,1.1-0.1,1.6-0.4c0.4-0.3,0.8-0.8,0.9-1.3l0.3,0.1l-0.5,1.4
			c-0.2,0.5-0.6,0.8-1.1,0.7h-5.1V97.4z"/>
		<path class="st0" d="M358,97.6v7.8h-0.6v-8c0-0.4-0.1-0.8-0.3-1.1c-0.3-0.3-0.6-0.4-1-0.4H356v-0.3h1c0.4,0,0.8,0.1,1.2,0.2
			c0.3,0.2,0.6,0.4,0.9,0.7l5.2,6.5v-7.4h0.6v10h-0.3L358,97.6z"/>
		<path class="st0" d="M369.8,96.2h-1.3c-1.2,0-1.9,0.6-1.9,1.7h-0.3v-1.1c0-0.8,0.4-1.2,1.3-1.2h6.9v0.6h-3.4v9.2h-1.3L369.8,96.2z
			"/>
		<path class="st0" d="M381.4,105.1c-0.5-0.4-0.9-0.9-1.1-1.5l-0.4-1h-4.2l-1.2,2.8h-0.7l4.2-9.8h0.5l3.3,8c0.2,0.4,0.4,0.8,0.7,1.2
			c0.3,0.2,0.6,0.4,0.9,0.4v0.3c-0.2,0-0.4,0.1-0.6,0.1C382.3,105.5,381.8,105.3,381.4,105.1z M376,102h3.6l-1.8-4.3L376,102z"/>
		<path class="st0" d="M385.6,105c-0.7-0.4-1.3-1.1-1.6-1.8c-0.4-0.8-0.6-1.7-0.6-2.6c0-0.9,0.2-1.9,0.6-2.7c0.4-0.8,1-1.5,1.7-1.9
			c0.7-0.5,1.5-0.7,2.3-0.7c0.7,0,1.4,0.1,2.1,0.3c0.5,0.2,1,0.5,1.3,0.8c0.2,0.2,0.3,0.5,0.3,0.8c0,0.5,0.1,0.9,0.1,1.4h-0.3
			c-0.1-0.8-0.4-1.5-1-2.1c-0.6-0.5-1.3-0.7-2-0.7c-1-0.1-2,0.4-2.6,1.1c-0.7,1.1-1.1,2.3-1,3.6c0,0.7,0.1,1.5,0.4,2.2
			c0.2,0.6,0.6,1.2,1.2,1.6c0.6,0.4,1.3,0.7,2,0.6c0.7,0,1.3-0.2,1.9-0.5c0.6-0.4,1.1-0.9,1.5-1.6l0.3,0.2c-0.4,0.8-1,1.4-1.7,1.9
			c-0.7,0.4-1.6,0.6-2.4,0.6C387.2,105.7,386.3,105.4,385.6,105z"/>
		<path class="st0" d="M394.5,105.2c-0.2-0.1-0.3-0.3-0.4-0.5c-0.1-0.4-0.1-0.8-0.1-1.1v-8h1.3v8c0,0.4,0,0.8,0.2,1.1
			c0.2,0.3,0.5,0.4,0.8,0.4h0.3v0.3h-1.3C395,105.4,394.8,105.4,394.5,105.2z"/>
		<path class="st0" d="M399.7,105c-0.7-0.5-1.3-1.1-1.6-1.9c-0.7-1.7-0.7-3.6,0-5.3c0.4-0.8,0.9-1.4,1.6-1.8c1.5-0.9,3.4-0.9,4.9,0
			c0.7,0.5,1.3,1.1,1.6,1.9c0.7,1.7,0.7,3.6,0,5.3c-0.4,0.8-0.9,1.4-1.6,1.9C403,106,401.2,106,399.7,105L399.7,105z M403.8,104.5
			c0.5-0.4,0.9-1,1.1-1.6c0.5-1.6,0.5-3.3,0-4.9c-0.2-0.6-0.6-1.2-1.1-1.6c-0.5-0.4-1.1-0.6-1.7-0.6c-0.6,0-1.2,0.2-1.7,0.6
			c-0.5,0.4-0.9,1-1.1,1.6c-0.5,1.6-0.5,3.3,0,4.9c0.2,0.6,0.6,1.2,1.1,1.6c0.5,0.4,1.1,0.6,1.7,0.6
			C402.7,105.1,403.3,104.9,403.8,104.5L403.8,104.5z M401.8,94.7l0.6-1.9h1.4l-1.4,1.9H401.8z"/>
		<path class="st0" d="M409.5,97.6v7.8h-0.6v-8c0-0.4-0.1-0.8-0.3-1.1c-0.3-0.3-0.6-0.4-1-0.4h-0.1v-0.3h1c0.4,0,0.8,0.1,1.2,0.2
			c0.3,0.2,0.6,0.4,0.8,0.7l5.2,6.5v-7.4h0.6v10H416L409.5,97.6z"/>
		<path class="st0" d="M566.5,25.3c3-0.5,5.9-1.1,8.8-1.9c-2.7,2.1-5.7,3.9-8.8,5.4v29.6c0,0.1,0,0.2,0,0.2c0,0.2,0,0.3,0,0.5
			c0,0.3,0,0.7-0.1,1c-0.1,0.7-0.1,1.3-0.2,2c-0.2,1.4-0.5,2.8-0.8,4.2c-1.6,6.1-4.4,11.7-8.2,16.7c-3.8,5-8.5,9.2-14,12.3
			c7.1-8.6,11.8-18.9,13.7-29.9c0.5-2.7,0.8-5.5,0.9-8.3c0-0.5,0-1.1,0-1.6c0-0.3,0-0.5,0-0.8V32.2c-7.6,2.1-15.6,2.5-23.4,1v15.3
			c3.9,0.9,7.9,1,11.9,0.3c2-0.4,3.9-0.9,5.7-1.6c1-0.4,1.9-0.8,2.9-1.2l0.7-0.3l0.2-0.1h0.1l0,0l0,0l0,0l-0.2,0.3
			c-0.2,0.4-0.5,0.8-0.7,1.1c-2.2,3.3-5.3,6-8.9,7.7c-3.6,1.7-7.6,2.4-11.6,2v14.2c0,5.6-1.5,11-4.4,15.8
			c-2.9-4.8-4.4-10.2-4.4-15.8V55c-3.8-1.3-7.8-1.7-11.7-1.1c-2,0.3-3.9,0.8-5.8,1.5c-1,0.3-1.9,0.8-2.9,1.2l-0.7,0.3l-0.4,0.2h0
			l0,0l0,0l0-0.1l0.1-0.1c0.2-0.4,0.5-0.7,0.7-1.1c2.2-3.3,5.3-5.9,9-7.5c3.7-1.6,7.7-2.1,11.6-1.4V31.1c-7.7-1.7-15.6-2.3-23.4-1.8
			v25.2c0,0.3,0,0.5,0,0.8c0.2,14.6,5.3,28.7,14.6,40c-5.4-3-10.1-7.1-13.8-12c-3.8-4.8-6.6-10.4-8.3-16.3c-0.4-1.5-0.7-3-1-4.5
			c-0.1-0.7-0.2-1.4-0.3-2.2c0-0.3-0.1-0.7-0.1-1.1v-0.5c0-0.1,0-0.2,0-0.2v-0.1c0-0.2,0-0.3,0-0.5V30.2c-1.6,0.3-3.2,0.6-4.7,0.9
			c-0.8,0.2-1.6,0.4-2.4,0.6l-1.2,0.3l-0.3,0.1h-0.1h-0.1l0,0l0,0l0,0l0,0l0.5-0.4c2.6-1.9,5.3-3.6,8.2-5v-2c0-0.2,0-0.4,0-0.6
			c0-0.1,0-0.3,0-0.5c-0.1-1.6-0.7-3.2-1.7-4.5c-0.8-1.1-1.8-1.9-3-2.4c-1.2-0.5-2.5-0.7-3.8-0.4c4.8-1,9.6-2.3,14.3-3.7l1.5-0.5
			l0.8-0.2l0.4-0.1l0.2-0.1h0.1l0,0v11.6c7.6-2.1,15.6-2.5,23.4-1v-8.9c0-4-3.2-7.3-7.3-7.3c-0.5,0-1,0-1.5,0.1
			c4.5-1.9,8.8-4,13.1-6.3c4.3,2.3,8.7,4.4,13.2,6.3c-4-0.8-7.8,1.8-8.6,5.7c-0.1,0.5-0.1,1-0.1,1.5v11c7.7,1.7,15.6,2.3,23.4,1.8
			V11.8l0,0l0.2,0.1l0.5,0.1l0.9,0.3c5.2,1.6,10.4,3,15.7,4.1c-1.2-0.2-2.4-0.1-3.5,0.3c-1.1,0.4-2.1,1.1-2.9,2
			c-0.8,0.9-1.4,1.9-1.7,3.1c-0.2,0.6-0.3,1.1-0.4,1.7c0,0.2,0,0.4,0,0.5C566.5,24.5,566.5,24.9,566.5,25.3z"/>
		<path class="st0" d="M22.3,54.9V23.2c0-0.2,0-0.5-0.1-0.7c-0.1-0.5-0.2-1-0.3-1.4c-1.3-3.8-5.1-6-9-5.2L27,10.8
			c15.4,4.3,31.7,4.3,47.1,0c-11.9,9.2-27.2,12.9-42,10.3c-0.1,0.4-0.3,0.9-0.3,1.3c0,0.2-0.1,0.5-0.1,0.7s0,0.2,0,0.3s0,0.4,0,0.5
			v32.7c4,1,8.2,1.1,12.3,0.3c2-0.4,4.1-0.9,6-1.7c1-0.4,2-0.8,3-1.3l0.8-0.4l0.2-0.1H54l0,0l0,0l0,0l-0.2,0.3
			c-0.2,0.4-0.5,0.8-0.7,1.2c-2.3,3.4-5.5,6.2-9.3,8c-3.8,1.8-8,2.6-12.2,2.1v19.9c0,0.7,0,1.5,0,2.2c0,0.4,0,0.7,0,1.1
			c0,0.7-0.1,1.4-0.2,2.2c-0.2,1.5-0.5,2.9-0.9,4.3c-0.4,1.6-1,3.2-1.7,4.7c-0.3,0.8-0.7,1.5-1.1,2.2c-0.2,0.4-0.4,0.7-0.6,1.1
			L27,103v0.1l0,0l0,0l0,0l-0.1-0.1l-0.3-0.5c-1.7-2.9-2.9-6-3.6-9.3c-0.3-1.2-0.5-2.4-0.6-3.6c-0.1-0.6-0.1-1.2-0.1-1.8
			c0-0.3,0-0.6,0-0.9c0-0.2,0-0.3,0-0.4V63.4c-3.9-1.3-8.1-1.7-12.2-1.1c-2,0.3-4.1,0.8-6,1.5c-1,0.4-2,0.8-3,1.2l-0.7,0.4L0,65.5
			l0,0h0l0,0v-0.1l0.1-0.2c0.2-0.4,0.5-0.8,0.7-1.2C5.5,57.1,13.9,53.4,22.3,54.9z"/>
		<path class="st0" d="M82.1,65.2c-0.9,0.1-1.9,0.1-2.8,0.1c-5.6,0-8.8-1.4-9.7-4.2c-0.7-2-1.2-4-1.4-6.1l27.3-7l-1.3-2.3
			c-3.6-3-8.3-4.5-14.2-4.5c-3,0.1-6,0.4-9,1.1c-3.6,0.8-6.7,2.9-8.8,5.9c-2.3,2.8-3.6,6.4-3.6,10c0,2,0.5,4,1.4,5.7
			c0.9,1.7,2.4,3,4.2,3.6c1.8,0.8,3.6,1.4,5.5,1.8c1.7,0.4,3.5,0.5,5.3,0.5c4.9,0,9.7-1.4,13.8-4.1l4.1-3.8c-2.5,1.1-5,2-7.7,2.6
			C84.1,64.9,83.1,65,82.1,65.2z M68.9,50.5c0.2-0.8,0.5-1.6,0.9-2.3c0.9-1.9,2-2.9,3.4-3.1l3.2-0.4c1.9,0,3.7,0.6,5.2,1.7
			c1.5,1.1,2.2,2.1,2.2,2.8c-0.1,0.2-0.2,0.5-0.5,0.6l-15.1,3.8C68.4,52.3,68.7,51.3,68.9,50.5z"/>
		<path class="st0" d="M109.1,70.6V54.1c0-1.8-0.5-3.1-1.4-3.8c-0.9-0.7-2.1-1.1-3.2-1.1c-1.2,0.1-2.5,0.3-3.7,0.7l-3.2,1.2
			l12.2-8.2c1.1-0.8,2.3-1.3,3.7-1.4c1.2-0.1,2.3,0.7,2.5,1.9c0.5,1.2,0.7,2.4,0.8,3.7c2.2-1.3,4.5-2.5,6.9-3.4
			c1.5-0.6,3.1-0.9,4.7-0.9c1.6,0.2,3.2,0.7,4.5,1.5c1.2,0.7,2.6,1.3,4,1.5c1.1-0.1,2.3-0.4,3.3-0.9c1.6-0.8,3.1-1.8,4.5-2.8
			c-1.4,2.5-3.1,5-4.9,7.2c-1.9,2.4-4.6,3.6-8.2,3.6c-1.8-0.1-3.5-0.5-5.1-1.3c-1.6-0.7-3.1-1.7-4.3-2.8c-0.4-0.4-0.8-0.8-1.2-1.1
			c-0.2-0.2-0.5-0.3-0.8-0.4c-0.9,0.1-1.7,0.5-2.2,1.1c-0.6,0.5-1,1.2-1.1,2v15L109.1,70.6z"/>
		<path class="st0" d="M149.2,68.7c0.6-1.5,1.1-3.1,1.4-4.7c0.1-1.4,0.2-2.8,0.4-4.1c0-2.5-0.6-5-1.7-7.2l-3.5-4.6l5.6-5.6
			c0.4-0.3,0.9-0.6,1.4-0.7c1.3,0.1,2.5,0.9,3.1,2c1,1.4,1.8,2.8,2.6,4.2c2.9-2.2,6-4,9.3-5.5c2.3-1,4.7-1.7,7.2-1.8
			c3,0,5.1,0.7,6.4,2.2c1.2,1.2,2.2,2.7,3,4.2c1.6-0.9,3.2-1.8,4.8-2.5s3.2-1.4,5.1-2.1c2.9-1.1,6-1.7,9.2-1.8
			c1.8-0.1,3.6,0.3,5.2,1c1.5,0.7,2.6,1.8,3.4,3.3c0.7,1.3,1.2,2.6,1.5,4c0.1,1.1,0.2,2.2,0.4,3.4c0,3.7-1.5,7.3-4.3,9.9
			c-2.9,2.9-6.6,4.8-10.6,5.6c1.3-1.3,2.5-2.9,3.5-4.5c1.1-1.6,1.7-3.5,1.8-5.5c-0.1-0.8-0.2-1.5-0.3-2.2c-0.3-1.3-0.8-2.5-1.5-3.6
			c-0.8-1.7-2.1-3.1-3.8-4c-1.6-1-3.4-1.6-5.3-1.6c-1.6-0.1-3.3,0.3-4.8,0.9c-1.2,0.5-2.4,1.2-3.5,2l0.9,3.3l0.4,3.1
			c0,0.9,0,1.9-0.1,2.8c-0.2,0.8-0.4,1.6-0.6,2.3c-0.2,0.7-0.6,1.4-1,2l-10.5,5.8l1.4-3.4c0.4-1.6,0.7-3.4,0.6-5.1
			c0-1.5-0.2-3.1-0.5-4.5c-0.4-1.6-1-3.2-1.9-4.7c-0.7-1.5-1.8-2.7-3.1-3.7c-1.1-0.8-2.4-1.2-3.7-1.2c-1.6,0-3.1,0.4-4.5,1.1
			l-3.4,2.3c0.5,1,0.9,2.1,1.2,3.2c0.4,1.2,0.6,2.4,0.6,3.6v2.1c-0.2,0.8-0.3,1.4-0.4,1.8c-0.3,0.9-0.6,1.8-0.9,2.7L149.2,68.7z"/>
		<path class="st0" d="M240.6,65.2c-0.9,0.1-1.9,0.1-2.8,0.1c-5.6,0-8.8-1.4-9.7-4.2c-0.7-2-1.2-4-1.4-6.1l27.3-7l-1.3-2.3
			c-3.6-3-8.3-4.5-14.2-4.5c-3,0.1-6,0.4-9,1.1c-3.6,0.8-6.7,2.9-8.8,5.9c-2.3,2.8-3.6,6.4-3.6,10c0,2,0.5,4,1.4,5.7
			c0.9,1.7,2.4,3,4.2,3.6c1.8,0.8,3.6,1.4,5.5,1.8c1.7,0.4,3.5,0.5,5.3,0.5c4.9,0,9.7-1.4,13.8-4.1l4.1-3.8c-2.5,1.1-5,2-7.7,2.6
			C242.7,64.9,241.7,65.1,240.6,65.2z M227.5,50.5c0.2-0.8,0.5-1.6,0.9-2.3c0.9-1.9,2-2.9,3.4-3.1l3.2-0.4c1.9,0,3.7,0.6,5.1,1.7
			c1.5,1.1,2.2,2.1,2.2,2.8c-0.1,0.2-0.2,0.5-0.5,0.6l-15.1,3.8C227,52.3,227.3,51.3,227.5,50.5z"/>
		<path class="st0" d="M259.7,68.7c0.6-1.5,1.1-3.1,1.4-4.7c0.1-1.4,0.2-2.8,0.4-4.1c0.1-3-0.7-6-2.4-8.5c-0.5-0.7-1.2-1.5-2-2.4
			c-0.2-0.2-0.4-0.5-0.8-0.8l6.8-5.6c0.3-0.2,0.7-0.4,1.1-0.5c1.2,0,2.3,0.7,2.9,1.7c0.8,1.2,1.3,1.8,1.4,2.1s0.4,0.9,0.9,1.9
			c3-2.2,6.2-4,9.7-5.3c3-1.3,6.2-2,9.5-2.1c1.1,0,2.2,0.1,3.2,0.3c1,0.2,1.9,0.5,2.8,1c1.8,0.8,3.1,2.3,3.8,4.1
			c1,2.1,1.4,4.4,1.4,6.8c0.1,3.8-1.4,7.5-4,10.2c-2.7,2.9-6.3,4.8-10.3,5.3c1.2-1.2,2.3-2.6,3.1-4.1c1-1.7,1.6-3.7,1.6-5.8v-2
			c-0.2-1.3-0.8-2.6-1.5-3.8c-0.8-1.8-2.2-3.3-3.9-4.2c-1.7-1-3.6-1.5-5.6-1.5c-1.7-0.1-3.5,0.2-5.1,0.8c-1.4,0.6-2.7,1.3-4,2.1
			c0.5,1,0.9,2.1,1.1,3.3l0.4,3.1c0,1.3-0.1,2.6-0.5,3.8c-0.3,0.8-0.6,1.6-1,2.3L259.7,68.7z"/>
		<path class="st0" d="M311.2,65.2c-0.7-1-1.2-2.1-1.6-3.3c-0.2-0.9-0.3-1.4-0.4-1.7c-0.1-0.5-0.1-1-0.1-1.5
			c-0.1-3.7,1.6-7.3,4.5-9.7c2.9-2.5,6-4.7,9.3-6.5l-3.4-0.8c-1.2-0.2-2.4-0.4-3.7-0.4c-1.1,0-2,0-2.6,0l-5.1,0.3
			c-0.8,0.1-1.5,0.2-2.3,0.4c-0.9,0.3-1.7,0.6-2.6,0.9l3.8-2.9c3.9-2.3,8.3-3.7,12.8-4.2c2.8,0,5.7,0.2,8.5,0.6
			c3.6,0.5,7.3,0.7,10.9,0.8h3.9c0.3-0.1,0.7-0.2,1-0.2c1.5-0.1,3-0.4,4.5-0.8c-2.4,1.7-4.9,3.2-7.5,4.6c-3.2,1.6-6.8,2.4-10.4,2.3
			l-3.5-0.3c-1.3-0.2-3.1,0.9-5.4,3.3c-3.5,3.6-4.4,9-2.2,13.5c0.7,1.6,1.9,2.8,3.5,3.6c1.7,0.8,3.6,1.2,5.4,1.1
			c2.8-0.1,5.6-0.6,8.3-1.4c3.4-0.9,5.2-1.6,5.5-1.9c-2.7,2.7-5.9,4.7-9.4,6c-3.8,1.6-7.9,2.4-12,2.5c-2,0.1-4-0.3-5.8-1
			C313.4,67.8,312.1,66.7,311.2,65.2z"/>
		<path class="st0" d="M351.2,61.2v-9.9c0-1-0.3-2.1-0.8-2.9C350,47.5,349,47,348,47l-0.9,0.2l3.2-2.6c2.6-1.9,4.7-2.8,6.3-2.8
			s2.3,1,2.3,3v10.9c0,1.8,0.6,3.5,1.7,4.9c1.2,1.3,2.9,2,4.7,1.9c2.2,0.1,4.3-0.2,6.4-0.9c1.7-0.6,2.7-1,3.2-1.2s1.3-0.6,2.4-1.1
			V47.9c0-0.7,0-1.4-0.1-2.1c-0.1-0.2-0.6-0.4-1.6-0.5l-1.6,0.2l4.1-2.7c1.3-0.9,2.8-1.4,4.3-1.4c1.7,0,2.6,1.1,2.6,3.3V56
			c-0.1,1.8,0.4,3.6,1.4,5c1,1,2.4,1.5,3.8,1.4c1,0,1.9-0.1,2.8-0.4l1.5-0.5c0.5-0.2,0.9-0.4,1.4-0.7c-2.4,2-5,3.7-7.7,5.1
			c-1.7,0.9-3.6,1.5-5.5,1.6c-1.5,0-2.9-0.7-3.9-1.8c-1-1.4-1.6-3.1-1.5-4.9l-7.5,2.7c-5.8,2.4-9.6,3.8-11.4,3.9
			c-1.8,0-3.6-0.6-5-1.8C352,64.6,351.2,62.9,351.2,61.2z"/>
		<path class="st0" d="M399.1,68.7c0.6-1.5,1.1-3.1,1.4-4.7c0.1-1.4,0.2-2.8,0.4-4.1c0-2.5-0.6-5-1.7-7.2c-1.2-1.5-2.3-3.1-3.5-4.6
			l5.6-5.6c0.4-0.4,0.9-0.6,1.4-0.7c1.3,0.1,2.5,0.9,3.1,2c1,1.3,1.8,2.8,2.6,4.2c2.9-2.2,6-4,9.3-5.5c2.3-1,4.7-1.6,7.2-1.8
			c3,0,5.1,0.7,6.4,2.2c1.2,1.2,2.2,2.7,3,4.2c1.6-0.9,3.1-1.7,4.8-2.5c1.6-0.7,3.2-1.4,5.1-2.1c2.9-1.1,6-1.7,9.2-1.8
			c1.8-0.1,3.6,0.3,5.2,1c1.4,0.7,2.6,1.8,3.3,3.2c0.7,1.3,1.2,2.6,1.5,4c0.1,1.1,0.2,2.2,0.4,3.4c0,3.7-1.5,7.3-4.3,9.9
			c-2.9,2.9-6.6,4.8-10.5,5.7c1.3-1.3,2.5-2.9,3.5-4.5c1.1-1.6,1.7-3.5,1.8-5.5c-0.1-0.8-0.2-1.5-0.3-2.2c-0.3-1.3-0.8-2.5-1.5-3.6
			c-0.8-1.7-2.1-3.1-3.7-4c-1.6-1-3.4-1.6-5.4-1.6c-1.6-0.1-3.3,0.3-4.8,0.9c-1.2,0.5-2.4,1.2-3.5,2c0.3,1.1,0.6,2.2,0.9,3.3
			l0.4,3.1c0,0.9,0,1.9-0.1,2.8c-0.2,0.8-0.4,1.6-0.6,2.3c-0.2,0.7-0.6,1.4-1,2l-10.5,5.8c0.5-1.1,0.9-2.2,1.4-3.4
			c0.5-1.6,0.7-3.4,0.7-5.1c0-1.5-0.2-3.1-0.5-4.5c-0.4-1.6-1-3.2-1.9-4.7c-0.7-1.5-1.8-2.7-3.1-3.7c-1.1-0.7-2.4-1.1-3.8-1.1
			c-1.6,0-3.1,0.4-4.5,1.1l-3.4,2.3c0.5,1,0.9,2.1,1.2,3.2c0.4,1.2,0.6,2.4,0.6,3.6v2c-0.2,0.8-0.3,1.4-0.4,1.8l-0.8,2.7L399.1,68.7
			z"/>
	</g>
</g>
</svg>
