<svg xmlns="http://www.w3.org/2000/svg" xmlns:xlink="http://www.w3.org/1999/xlink" viewBox="0 0 1145.88 800.52"><defs><style>.cls-1{fill:none;}.cls-2{isolation:isolate;}.cls-3{fill:#ff9f00;}.cls-4{clip-path:url(#clip-path);}.cls-5{fill:#fcfcfc;}.cls-6{mix-blend-mode:multiply;}.cls-7{fill:#f6ba4e;}.cls-7,.cls-9{opacity:0.7;}.cls-8{mix-blend-mode:soft-light;}.cls-9{fill:#f6feff;}</style><clipPath id="clip-path"><path class="cls-1" d="M461.81,26.7C174.11,107.8,30.22,149.53,28.27,207.47c-1.92,57.49,107.78,84,99.58,147.06C121.61,402.46,56,403.62,20.61,471-8,525.4-7.6,605.33,26.74,653.26,76.05,722.08,165.63,683.5,365.3,713c208.75,30.84,235.45,91.42,412.08,87.32,134.9-3.13,201.06-40.37,226.72-56.68C1079.09,696,1165.38,600,1142,538.36c-18-47.44-85.21-33.21-228.26-116.42-61.68-35.88-70.07-87.32-67.41-119.72C856.52,178,873.35,180,838.66,98.7,811.14,34.24,719.26,15.32,677.81,6.79,596.74-9.9,531.53,7.05,461.81,26.7Z"/></clipPath></defs><g class="cls-2"><g id="Layer_1" data-name="Layer 1"><path class="cls-3" d="M461.81,26.7C174.11,107.8,30.22,149.53,28.27,207.47c-1.92,57.49,107.78,84,99.58,147.06C121.61,402.46,56,403.62,20.61,471-8,525.4-7.6,605.33,26.74,653.26,76.05,722.08,165.63,683.5,365.3,713c208.75,30.84,235.45,91.42,412.08,87.32,134.9-3.13,201.06-40.37,226.72-56.68C1079.09,696,1165.38,600,1142,538.36c-18-47.44-85.21-33.21-228.26-116.42-61.68-35.88-70.51-96.61-70.51-129.12,0-105.32,30.14-112.85-4.55-194.12C811.14,34.24,719.26,15.32,677.81,6.79,596.74-9.9,531.53,7.05,461.81,26.7Z"/><path d="M274,531.35l59.25,28.56L303.88,519.4l-4.74-30.76,54.59-4.1c-23.06-13.86-46-27.72-67.11-40.38-42.35-25.53-82.59-5.94-82.59-5.94L148,404.49l3.11-5.09L130,386.67l-11.6,19.24-11.6,19.23,21.08,12.73,3.11-5.09,55.93,33.73s1.49,44.61,43.91,70.21c14.57,8.77,30.12,18.1,45.82,27.58Z"/><path d="M335.62,511.41l55.09,7.7-33.8,21.5,79,25.88L332,585.23l9.47,11c41.58-3.54,83.44-7.07,118.09-10,34.22-3,26.66-56.5,26.66-56.5s-1.63-54.09-35.85-51.12c-25.25,2.19-54.38,4.59-84.43,7.21Z"/><polygon points="247.09 597.25 312.15 562.6 308.61 593.01 278.56 601.85 247.09 597.25"/><polygon points="348.56 427.19 343.4 465.16 359.81 459.08 348.56 427.19"/><polygon points="393.82 562.53 342.2 547.12 347.08 571.23 393.82 562.53"/><polygon points="326.64 594.77 321.48 632.75 337.89 626.66 326.64 594.77"/><polygon points="239.32 566.28 261.02 563.95 252.54 573.84 239.32 566.28"/><polygon points="316.53 523.14 346.3 519.82 334.63 533.47 316.53 523.14"/><polygon points="306.44 156 341.54 196.9 350.44 174 306.44 156"/><polygon points="306.74 132.3 286.94 109.8 304.84 111.5 306.74 132.3"/><path d="M348.64,78.3l-33.8,37.3,39.9,17.6L316.84,153c33.2-4.2,47.5-6,78.1-9.9,49.1-6.2,68.5-46.5,68.5-46.5l64.8-8.2.8,6,24.5-3.1L550.74,69l-2.8-22.3-24.5,3.1.8,6L459.44,64s-28.8-34.1-78-27.9c-18.9,2.4-39,4.9-59.4,7.5Z"/><path d="M212.74,126.4l72.6,4.2-25.4-43.8,64.7,2.2-12.3-37.4c-39.2-8.3-78.4-16.6-111-23.6-33.6-7.1-41.9,46.3-41.9,46.3s-14.1,52.2,19.4,59.3c17.3,3.7,36.5,7.7,56.5,12Z"/><polygon points="314.94 198.9 286.54 145.8 256.94 140.3 273.44 182.4 314.94 198.9"/><polygon points="323.04 0 314.14 41.1 296.94 28 323.04 0"/><polygon points="548.12 257.57 553.57 236 540.98 237.42 548.12 257.57"/><polygon points="531.57 270.16 533.2 300.07 520.26 287.69 531.57 270.16"/><path d="M461.71,357.7l41.93,35.85-16.4-48.65,34.58,23.4L504.7,317.68,534,323.62c-4.74-6.72-9.27-13.37-13.79-19.73-28.29-40.59-73-39.18-73-39.18l-37.34-53.6,4.95-3.39L400.69,187.5l-18.46,12.8-18.45,12.79,14.14,20.23,4.95-3.4,37.26,53.53s-16.9,41.37,11.46,82c10.25,14.77,21.21,30.4,32.31,46.31Z"/><path d="M559.93,327.08l36.41,66.26-38.18-17,30.41,55.43-68.31-40L529,431.94l49.85,49.86c24.25,24.25,60.32-16.06,60.32-16.06s40.3-36.06,16-60.31l-77.86-77.85Z"/><polygon points="558.94 268.25 542.18 317.39 560.85 314.14 558.94 268.25"/><polygon points="520.61 333.44 532.85 360.24 571.24 370.92 553.35 340.3 520.61 333.44"/><polygon points="482.78 427.84 514.96 413.35 512.84 431.73 482.78 427.84"/><polygon points="738.71 299.71 744.21 339.41 764.21 328.61 738.71 299.71"/><polygon points="727.91 441.71 731.01 463.71 742.11 457.71 727.91 441.71"/><polygon points="867.21 473.01 846.41 465.01 846.31 477.61 867.21 473.01"/><polygon points="893.11 459.31 927.71 468.01 925.51 447.91 893.11 459.31"/><polygon points="807.61 520.01 843.21 518.01 835.11 499.41 807.61 520.01"/><polygon points="893.71 502.51 964.21 524.01 940.21 543.01 912.71 528.01 893.71 502.51"/><path d="M828.81,362.61l-52.7,57.6,35.4-.3-1.1,19.9,61-4.4c8.2-4,16.3-7.9,24.1-11.8,44.5-21.7,49.9-66.1,49.9-66.1l58.7-28.6,2.6,5.4,22.2-10.8-9.9-20.2-9.6-20.2-22.2,10.8,2.6,5.4-58.7,28.6s-38.3-23-82.8-1.3c-14.5,7.1-29.9,14.6-45.5,22.2Z"/><path d="M804.31,558.41l-14.9-15.1L751,586.21l-8.7-95.7-18.2,6.6c-12,40.9-24.1,82.2-34.1,116.3-9.7,32.9,43,45.3,43,45.3s51,18.1,60.6-14.8c9.8-33.5,21.8-74.1,33.6-114.3Z"/><polygon points="791.41 450.11 760.71 472.81 763.41 544.11 788.71 507.51 791.41 450.11"/><polygon points="744.11 380.51 750.11 414.51 718.11 394.51 714.11 350.51 744.11 380.51"/><g class="cls-4"><polygon class="cls-5" points="58.38 569.57 61.27 580.09 71.78 582.96 61.27 585.84 58.38 596.36 55.52 585.84 44.99 582.96 55.52 580.09 58.38 569.57"/><polygon class="cls-5" points="58.55 225.54 62.28 239.17 75.9 242.89 62.28 246.62 58.55 260.24 54.83 246.62 41.21 242.89 54.83 239.17 58.55 225.54"/><polygon class="cls-5" points="771.01 227.78 776.93 249.43 798.58 255.36 776.93 261.28 771.01 282.93 765.09 261.28 743.44 255.36 765.09 249.43 771.01 227.78"/><polygon class="cls-5" points="451.46 621.15 454.34 631.66 464.84 634.54 454.34 637.41 451.46 647.93 448.59 637.41 438.06 634.54 448.59 631.66 451.46 621.15"/><polygon class="cls-5" points="575.41 470.58 579.13 484.21 592.75 487.94 579.13 491.66 575.41 505.29 571.68 491.66 558.06 487.94 571.68 484.21 575.41 470.58"/><polygon class="cls-5" points="1058.3 500.96 1064.22 522.6 1085.87 528.53 1064.22 534.46 1058.3 556.1 1052.38 534.46 1030.72 528.53 1052.38 522.6 1058.3 500.96"/><g class="cls-6"><path class="cls-7" d="M816.49,474.5a8.93,8.93,0,1,1,8.93-8.93A8.93,8.93,0,0,1,816.49,474.5Z"/><path class="cls-7" d="M206.67,169.45a6.28,6.28,0,1,1,6.28-6.28A6.28,6.28,0,0,1,206.67,169.45Z"/><path class="cls-7" d="M572,667.63a6.29,6.29,0,1,1,6.29-6.3A6.29,6.29,0,0,1,572,667.63Z"/><path class="cls-7" d="M598.59,143.32a10.77,10.77,0,1,1,10.77-10.76A10.77,10.77,0,0,1,598.59,143.32Z"/><path class="cls-7" d="M117.92,372.75a4.18,4.18,0,1,1,4.17-4.18A4.18,4.18,0,0,1,117.92,372.75Z"/><path class="cls-7" d="M276.84,684.8a8,8,0,1,1,8,8A8,8,0,0,1,276.84,684.8Z"/><path class="cls-7" d="M887.36,316.89a5.63,5.63,0,1,1,5.63,5.63A5.63,5.63,0,0,1,887.36,316.89Z"/><path class="cls-7" d="M103.93,465.94a5.63,5.63,0,1,1,5.62,5.63A5.62,5.62,0,0,1,103.93,465.94Z"/><path class="cls-7" d="M318.07,148.06a5.63,5.63,0,1,1,5.62,5.62A5.63,5.63,0,0,1,318.07,148.06Z"/><path class="cls-7" d="M446.45,642.31a5.51,5.51,0,1,1,5.43,5.59A5.52,5.52,0,0,1,446.45,642.31Z"/><path class="cls-7" d="M643.65,691.58a3.8,3.8,0,1,1,3.74,3.86A3.79,3.79,0,0,1,643.65,691.58Z"/><path class="cls-7" d="M689.29,711.91a8.45,8.45,0,1,1-8.57,8.33A8.44,8.44,0,0,1,689.29,711.91Z"/><path class="cls-7" d="M480.17,704.79a4.94,4.94,0,1,1-5,4.87A4.94,4.94,0,0,1,480.17,704.79Z"/><path class="cls-7" d="M443.4,374.17a3.74,3.74,0,1,1,3.74,3.74A3.75,3.75,0,0,1,443.4,374.17Z"/><path class="cls-7" d="M815.26,136.06a1.78,1.78,0,1,1,1.78,1.78A1.78,1.78,0,0,1,815.26,136.06Z"/><path class="cls-7" d="M625,215.72a1.78,1.78,0,1,1,1.78,1.78A1.78,1.78,0,0,1,625,215.72Z"/><path class="cls-7" d="M513,174.42a3.88,3.88,0,1,1,3.88,3.88A3.88,3.88,0,0,1,513,174.42Z"/></g><g class="cls-8"><path class="cls-9" d="M619.48,718.89a8.93,8.93,0,1,1,8.93-8.93A8.92,8.92,0,0,1,619.48,718.89Z"/><path class="cls-9" d="M439.74,316.43a10.77,10.77,0,1,1,10.77-10.77A10.77,10.77,0,0,1,439.74,316.43Z"/><path class="cls-9" d="M690.36,561.28a5.63,5.63,0,1,1,5.62,5.63A5.62,5.62,0,0,1,690.36,561.28Z"/><circle class="cls-9" cx="119.65" cy="371.32" r="5.63"/><path class="cls-9" d="M722,700.69a9.64,9.64,0,1,1,9.64,9.64A9.63,9.63,0,0,1,722,700.69Z"/><path class="cls-9" d="M246.4,618.56a3.74,3.74,0,1,1,3.74,3.74A3.73,3.73,0,0,1,246.4,618.56Z"/><path class="cls-9" d="M618.26,380.45a1.78,1.78,0,1,1,1.77,1.78A1.78,1.78,0,0,1,618.26,380.45Z"/><path class="cls-9" d="M428,460.11a1.78,1.78,0,1,1,1.78,1.78A1.78,1.78,0,0,1,428,460.11Z"/><path class="cls-9" d="M316,418.8a3.89,3.89,0,1,1,3.88,3.89A3.88,3.88,0,0,1,316,418.8Z"/></g><path class="cls-9" d="M65.88,797h22.7a26.85,26.85,0,1,0-22.7,0Z"/><path class="cls-9" d="M583.92,263.86a15.68,15.68,0,1,1,15.68-15.69A15.69,15.69,0,0,1,583.92,263.86Z"/><path class="cls-9" d="M882.69,797a15.67,15.67,0,1,0-24.06,0Z"/><path class="cls-9" d="M-33.63,602.11A19.93,19.93,0,0,1-13.7,582.18,19.93,19.93,0,0,1,6.23,602.11,19.93,19.93,0,0,1-13.7,622,19.93,19.93,0,0,1-33.63,602.11Z"/><path class="cls-9" d="M204.57,279.35a13.75,13.75,0,1,1,13.56,13.93A13.77,13.77,0,0,1,204.57,279.35Z"/><path class="cls-9" d="M863.8,351.64a9.49,9.49,0,1,1,9.36,9.62A9.47,9.47,0,0,1,863.8,351.64Z"/><path class="cls-9" d="M385.77,411.18a12.31,12.31,0,1,1-12.48,12.15A12.32,12.32,0,0,1,385.77,411.18Z"/><g class="cls-8"><path class="cls-9" d="M864,669.63A8.93,8.93,0,1,1,873,660.7,8.92,8.92,0,0,1,864,669.63Z"/><path class="cls-9" d="M177,386.81a6.29,6.29,0,1,1,6.28-6.29A6.28,6.28,0,0,1,177,386.81Z"/><path class="cls-9" d="M684.29,267.18a10.77,10.77,0,1,1,10.77-10.77A10.77,10.77,0,0,1,684.29,267.18Z"/><path class="cls-9" d="M165.46,567.88a4.18,4.18,0,1,1,4.18-4.17A4.17,4.17,0,0,1,165.46,567.88Z"/><path class="cls-9" d="M151.47,661.08a5.63,5.63,0,1,1,5.62,5.62A5.63,5.63,0,0,1,151.47,661.08Z"/><path class="cls-9" d="M358.57,322.07a5.63,5.63,0,1,1,5.63,5.62A5.63,5.63,0,0,1,358.57,322.07Z"/><path class="cls-9" d="M491,569.31a3.74,3.74,0,1,1,3.74,3.74A3.73,3.73,0,0,1,491,569.31Z"/><path class="cls-9" d="M862.8,331.2a1.78,1.78,0,1,1,1.78,1.78A1.78,1.78,0,0,1,862.8,331.2Z"/><path class="cls-9" d="M672.51,410.86a1.78,1.78,0,1,1,1.78,1.78A1.78,1.78,0,0,1,672.51,410.86Z"/><path class="cls-9" d="M560.56,369.55a3.89,3.89,0,1,1,3.88,3.88A3.88,3.88,0,0,1,560.56,369.55Z"/></g><g class="cls-6"><path class="cls-7" d="M1125.51,220.18a6.28,6.28,0,1,1,6.29-6.28A6.28,6.28,0,0,1,1125.51,220.18Z"/><path class="cls-7" d="M1114,401.26a4.18,4.18,0,1,1,4.17-4.18A4.18,4.18,0,0,1,1114,401.26Z"/><path class="cls-7" d="M926.06,211.9a4.44,4.44,0,1,1,4.44-4.44A4.44,4.44,0,0,1,926.06,211.9Z"/><path class="cls-7" d="M890.9,323.51a4.34,4.34,0,1,1,4.34-4.34A4.34,4.34,0,0,1,890.9,323.51Z"/><path class="cls-7" d="M913.35,271.15a9.64,9.64,0,1,1,9.63,9.64A9.64,9.64,0,0,1,913.35,271.15Z"/><path class="cls-7" d="M1100,494.46a5.63,5.63,0,1,1,5.62,5.62A5.62,5.62,0,0,1,1100,494.46Z"/><path class="cls-7" d="M908.56,509.68a5.63,5.63,0,1,1,5.63,5.63A5.63,5.63,0,0,1,908.56,509.68Z"/></g><g class="cls-8"><path class="cls-9" d="M928.51,464.58a6.29,6.29,0,1,1,6.28-6.29A6.29,6.29,0,0,1,928.51,464.58Z"/><path class="cls-9" d="M917,645.65a4.18,4.18,0,1,1,4.18-4.18A4.17,4.17,0,0,1,917,645.65Z"/><path class="cls-9" d="M903,738.85a5.63,5.63,0,1,1,5.62,5.62A5.63,5.63,0,0,1,903,738.85Z"/><circle class="cls-9" cx="1115.75" cy="399.83" r="5.63"/></g><path class="cls-9" d="M1038.61,797a26.82,26.82,0,0,0-53,0Z"/><path class="cls-9" d="M901.26,630.62a19.93,19.93,0,1,1,19.92,19.94A19.92,19.92,0,0,1,901.26,630.62Z"/><path class="cls-9" d="M1139.45,307.86A13.75,13.75,0,1,1,1153,321.8,13.76,13.76,0,0,1,1139.45,307.86Z"/><g class="cls-8"><path class="cls-9" d="M885.4,744.26a6.29,6.29,0,1,1,6.29-6.29A6.29,6.29,0,0,1,885.4,744.26Z"/><path class="cls-9" d="M895.61,181.06a2,2,0,1,1,2-2A2,2,0,0,1,895.61,181.06Z"/><path class="cls-9" d="M973.6,407A4.44,4.44,0,1,1,978,402.6,4.44,4.44,0,0,1,973.6,407Z"/><path class="cls-9" d="M938.45,518.64a4.34,4.34,0,1,1,4.34-4.33A4.33,4.33,0,0,1,938.45,518.64Z"/><path class="cls-9" d="M960.89,466.29a9.64,9.64,0,1,1,9.64,9.64A9.63,9.63,0,0,1,960.89,466.29Z"/><path class="cls-9" d="M956.1,704.82a5.63,5.63,0,1,1,5.63,5.63A5.63,5.63,0,0,1,956.1,704.82Z"/></g></g></g></g></svg>